<svg width="136" height="36" viewBox="0 0 136 36" fill="none" xmlns="http://www.w3.org/2000/svg">
<path d="M8.208 27V11.718H0.567V8.1H19.467V11.718H11.826V27H8.208ZM25.7091 10.854L23.5491 13.041V15.525L25.7091 17.712V27H22.0911V8.1H25.7091V10.854ZM38.0869 22.626V15.012H32.9839V27H29.3659V13.554H31.3369L33.5239 11.367H36.4939L38.6539 13.554H41.1379L43.3249 11.367H46.2949L48.4819 13.554H50.4529V27H46.8079V15.012H41.7319V22.626H38.0869ZM72.9656 27H57.4406L54.0656 23.625V14.742L57.4406 11.367H72.9656V18.306L67.8896 23.382H72.9656V27ZM57.6836 16.254V22.14L58.9256 23.382H62.7596L69.3206 16.794V15.012H58.9256L57.6836 16.254ZM80.421 27H76.803V8.1H80.421V27ZM88.1729 10.854L86.0129 13.041V15.525L88.1729 17.712V27H84.5549V8.1H88.1729V10.854ZM107.193 27V16.254L105.951 15.012H95.5557V27H91.9377V11.367H94.6917L96.8787 13.554H99.3627L101.523 11.367H107.463L110.838 14.742V27H107.193ZM133.267 27H117.742L114.367 23.625V14.742L117.742 11.367H133.267V18.306L128.191 23.382H133.267V27ZM117.985 16.254V22.14L119.227 23.382H123.061L129.622 16.794V15.012H119.227L117.985 16.254Z" fill="#07D6D1"/>
<line x1="7" y1="34" x2="136" y2="34" stroke="#0C9794" stroke-width="4"/>
</svg>
