<svg width="350" height="50" viewBox="0 0 104 15" fill="none" xmlns="http://www.w3.org/2000/svg">
<line y1="3.8208" x2="5.4129" y2="3.8208" stroke="#06EBE5"/>
<line x1="1.23035" y1="1.46777" x2="12.5482" y2="1.46777" stroke="#06EBE5"/>
<line x1="5.16687" y1="4.76172" x2="6.88916" y2="4.76172" stroke="#06EBE5"/>
<line x1="8.11951" y1="5.23242" x2="11.5641" y2="5.23242" stroke="#06EBE5"/>
<line x1="4.19043" y1="4.7915" x2="4.19043" y2="7.61471" stroke="#06EBE5"/>
<line x1="2.71436" y1="4.7915" x2="2.71436" y2="7.61471" stroke="#06EBE5"/>
<line x1="1.23828" y1="4.7915" x2="1.23828" y2="7.61471" stroke="#06EBE5"/>
<path d="M6.64319 1.49823L7.79851 3.38037L12.5482 3.38037" stroke="#06EBE5"/>
<path d="M12.5491 1.0263L56.3443 1.50765L78.2405 1.50765L80.824 5.49627" stroke="#06EBE5"/>
<path d="M35.9221 3.37842L38.1379 7.14269L81.9331 7.62405L99.1546 7.62404L103.091 13.9654" stroke="#06EBE5"/>
<ellipse cx="54.0061" cy="4.55475" rx="0.615102" ry="1.17634" fill="black"/>
<ellipse cx="56.4662" cy="4.55475" rx="0.615102" ry="1.17634" fill="black"/>
<ellipse cx="58.927" cy="4.55475" rx="0.615102" ry="1.17634" fill="black"/>
<ellipse cx="61.3871" cy="4.55475" rx="0.615102" ry="1.17634" fill="black"/>
<ellipse cx="63.8478" cy="4.55475" rx="0.615102" ry="1.17634" fill="black"/>
<path d="M39.6125 3.81982C39.3364 3.81982 39.1125 4.04368 39.1125 4.31982C39.1125 4.59597 39.3364 4.81982 39.6125 4.81982V3.81982ZM39.6125 4.81982H52.0376V3.81982H39.6125V4.81982Z" fill="#06EBE5"/>
<path d="M65.6931 3.81982C65.417 3.81982 65.1931 4.04368 65.1931 4.31982C65.1931 4.59597 65.417 4.81982 65.6931 4.81982V3.81982ZM65.6931 4.81982H78.1182V3.81982H65.6931V4.81982Z" fill="#06EBE5"/>
</svg>
