<svg width="16" height="2500" viewBox="0 0 16 786" fill="none" xmlns="http://www.w3.org/2000/svg">
<path opacity="0.6" d="M0 8C1.93129e-07 12.4183 3.58172 16 8 16C12.4183 16 16 12.4183 16 8C16 3.58172 12.4183 -1.93129e-07 8 0C3.58172 1.93129e-07 -1.93129e-07 3.58172 0 8ZM3.36141e-05 777C3.38072e-05 781.418 3.58176 785 8.00003 785C12.4183 785 16 781.418 16 777C16 772.582 12.4183 769 8.00003 769C3.58176 769 3.34209e-05 772.582 3.36141e-05 777ZM6.5 8L6.50003 777L9.50003 777L9.5 8L6.5 8Z" fill="#06EBE5"/>
</svg>
