<svg width="91" height="20" viewBox="0 0 91 20" fill="none" xmlns="http://www.w3.org/2000/svg">
<path d="M14.492 0.399999C17.376 0.399999 19.728 2.78 19.756 5.664V14.764C19.756 17.648 17.376 20 14.492 20H5.392C2.508 20 0.156 17.648 0.156 14.764V5.664C0.156 2.78 2.508 0.399999 5.392 0.399999H14.492ZM16.48 14.764V5.664C16.48 4.572 15.584 3.676 14.492 3.676H5.392C4.3 3.676 3.404 4.572 3.404 5.664V14.764C3.404 15.856 4.3 16.752 5.392 16.752H14.492C15.584 16.752 16.48 15.856 16.48 14.764ZM38.4451 0.399999C41.3291 0.399999 43.6811 2.78 43.7091 5.664V14.764C43.7091 17.648 41.3291 20 38.4451 20H29.3451C26.4611 20 24.1091 17.648 24.1091 14.764V5.664C24.1091 2.78 26.4611 0.399999 29.3451 0.399999H38.4451ZM40.4331 14.764V5.664C40.4331 4.572 39.5371 3.676 38.4451 3.676H29.3451C28.2531 3.676 27.3571 4.572 27.3571 5.664V14.764C27.3571 15.856 28.2531 16.752 29.3451 16.752H38.4451C39.5371 16.752 40.4331 15.856 40.4331 14.764ZM51.6463 13.28C51.3943 13.364 51.2263 13.616 51.2263 13.896V16.752H67.5503V20H47.9783V13.896C47.9783 12.216 49.0423 10.732 50.6383 10.2L67.5783 3.676V7.12L51.6463 13.28ZM63.8823 0.399999C65.7863 0.399999 67.3263 1.828 67.5223 3.676H47.9783V0.399999H63.8823ZM90.2171 11.852H82.8811V8.576H90.2171V11.852Z" fill="#BBB4B4"/>
</svg>
