<svg width="91" height="20" viewBox="0 0 91 20" fill="none" xmlns="http://www.w3.org/2000/svg">
<path d="M14.492 0.399999C17.376 0.399999 19.728 2.78 19.756 5.664V14.764C19.756 17.648 17.376 20 14.492 20H5.392C2.508 20 0.156 17.648 0.156 14.764V5.664C0.156 2.78 2.508 0.399999 5.392 0.399999H14.492ZM16.48 14.764V5.664C16.48 4.572 15.584 3.676 14.492 3.676H5.392C4.3 3.676 3.404 4.572 3.404 5.664V14.764C3.404 15.856 4.3 16.752 5.392 16.752H14.492C15.584 16.752 16.48 15.856 16.48 14.764ZM38.4451 0.399999C41.3291 0.399999 43.6811 2.78 43.7091 5.664V14.764C43.7091 17.648 41.3291 20 38.4451 20H29.3451C26.4611 20 24.1091 17.648 24.1091 14.764V5.664C24.1091 2.78 26.4611 0.399999 29.3451 0.399999H38.4451ZM40.4331 14.764V5.664C40.4331 4.572 39.5371 3.676 38.4451 3.676H29.3451C28.2531 3.676 27.3571 4.572 27.3571 5.664V14.764C27.3571 15.856 28.2531 16.752 29.3451 16.752H38.4451C39.5371 16.752 40.4331 15.856 40.4331 14.764ZM67.4103 3.676H47.8383V0.399999H67.4103V3.676ZM55.9863 11.852V8.464L67.4383 3.676V6.896L62.2303 9.024C62.9863 9.024 63.6023 9.108 64.2743 9.388C64.9183 9.64 65.5063 10.06 65.9823 10.564C66.9063 11.572 67.4383 12.944 67.4383 14.288C67.4383 17.452 64.8623 20 61.6983 20H53.5503C50.3863 20 47.8383 17.452 47.8383 14.288V13.672H51.0863V14.288C51.0863 15.66 52.1783 16.752 53.5503 16.752H61.6983C63.0703 16.752 64.1623 15.66 64.1623 14.288C64.1623 12.944 63.0703 11.852 61.6983 11.852H55.9863ZM90.1898 11.852H82.8538V8.576H90.1898V11.852Z" fill="#BBB4B4"/>
</svg>
