<svg width="101" height="25" viewBox="0 0 101 25" fill="none" xmlns="http://www.w3.org/2000/svg">
<path d="M13.904 10.576C17.068 10.576 19.644 13.152 19.644 16.288C19.644 19.452 17.068 22 13.904 22H11.468V24.044H8.192V22H5.756C2.732 22 0.268 19.676 0.0440002 16.708H3.32C3.516 17.856 4.524 18.752 5.756 18.752H13.904C15.276 18.752 16.368 17.66 16.368 16.288C16.368 14.944 15.276 13.852 13.904 13.852H5.756C2.592 13.852 0.0440002 11.276 0.0440002 8.14C0.0440002 4.976 2.592 2.4 5.756 2.4H8.192V0.384H11.468V2.4H13.904C16.928 2.4 19.42 4.752 19.616 7.72H16.34C16.144 6.572 15.136 5.676 13.904 5.676H5.756C4.384 5.676 3.292 6.768 3.292 8.14C3.292 9.484 4.412 10.576 5.756 10.576H13.904ZM23.583 2.4H28.875V22H25.599V5.676H23.583V2.4ZM47.6326 2.4C50.5166 2.4 52.8686 4.78 52.8966 7.664V16.764C52.8966 19.648 50.5166 22 47.6326 22H38.5326C35.6486 22 33.2966 19.648 33.2966 16.764V7.664C33.2966 4.78 35.6486 2.4 38.5326 2.4H47.6326ZM49.6206 16.764V7.664C49.6206 6.572 48.7246 5.676 47.6326 5.676H38.5326C37.4406 5.676 36.5446 6.572 36.5446 7.664V16.764C36.5446 17.856 37.4406 18.752 38.5326 18.752H47.6326C48.7246 18.752 49.6206 17.856 49.6206 16.764ZM71.5858 2.4C74.4698 2.4 76.8218 4.78 76.8498 7.664V16.764C76.8498 19.648 74.4698 22 71.5858 22H62.4857C59.6018 22 57.2498 19.648 57.2498 16.764V7.664C57.2498 4.78 59.6018 2.4 62.4857 2.4H71.5858ZM73.5738 16.764V7.664C73.5738 6.572 72.6778 5.676 71.5858 5.676H62.4857C61.3938 5.676 60.4978 6.572 60.4978 7.664V16.764C60.4978 17.856 61.3938 18.752 62.4857 18.752H71.5858C72.6778 18.752 73.5738 17.856 73.5738 16.764ZM95.5389 2.4C98.4229 2.4 100.775 4.78 100.803 7.664V16.764C100.803 19.648 98.4229 22 95.5389 22H86.4389C83.5549 22 81.2029 19.648 81.2029 16.764V7.664C81.2029 4.78 83.5549 2.4 86.4389 2.4H95.5389ZM97.5269 16.764V7.664C97.5269 6.572 96.6309 5.676 95.5389 5.676H86.4389C85.3469 5.676 84.4509 6.572 84.4509 7.664V16.764C84.4509 17.856 85.3469 18.752 86.4389 18.752H95.5389C96.6309 18.752 97.5269 17.856 97.5269 16.764Z" fill="#BBB4B4"/>
</svg>
