<svg width="101" height="25" viewBox="0 0 101 25" fill="none" xmlns="http://www.w3.org/2000/svg">
<path d="M13.904 10.576C17.068 10.576 19.644 13.152 19.644 16.288C19.644 19.452 17.068 22 13.904 22H11.468V24.044H8.192V22H5.756C2.732 22 0.268 19.676 0.0440002 16.708H3.32C3.516 17.856 4.524 18.752 5.756 18.752H13.904C15.276 18.752 16.368 17.66 16.368 16.288C16.368 14.944 15.276 13.852 13.904 13.852H5.756C2.592 13.852 0.0440002 11.276 0.0440002 8.14C0.0440002 4.976 2.592 2.4 5.756 2.4H8.192V0.384H11.468V2.4H13.904C16.928 2.4 19.42 4.752 19.616 7.72H16.34C16.144 6.572 15.136 5.676 13.904 5.676H5.756C4.384 5.676 3.292 6.768 3.292 8.14C3.292 9.484 4.412 10.576 5.756 10.576H13.904ZM23.583 2.4H28.875V22H25.599V5.676H23.583V2.4ZM46.1206 8.532C49.8166 8.532 52.8406 11.556 52.8406 15.28C52.8406 19.004 49.8166 22 46.1206 22H39.9886C36.4046 22 33.4926 19.2 33.2686 15.672H36.5446C36.7406 17.408 38.2246 18.752 39.9886 18.752H46.1206C48.0246 18.752 49.5926 17.184 49.5926 15.28C49.5926 13.376 48.0246 11.808 46.1206 11.808H33.2686V2.4H51.8326V5.676H36.5166V8.532H46.1206ZM71.367 2.4C74.251 2.4 76.603 4.78 76.631 7.664V16.764C76.631 19.648 74.251 22 71.367 22H62.267C59.383 22 57.031 19.648 57.031 16.764V7.664C57.031 4.78 59.383 2.4 62.267 2.4H71.367ZM73.355 16.764V7.664C73.355 6.572 72.459 5.676 71.367 5.676H62.267C61.175 5.676 60.279 6.572 60.279 7.664V16.764C60.279 17.856 61.175 18.752 62.267 18.752H71.367C72.459 18.752 73.355 17.856 73.355 16.764ZM95.3201 2.4C98.2041 2.4 100.556 4.78 100.584 7.664V16.764C100.584 19.648 98.2041 22 95.3201 22H86.2201C83.3361 22 80.9841 19.648 80.9841 16.764V7.664C80.9841 4.78 83.3361 2.4 86.2201 2.4H95.3201ZM97.3081 16.764V7.664C97.3081 6.572 96.4121 5.676 95.3201 5.676H86.2201C85.1281 5.676 84.2321 6.572 84.2321 7.664V16.764C84.2321 17.856 85.1281 18.752 86.2201 18.752H95.3201C96.4121 18.752 97.3081 17.856 97.3081 16.764Z" fill="#BBB4B4"/>
</svg>
