<svg width="116" height="25" viewBox="0 0 116 25" fill="none" xmlns="http://www.w3.org/2000/svg">
<path d="M13.904 10.576C17.068 10.576 19.644 13.152 19.644 16.288C19.644 19.452 17.068 22 13.904 22H11.468V24.044H8.192V22H5.756C2.732 22 0.268 19.676 0.0440002 16.708H3.32C3.516 17.856 4.524 18.752 5.756 18.752H13.904C15.276 18.752 16.368 17.66 16.368 16.288C16.368 14.944 15.276 13.852 13.904 13.852H5.756C2.592 13.852 0.0440002 11.276 0.0440002 8.14C0.0440002 4.976 2.592 2.4 5.756 2.4H8.192V0.384H11.468V2.4H13.904C16.928 2.4 19.42 4.752 19.616 7.72H16.34C16.144 6.572 15.136 5.676 13.904 5.676H5.756C4.384 5.676 3.292 6.768 3.292 8.14C3.292 9.484 4.412 10.576 5.756 10.576H13.904ZM27.447 15.28C27.195 15.364 27.027 15.616 27.027 15.896V18.752H43.351V22H23.779V15.896C23.779 14.216 24.843 12.732 26.439 12.2L43.379 5.676V9.12L27.447 15.28ZM39.683 2.4C41.587 2.4 43.127 3.828 43.323 5.676H23.779V2.4H39.683ZM61.9061 2.4C64.7901 2.4 67.1421 4.78 67.1701 7.664V16.764C67.1701 19.648 64.7901 22 61.9061 22H52.8061C49.9221 22 47.5701 19.648 47.5701 16.764V7.664C47.5701 4.78 49.9221 2.4 52.8061 2.4H61.9061ZM63.8941 16.764V7.664C63.8941 6.572 62.9981 5.676 61.9061 5.676H52.8061C51.7141 5.676 50.8181 6.572 50.8181 7.664V16.764C50.8181 17.856 51.7141 18.752 52.8061 18.752H61.9061C62.9981 18.752 63.8941 17.856 63.8941 16.764ZM85.8592 2.4C88.7432 2.4 91.0952 4.78 91.1232 7.664V16.764C91.1232 19.648 88.7432 22 85.8592 22H76.7592C73.8752 22 71.5232 19.648 71.5232 16.764V7.664C71.5232 4.78 73.8752 2.4 76.7592 2.4H85.8592ZM87.8472 16.764V7.664C87.8472 6.572 86.9512 5.676 85.8592 5.676H76.7592C75.6672 5.676 74.7712 6.572 74.7712 7.664V16.764C74.7712 17.856 75.6672 18.752 76.7592 18.752H85.8592C86.9512 18.752 87.8472 17.856 87.8472 16.764ZM109.812 2.4C112.696 2.4 115.048 4.78 115.076 7.664V16.764C115.076 19.648 112.696 22 109.812 22H100.712C97.8283 22 95.4763 19.648 95.4763 16.764V7.664C95.4763 4.78 97.8283 2.4 100.712 2.4H109.812ZM111.8 16.764V7.664C111.8 6.572 110.904 5.676 109.812 5.676H100.712C99.6203 5.676 98.7243 6.572 98.7243 7.664V16.764C98.7243 17.856 99.6203 18.752 100.712 18.752H109.812C110.904 18.752 111.8 17.856 111.8 16.764Z" fill="#BBB4B4"/>
</svg>
