<svg width="115" height="25" viewBox="0 0 115 25" fill="none" xmlns="http://www.w3.org/2000/svg">
<path d="M13.904 10.576C17.068 10.576 19.644 13.152 19.644 16.288C19.644 19.452 17.068 22 13.904 22H11.468V24.044H8.192V22H5.756C2.732 22 0.268 19.676 0.0440002 16.708H3.32C3.516 17.856 4.524 18.752 5.756 18.752H13.904C15.276 18.752 16.368 17.66 16.368 16.288C16.368 14.944 15.276 13.852 13.904 13.852H5.756C2.592 13.852 0.0440002 11.276 0.0440002 8.14C0.0440002 4.976 2.592 2.4 5.756 2.4H8.192V0.384H11.468V2.4H13.904C16.928 2.4 19.42 4.752 19.616 7.72H16.34C16.144 6.572 15.136 5.676 13.904 5.676H5.756C4.384 5.676 3.292 6.768 3.292 8.14C3.292 9.484 4.412 10.576 5.756 10.576H13.904ZM27.447 15.28C27.195 15.364 27.027 15.616 27.027 15.896V18.752H43.351V22H23.779V15.896C23.779 14.216 24.843 12.732 26.439 12.2L43.379 5.676V9.12L27.447 15.28ZM39.683 2.4C41.587 2.4 43.127 3.828 43.323 5.676H23.779V2.4H39.683ZM59.8472 8.532C63.5432 8.532 66.5672 11.556 66.5672 15.28C66.5672 19.004 63.5432 22 59.8472 22H53.7152C50.1312 22 47.2192 19.2 46.9952 15.672H50.2712C50.4672 17.408 51.9512 18.752 53.7152 18.752H59.8472C61.7512 18.752 63.3192 17.184 63.3192 15.28C63.3192 13.376 61.7512 11.808 59.8472 11.808H46.9952V2.4H65.5592V5.676H50.2432V8.532H59.8472ZM85.0936 2.4C87.9776 2.4 90.3296 4.78 90.3576 7.664V16.764C90.3576 19.648 87.9776 22 85.0936 22H75.9936C73.1096 22 70.7576 19.648 70.7576 16.764V7.664C70.7576 4.78 73.1096 2.4 75.9936 2.4H85.0936ZM87.0816 16.764V7.664C87.0816 6.572 86.1856 5.676 85.0936 5.676H75.9936C74.9016 5.676 74.0056 6.572 74.0056 7.664V16.764C74.0056 17.856 74.9016 18.752 75.9936 18.752H85.0936C86.1856 18.752 87.0816 17.856 87.0816 16.764ZM109.047 2.4C111.931 2.4 114.283 4.78 114.311 7.664V16.764C114.311 19.648 111.931 22 109.047 22H99.9467C97.0627 22 94.7107 19.648 94.7107 16.764V7.664C94.7107 4.78 97.0627 2.4 99.9467 2.4H109.047ZM111.035 16.764V7.664C111.035 6.572 110.139 5.676 109.047 5.676H99.9467C98.8547 5.676 97.9587 6.572 97.9587 7.664V16.764C97.9587 17.856 98.8547 18.752 99.9467 18.752H109.047C110.139 18.752 111.035 17.856 111.035 16.764Z" fill="#BBB4B4"/>
</svg>
