<svg width="92" height="25" viewBox="0 0 92 25" fill="none" xmlns="http://www.w3.org/2000/svg">
<path d="M13.904 10.576C17.068 10.576 19.644 13.152 19.644 16.288C19.644 19.452 17.068 22 13.904 22H11.468V24.044H8.192V22H5.756C2.732 22 0.268 19.676 0.0440002 16.708H3.32C3.516 17.856 4.524 18.752 5.756 18.752H13.904C15.276 18.752 16.368 17.66 16.368 16.288C16.368 14.944 15.276 13.852 13.904 13.852H5.756C2.592 13.852 0.0440002 11.276 0.0440002 8.14C0.0440002 4.976 2.592 2.4 5.756 2.4H8.192V0.384H11.468V2.4H13.904C16.928 2.4 19.42 4.752 19.616 7.72H16.34C16.144 6.572 15.136 5.676 13.904 5.676H5.756C4.384 5.676 3.292 6.768 3.292 8.14C3.292 9.484 4.412 10.576 5.756 10.576H13.904ZM36.687 8.532C40.383 8.532 43.407 11.556 43.407 15.28C43.407 19.004 40.383 22 36.687 22H30.555C26.971 22 24.059 19.2 23.835 15.672H27.111C27.307 17.408 28.791 18.752 30.555 18.752H36.687C38.591 18.752 40.159 17.184 40.159 15.28C40.159 13.376 38.591 11.808 36.687 11.808H23.835V2.4H42.399V5.676H27.083V8.532H36.687ZM61.9334 2.4C64.8174 2.4 67.1694 4.78 67.1974 7.664V16.764C67.1974 19.648 64.8174 22 61.9334 22H52.8334C49.9494 22 47.5974 19.648 47.5974 16.764V7.664C47.5974 4.78 49.9494 2.4 52.8334 2.4H61.9334ZM63.9214 16.764V7.664C63.9214 6.572 63.0254 5.676 61.9334 5.676H52.8334C51.7414 5.676 50.8454 6.572 50.8454 7.664V16.764C50.8454 17.856 51.7414 18.752 52.8334 18.752H61.9334C63.0254 18.752 63.9214 17.856 63.9214 16.764ZM85.8865 2.4C88.7705 2.4 91.1225 4.78 91.1505 7.664V16.764C91.1505 19.648 88.7705 22 85.8865 22H76.7865C73.9025 22 71.5505 19.648 71.5505 16.764V7.664C71.5505 4.78 73.9025 2.4 76.7865 2.4H85.8865ZM87.8745 16.764V7.664C87.8745 6.572 86.9785 5.676 85.8865 5.676H76.7865C75.6945 5.676 74.7985 6.572 74.7985 7.664V16.764C74.7985 17.856 75.6945 18.752 76.7865 18.752H85.8865C86.9785 18.752 87.8745 17.856 87.8745 16.764Z" fill="#BBB4B4"/>
</svg>
