<svg width="397" height="3" viewBox="0 0 397 3" fill="none" xmlns="http://www.w3.org/2000/svg">
<path d="M9.89773 0.176136V2.36364H0.988636V0.176136H9.89773ZM22.7766 0.176136V2.36364H13.8675V0.176136H22.7766ZM35.6555 0.176136V2.36364H26.7464V0.176136H35.6555ZM48.5344 0.176136V2.36364H39.6254V0.176136H48.5344ZM61.4134 0.176136V2.36364H52.5043V0.176136H61.4134ZM74.2923 0.176136V2.36364H65.3832V0.176136H74.2923ZM87.1712 0.176136V2.36364H78.2621V0.176136H87.1712ZM100.05 0.176136V2.36364H91.141V0.176136H100.05ZM112.929 0.176136V2.36364H104.02V0.176136H112.929ZM125.808 0.176136V2.36364H116.899V0.176136H125.808ZM138.687 0.176136V2.36364H129.778V0.176136H138.687ZM151.566 0.176136V2.36364H142.657V0.176136H151.566ZM164.445 0.176136V2.36364H155.536V0.176136H164.445ZM177.324 0.176136V2.36364H168.414V0.176136H177.324ZM190.202 0.176136V2.36364H181.293V0.176136H190.202ZM203.081 0.176136V2.36364H194.172V0.176136H203.081ZM215.96 0.176136V2.36364H207.051V0.176136H215.96ZM228.839 0.176136V2.36364H219.93V0.176136H228.839ZM241.718 0.176136V2.36364H232.809V0.176136H241.718ZM254.597 0.176136V2.36364H245.688V0.176136H254.597ZM267.476 0.176136V2.36364H258.567V0.176136H267.476ZM280.355 0.176136V2.36364H271.446V0.176136H280.355ZM293.234 0.176136V2.36364H284.325V0.176136H293.234ZM306.113 0.176136V2.36364H297.203V0.176136H306.113ZM318.991 0.176136V2.36364H310.082V0.176136H318.991ZM331.87 0.176136V2.36364H322.961V0.176136H331.87ZM344.749 0.176136V2.36364H335.84V0.176136H344.749ZM357.628 0.176136V2.36364H348.719V0.176136H357.628ZM370.507 0.176136V2.36364H361.598V0.176136H370.507ZM383.386 0.176136V2.36364H374.477V0.176136H383.386ZM396.265 0.176136V2.36364H387.356V0.176136H396.265Z" fill="white"/>
</svg>
