<svg width="232" height="20" viewBox="0 0 232 20" fill="none" xmlns="http://www.w3.org/2000/svg">
<path d="M20.5111 7.764H17.2631V6.42C17.2631 4.908 16.0311 3.676 14.5191 3.676H6.93114C5.41914 3.676 4.18714 4.908 4.18714 6.42V8.576H12.3631V11.852H4.18714V14.008C4.18714 15.52 5.41914 16.752 6.93114 16.752H14.5191C16.0311 16.752 17.2631 15.52 17.2631 14.008V12.664H20.5111V14.008C20.5111 17.312 17.8231 20 14.5191 20H6.93114C3.62714 20 0.939141 17.312 0.939141 14.008V6.42C0.939141 3.116 3.62714 0.399999 6.93114 0.399999H14.5191C17.8231 0.399999 20.5111 3.116 20.5111 6.42V7.764ZM40.3419 2.444C43.2259 2.444 45.5779 4.796 45.5779 7.708V20H42.3019V7.708C42.3019 6.616 41.4059 5.72 40.3419 5.72H29.2539V2.444H40.3419ZM22.6739 3.76L24.9699 1.436L29.2539 5.72V20H25.9779V7.064L22.6739 3.76ZM47.4754 2.444H50.6674L57.9754 20H54.7554L47.4754 2.444ZM65.2554 2.444H68.4754L61.1674 20H57.9754L65.2554 2.444ZM74.1331 20H70.8851V5.524H74.1331V20ZM74.1331 2.668H70.8851V0.399999H74.1331V2.668ZM84.2698 2.444H93.4538V5.72H84.2698C82.5618 5.72 81.1898 7.092 81.1898 8.8V20H77.9418V8.8C77.9418 5.3 80.7698 2.444 84.2698 2.444ZM110.131 2.444C113.015 2.444 115.395 4.796 115.395 7.708V14.764C115.395 17.648 113.015 20 110.131 20H101.031C98.1466 20 95.7946 17.648 95.7946 14.764V7.708C95.7946 4.796 98.1466 2.444 101.031 2.444H110.131ZM112.119 14.764V7.708C112.119 6.616 111.223 5.72 110.131 5.72H101.031C99.9386 5.72 99.0426 6.616 99.0426 7.708V14.764C99.0426 15.856 99.9386 16.752 101.031 16.752H110.131C111.223 16.752 112.119 15.856 112.119 14.764ZM135.061 2.444C137.945 2.444 140.297 4.796 140.297 7.708V20H137.021V7.708C137.021 6.616 136.125 5.72 135.061 5.72H123.973V2.444H135.061ZM117.393 3.76L119.689 1.436L123.973 5.72V20H120.697V7.064L117.393 3.76ZM142.85 3.816L145.146 1.492L149.43 5.776V20H146.154V7.12L142.85 3.816ZM164.578 2.444C167.49 2.444 169.842 4.796 169.842 7.708V20H166.566V7.708C166.566 6.616 165.67 5.72 164.578 5.72H161.61C160.518 5.72 159.622 6.616 159.622 7.708V20H156.346V7.708C156.346 6.616 155.478 5.72 154.386 5.72H149.43V2.444H154.386C155.59 2.444 156.766 2.892 157.718 3.704L157.998 3.928L158.25 3.704C159.23 2.892 160.378 2.444 161.61 2.444H164.578ZM193.297 11.656L176.945 13.7V14.764C176.945 15.856 177.841 16.752 178.933 16.752H188.033C189.125 16.752 190.021 15.856 190.021 14.764V14.708H193.297V14.764C193.297 17.648 190.917 20 188.033 20H178.933C176.049 20 173.697 17.648 173.697 14.764V7.708C173.697 4.796 176.049 2.444 178.933 2.444H188.033C190.917 2.444 193.297 4.796 193.297 7.708V11.656ZM176.945 7.708V10.396L190.021 8.772V7.708C190.021 6.616 189.125 5.72 188.033 5.72H178.933C177.841 5.72 176.945 6.616 176.945 7.708ZM212.908 2.444C215.792 2.444 218.144 4.796 218.144 7.708V20H214.868V7.708C214.868 6.616 213.972 5.72 212.908 5.72H201.82V2.444H212.908ZM195.24 3.76L197.536 1.436L201.82 5.72V20H198.544V7.064L195.24 3.76ZM231.533 6.756H225.401V14.26C225.401 15.632 226.521 16.752 227.893 16.752H231.533V20H227.893C224.729 20 222.153 17.452 222.153 14.26V0.399999H225.401V3.48H231.533V6.756Z" fill="white"/>
</svg>
