<svg width="203" height="20" viewBox="0 0 203 20" fill="none" xmlns="http://www.w3.org/2000/svg">
<path d="M17.796 3.676H3.488V8.576H17.796V11.852H3.488V20H0.24V0.399999H17.796V3.676ZM24.57 20H21.322V0.399999H24.57V20ZM48.6877 7.148C48.6877 10.088 46.7557 12.664 43.9277 13.56L43.4517 13.7L46.6157 20H42.9757L39.8957 13.896H32.3357V20H29.0877V0.399999H41.9397C45.6637 0.399999 48.6877 3.424 48.6877 7.148ZM41.9397 10.62C43.8437 10.62 45.4117 9.052 45.4117 7.148C45.4117 5.244 43.8437 3.676 41.9397 3.676H32.3357V10.62H41.9397ZM65.2431 8.576C68.4071 8.576 70.9831 11.152 70.9831 14.288C70.9831 17.452 68.4071 20 65.2431 20H57.0951C54.0711 20 51.6071 17.676 51.3831 14.708H54.6591C54.8551 15.856 55.8631 16.752 57.0951 16.752H65.2431C66.6151 16.752 67.7071 15.66 67.7071 14.288C67.7071 12.944 66.6151 11.852 65.2431 11.852H57.0951C53.9311 11.852 51.3831 9.276 51.3831 6.14C51.3831 2.976 53.9311 0.399999 57.0951 0.399999H65.2431C68.2671 0.399999 70.7311 2.752 70.9551 5.72H67.6791C67.4831 4.572 66.4751 3.676 65.2431 3.676H57.0951C55.7231 3.676 54.6311 4.768 54.6311 6.14C54.6311 7.484 55.7231 8.576 57.0951 8.576H65.2431ZM73.0437 0.399999H92.6437V3.676H84.4677V20H81.1917V3.676H73.0437V0.399999ZM120.143 0.399999C123.867 0.399999 126.891 3.424 126.891 7.148C126.891 10.872 123.867 13.896 120.143 13.896H110.539V20H107.291V0.399999H120.143ZM120.143 10.62C122.047 10.62 123.615 9.052 123.615 7.148C123.615 5.244 122.047 3.676 120.143 3.676H110.539V10.62H120.143ZM149.805 7.148C149.805 10.088 147.873 12.664 145.045 13.56L144.569 13.7L147.733 20H144.093L141.013 13.896H133.453V20H130.205V0.399999H143.057C146.781 0.399999 149.805 3.424 149.805 7.148ZM143.057 10.62C144.961 10.62 146.529 9.052 146.529 7.148C146.529 5.244 144.961 3.676 143.057 3.676H133.453V10.62H143.057ZM156.476 20H153.228V0.399999H156.476V20ZM179.838 20H160.266V16.752H179.838V20ZM179.838 3.676H160.266V0.399999H179.838V3.676ZM160.266 16.752V13.532L179.838 3.676V6.896L160.266 16.752ZM202.787 7.764H199.539V6.42C199.539 4.908 198.307 3.676 196.795 3.676H189.207C187.695 3.676 186.463 4.908 186.463 6.42V8.576H194.639V11.852H186.463V14.008C186.463 15.52 187.695 16.752 189.207 16.752H196.795C198.307 16.752 199.539 15.52 199.539 14.008V12.664H202.787V14.008C202.787 17.312 200.099 20 196.795 20H189.207C185.903 20 183.215 17.312 183.215 14.008V6.42C183.215 3.116 185.903 0.399999 189.207 0.399999H196.795C200.099 0.399999 202.787 3.116 202.787 6.42V7.764Z" fill="#BBB4B4"/>
</svg>
