<svg width="198" height="21" viewBox="0 0 198 21" fill="none" xmlns="http://www.w3.org/2000/svg">
<path d="M16.341 0.532305L19.617 0.530474L19.628 20.1305L16.352 20.1323L16.3474 11.9843L3.2714 11.9916L3.27596 20.1396L0.0279562 20.1414L0.0170042 0.541426L3.265 0.539611L3.26957 8.71561L16.3456 8.7083L16.341 0.532305ZM43.2931 11.7732L26.9423 13.8264L26.9429 14.8904C26.9435 15.9824 27.84 16.8779 28.932 16.8773L38.032 16.8722C39.124 16.8716 40.0195 15.9751 40.0189 14.8831L40.0188 14.8271L43.2948 14.8252L43.2949 14.8812C43.2965 17.7652 40.9178 20.1186 38.0338 20.1202L28.9338 20.1253C26.0498 20.1269 23.6965 17.7762 23.6949 14.8922L23.6909 7.8362C23.6893 4.9242 26.04 2.57089 28.924 2.56927L38.024 2.56419C40.908 2.56258 43.2893 4.91325 43.2909 7.82525L43.2931 11.7732ZM26.9389 7.83439L26.9404 10.5224L40.0155 8.89108L40.0149 7.82708C40.0143 6.73508 39.1178 5.83958 38.0258 5.84019L28.9258 5.84527C27.8338 5.84588 26.9383 6.74239 26.9389 7.83439ZM61.0721 2.55131C63.9561 2.5497 66.3375 4.90037 66.3391 7.81237L66.343 14.8684C66.3446 17.7524 63.966 20.1057 61.0819 20.1073L51.982 20.1124C49.098 20.114 46.7446 17.7633 46.743 14.8793L46.7409 11.0993L63.0066 7.00223L62.5864 6.52647C62.1941 6.07868 61.662 5.82698 61.074 5.82731L51.974 5.83239C50.882 5.83301 49.9865 6.72951 49.9871 7.82151L49.9871 7.87751L46.7391 7.87932L46.7391 7.82332C46.7375 4.91132 49.0881 2.55801 51.9721 2.5564L61.0721 2.55131ZM63.067 14.8702L63.0645 10.3622L49.9903 13.6455L49.991 14.8775C49.9916 15.9695 50.8881 16.865 51.9801 16.8644L61.0801 16.8593C62.1721 16.8587 63.0676 15.9622 63.067 14.8702ZM73.6301 20.1003L70.3821 20.1021L70.3712 0.502114L73.6192 0.500299L73.6301 20.1003ZM87.187 6.84872L81.055 6.85215L81.0591 14.3561C81.0599 15.7281 82.1805 16.8475 83.5525 16.8468L87.1925 16.8447L87.1944 20.0927L83.5544 20.0948C80.3904 20.0965 77.8129 17.55 77.8111 14.358L77.8034 0.497961L81.0514 0.496146L81.0531 3.57615L87.1851 3.57272L87.187 6.84872ZM101.524 2.52871C106.368 2.526 110.318 6.47179 110.321 11.3158L110.326 20.0798L107.05 20.0816L107.045 11.3176C107.043 8.26562 104.578 5.803 101.526 5.80471L93.9659 5.80893L93.9739 20.0889L90.7259 20.0907L90.7149 0.490747L93.9629 0.488932L93.964 2.53293L101.524 2.52871ZM133.498 7.83084L130.222 7.83267L130.222 7.77667C130.221 6.68467 129.325 5.78917 128.233 5.78978L119.133 5.79487C118.041 5.79548 117.145 6.69198 117.146 7.78398L117.15 14.84C117.151 15.932 118.047 16.8275 119.139 16.8269L128.239 16.8218C129.331 16.8212 130.226 15.9247 130.226 14.8327L130.226 14.7767L133.502 14.7748L133.502 14.8308C133.504 17.7148 131.125 20.0682 128.241 20.0698L119.141 20.0749C116.257 20.0765 113.904 17.7258 113.902 14.8418L113.898 7.78579C113.896 4.87379 116.247 2.52048 119.131 2.51887L128.231 2.51378C131.115 2.51217 133.496 4.86284 133.498 7.77484L133.498 7.83084ZM150.924 2.5011C153.808 2.49949 156.189 4.85016 156.191 7.76216L156.195 14.8182C156.196 17.7022 153.818 20.0555 150.934 20.0571L141.834 20.0622C138.95 20.0638 136.596 17.7131 136.595 14.8291L136.592 11.0491L152.858 6.95202L152.438 6.47626C152.046 6.02848 151.514 5.77677 150.926 5.7771L141.826 5.78219C140.734 5.7828 139.838 6.6793 139.839 7.7713L139.839 7.8273L136.591 7.82911L136.591 7.77311C136.589 4.86111 138.94 2.5078 141.824 2.50619L150.924 2.5011ZM152.919 14.82L152.916 10.312L139.842 13.5953L139.843 14.8273C139.843 15.9193 140.74 16.8148 141.832 16.8142L150.932 16.8091C152.024 16.8085 152.919 15.912 152.919 14.82ZM166.3 2.49251L175.484 2.48738L175.486 5.76338L166.302 5.76851C164.594 5.76947 163.222 7.14223 163.223 8.85023L163.23 20.0502L159.982 20.052L159.975 8.85205C159.973 5.35205 162.8 2.49447 166.3 2.49251ZM197.43 11.6871L181.079 13.7403L181.08 14.8043C181.08 15.8963 181.977 16.7918 183.069 16.7911L192.169 16.7861C193.261 16.7855 194.156 15.889 194.156 14.797L194.156 14.741L197.432 14.7391L197.432 14.7951C197.433 17.6791 195.054 20.0324 192.17 20.0341L183.07 20.0391C180.186 20.0408 177.833 17.6901 177.832 14.8061L177.828 7.75007C177.826 4.83807 180.177 2.48476 183.061 2.48315L192.161 2.47806C195.045 2.47645 197.426 4.82712 197.428 7.73912L197.43 11.6871ZM181.076 7.74826L181.077 10.4363L194.152 8.80495L194.152 7.74095C194.151 6.64895 193.255 5.75345 192.163 5.75406L183.063 5.75915C181.971 5.75976 181.075 6.65626 181.076 7.74826Z" fill="white"/>
</svg>
