<svg width="191" height="70" viewBox="0 0 191 70" fill="none" xmlns="http://www.w3.org/2000/svg">
<path d="M63.5543 0.399999C66.8583 0.399999 69.5463 3.116 69.5463 6.42V14.008C69.5463 17.312 66.8583 20 63.5543 20H55.9663C52.6623 20 49.9743 17.312 49.9743 14.008V6.42C49.9743 3.116 52.6623 0.399999 55.9663 0.399999H63.5543ZM66.2983 14.008V6.42C66.2983 4.908 65.0663 3.676 63.5543 3.676H55.9663C54.4543 3.676 53.2223 4.908 53.2223 6.42V14.008C53.2223 15.52 54.4543 16.752 55.9663 16.752H63.5543C65.0663 16.752 66.2983 15.52 66.2983 14.008ZM84.4158 2.444C89.2598 2.444 93.2078 6.392 93.2078 11.236C93.2078 16.08 89.2598 20 84.4158 20H76.8558V24.088H73.6078V2.444H84.4158ZM84.4158 16.752C87.4678 16.752 89.9318 14.26 89.9318 11.236C89.9318 8.184 87.4678 5.72 84.4158 5.72H76.8558V16.752H84.4158ZM115.949 11.656L99.5973 13.7V14.764C99.5973 15.856 100.493 16.752 101.585 16.752H110.685C111.777 16.752 112.673 15.856 112.673 14.764V14.708H115.949V14.764C115.949 17.648 113.569 20 110.685 20H101.585C98.7013 20 96.3493 17.648 96.3493 14.764V7.708C96.3493 4.796 98.7013 2.444 101.585 2.444H110.685C113.569 2.444 115.949 4.796 115.949 7.708V11.656ZM99.5973 7.708V10.396L112.673 8.772V7.708C112.673 6.616 111.777 5.72 110.685 5.72H101.585C100.493 5.72 99.5973 6.616 99.5973 7.708ZM135.561 2.444C138.445 2.444 140.797 4.796 140.797 7.708V20H137.521V7.708C137.521 6.616 136.625 5.72 135.561 5.72H124.473V2.444H135.561ZM117.893 3.76L120.189 1.436L124.473 5.72V20H121.197V7.064L117.893 3.76ZM3.82647 70H0.578469V55.524H3.82647V70ZM3.82647 52.668H0.578469V50.4H3.82647V52.668ZM23.8751 52.444C26.7591 52.444 29.1111 54.796 29.1111 57.708V70H25.8351V57.708C25.8351 56.616 24.9391 55.72 23.8751 55.72H12.7871V52.444H23.8751ZM6.20713 53.76L8.50313 51.436L12.7871 55.72V70H9.51113V57.064L6.20713 53.76ZM49.3322 52.444C52.2162 52.444 54.5682 54.796 54.5682 57.708V70H51.2922V57.708C51.2922 56.616 50.3962 55.72 49.3322 55.72H38.2442V52.444H49.3322ZM31.6642 53.76L33.9602 51.436L38.2442 55.72V70H34.9682V57.064L31.6642 53.76ZM72.7732 52.444C75.6572 52.444 78.0372 54.796 78.0372 57.708V64.764C78.0372 67.648 75.6572 70 72.7732 70H63.6732C60.7892 70 58.4372 67.648 58.4372 64.764V57.708C58.4372 54.796 60.7892 52.444 63.6732 52.444H72.7732ZM74.7612 64.764V57.708C74.7612 56.616 73.8652 55.72 72.7732 55.72H63.6732C62.5812 55.72 61.6852 56.616 61.6852 57.708V64.764C61.6852 65.856 62.5812 66.752 63.6732 66.752H72.7732C73.8652 66.752 74.7612 65.856 74.7612 64.764ZM79.9265 52.444H83.1185L90.4265 70H87.2065L79.9265 52.444ZM97.7065 52.444H100.927L93.6185 70H90.4265L97.7065 52.444ZM117.122 52.444C120.006 52.444 122.386 54.796 122.386 57.708V64.764C122.386 67.648 120.006 70 117.122 70H108.022C105.138 70 102.786 67.648 102.786 64.764V60.984L119.054 56.896L118.634 56.42C118.242 55.972 117.71 55.72 117.122 55.72H108.022C106.93 55.72 106.034 56.616 106.034 57.708V57.764H102.786V57.708C102.786 54.796 105.138 52.444 108.022 52.444H117.122ZM119.11 64.764V60.256L106.034 63.532V64.764C106.034 65.856 106.93 66.752 108.022 66.752H117.122C118.214 66.752 119.11 65.856 119.11 64.764ZM135.578 56.756H129.446V64.26C129.446 65.632 130.566 66.752 131.938 66.752H135.578V70H131.938C128.774 70 126.198 67.452 126.198 64.26V50.4H129.446V53.48H135.578V56.756ZM142.022 70H138.774V55.524H142.022V70ZM142.022 52.668H138.774V50.4H142.022V52.668ZM160.054 52.444C162.938 52.444 165.318 54.796 165.318 57.708V64.764C165.318 67.648 162.938 70 160.054 70H150.954C148.07 70 145.718 67.648 145.718 64.764V57.708C145.718 54.796 148.07 52.444 150.954 52.444H160.054ZM162.042 64.764V57.708C162.042 56.616 161.146 55.72 160.054 55.72H150.954C149.862 55.72 148.966 56.616 148.966 57.708V64.764C148.966 65.856 149.862 66.752 150.954 66.752H160.054C161.146 66.752 162.042 65.856 162.042 64.764ZM184.985 52.444C187.869 52.444 190.221 54.796 190.221 57.708V70H186.945V57.708C186.945 56.616 186.049 55.72 184.985 55.72H173.897V52.444H184.985ZM167.317 53.76L169.613 51.436L173.897 55.72V70H170.621V57.064L167.317 53.76Z" fill="white"/>
</svg>
