<svg width="258" height="21" viewBox="0 0 258 21" fill="none" xmlns="http://www.w3.org/2000/svg">
<path d="M13.092 0.399999C16.816 0.399999 19.84 3.424 19.84 7.148C19.84 10.872 16.816 13.896 13.092 13.896H3.488V20H0.24V0.399999H13.092ZM13.092 10.62C14.996 10.62 16.564 9.052 16.564 7.148C16.564 5.244 14.996 3.676 13.092 3.676H3.488V10.62H13.092ZM42.7541 7.148C42.7541 10.088 40.8221 12.664 37.9941 13.56L37.5181 13.7L40.6821 20H37.0421L33.9621 13.896H26.4021V20H23.1541V0.399999H36.0061C39.7301 0.399999 42.7541 3.424 42.7541 7.148ZM36.0061 10.62C37.9101 10.62 39.4781 9.052 39.4781 7.148C39.4781 5.244 37.9101 3.676 36.0061 3.676H26.4021V10.62H36.0061ZM65.3295 7.764H62.0815V6.42C62.0815 4.908 60.8495 3.676 59.3375 3.676H51.7495C50.2375 3.676 49.0055 4.908 49.0055 6.42V8.576H57.1815V11.852H49.0055V14.008C49.0055 15.52 50.2375 16.752 51.7495 16.752H59.3375C60.8495 16.752 62.0815 15.52 62.0815 14.008V12.664H65.3295V14.008C65.3295 17.312 62.6415 20 59.3375 20H51.7495C48.4455 20 45.7575 17.312 45.7575 14.008V6.42C45.7575 3.116 48.4455 0.399999 51.7495 0.399999H59.3375C62.6415 0.399999 65.3295 3.116 65.3295 6.42V7.764ZM82.3603 8.576C85.5243 8.576 88.1003 11.152 88.1003 14.288C88.1003 17.452 85.5243 20 82.3603 20H74.2123C71.1883 20 68.7243 17.676 68.5003 14.708H71.7763C71.9723 15.856 72.9803 16.752 74.2123 16.752H82.3603C83.7323 16.752 84.8243 15.66 84.8243 14.288C84.8243 12.944 83.7323 11.852 82.3603 11.852H74.2123C71.0483 11.852 68.5003 9.276 68.5003 6.14C68.5003 2.976 71.0483 0.399999 74.2123 0.399999H82.3603C85.3843 0.399999 87.8483 2.752 88.0723 5.72H84.7963C84.6003 4.572 83.5923 3.676 82.3603 3.676H74.2123C72.8403 3.676 71.7483 4.768 71.7483 6.14C71.7483 7.484 72.8403 8.576 74.2123 8.576H82.3603ZM111.021 7.764H107.773V6.42C107.773 4.908 106.541 3.676 105.029 3.676H97.4409C95.9289 3.676 94.6969 4.908 94.6969 6.42V8.576H102.873V11.852H94.6969V14.008C94.6969 15.52 95.9289 16.752 97.4409 16.752H105.029C106.541 16.752 107.773 15.52 107.773 14.008V12.664H111.021V14.008C111.021 17.312 108.333 20 105.029 20H97.4409C94.1369 20 91.4489 17.312 91.4489 14.008V6.42C91.4489 3.116 94.1369 0.399999 97.4409 0.399999H105.029C108.333 0.399999 111.021 3.116 111.021 6.42V7.764ZM134.52 20H131.244V0.399999H134.52V20ZM118.168 20H114.92V0.399999H118.168V20ZM118.168 0.399999H121.388L131.244 20H128.024L118.168 0.399999ZM137.302 0.399999H156.902V3.676H148.726V20H145.45V3.676H137.302V0.399999ZM178.587 7.764H175.339V6.42C175.339 4.908 174.107 3.676 172.595 3.676H165.007C163.495 3.676 162.263 4.908 162.263 6.42V8.576H170.439V11.852H162.263V14.008C162.263 15.52 163.495 16.752 165.007 16.752H172.595C174.107 16.752 175.339 15.52 175.339 14.008V12.664H178.587V14.008C178.587 17.312 175.899 20 172.595 20H165.007C161.703 20 159.015 17.312 159.015 14.008V6.42C159.015 3.116 161.703 0.399999 165.007 0.399999H172.595C175.899 0.399999 178.587 3.116 178.587 6.42V7.764ZM196.066 0.399999C199.37 0.399999 202.058 3.116 202.058 6.42V14.008C202.058 17.312 199.37 20 196.066 20H182.486V0.399999H196.066ZM198.81 14.008V6.42C198.81 4.908 197.578 3.676 196.066 3.676H185.734V16.752H196.066C197.578 16.752 198.81 15.52 198.81 14.008ZM235.898 10.2L236.122 10.48C237.074 11.544 237.606 12.888 237.606 14.288C237.606 17.452 235.03 20.028 231.866 20.028H218.006V0.427998H231.866C235.03 0.427998 237.606 2.976 237.606 6.14C237.606 7.54 237.074 8.884 236.122 9.948L235.898 10.2ZM231.866 16.752C233.238 16.752 234.33 15.66 234.33 14.288C234.33 12.944 233.238 11.852 231.866 11.852H221.254V16.752H231.866ZM231.866 8.576C233.238 8.576 234.33 7.484 234.33 6.14C234.33 4.768 233.238 3.676 231.866 3.676H221.254V8.576H231.866ZM253.835 0.399999H257.727L249.803 12.748V20H246.527V12.748L238.631 0.399999H242.495L248.179 9.248L253.835 0.399999Z" fill="white"/>
</svg>
