<svg width="249" height="20" viewBox="0 0 249 20" fill="none" xmlns="http://www.w3.org/2000/svg">
<path d="M14.372 8.576C17.536 8.576 20.112 11.152 20.112 14.288C20.112 17.452 17.536 20 14.372 20H6.224C3.2 20 0.736 17.676 0.512 14.708H3.788C3.984 15.856 4.992 16.752 6.224 16.752H14.372C15.744 16.752 16.836 15.66 16.836 14.288C16.836 12.944 15.744 11.852 14.372 11.852H6.224C3.06 11.852 0.512 9.276 0.512 6.14C0.512 2.976 3.06 0.399999 6.224 0.399999H14.372C17.396 0.399999 19.86 2.752 20.084 5.72H16.808C16.612 4.572 15.604 3.676 14.372 3.676H6.224C4.852 3.676 3.76 4.768 3.76 6.14C3.76 7.484 4.852 8.576 6.224 8.576H14.372ZM43.0326 7.764H39.7846V6.42C39.7846 4.908 38.5526 3.676 37.0406 3.676H29.4526C27.9406 3.676 26.7086 4.908 26.7086 6.42V8.576H34.8846V11.852H26.7086V14.008C26.7086 15.52 27.9406 16.752 29.4526 16.752H37.0406C38.5526 16.752 39.7846 15.52 39.7846 14.008V12.664H43.0326V14.008C43.0326 17.312 40.3446 20 37.0406 20H29.4526C26.1486 20 23.4606 17.312 23.4606 14.008V6.42C23.4606 3.116 26.1486 0.399999 29.4526 0.399999H37.0406C40.3446 0.399999 43.0326 3.116 43.0326 6.42V7.764ZM66.1114 7.764H62.8354V6.42C62.8354 4.908 61.6034 3.676 60.0914 3.676H52.5034C50.9914 3.676 49.7594 4.908 49.7594 6.42V14.008C49.7594 15.52 50.9914 16.752 52.5034 16.752H60.0914C61.6034 16.752 62.8354 15.52 62.8354 14.008V12.664H66.1114V14.008C66.1114 17.312 63.3954 20 60.0914 20H52.5034C49.1994 20 46.5114 17.312 46.5114 14.008V6.42C46.5114 3.116 49.1994 0.399999 52.5034 0.399999H60.0914C63.3954 0.399999 66.1114 3.116 66.1114 6.42V7.764ZM83.1422 0.399999C86.4462 0.399999 89.1342 3.116 89.1342 6.42V14.008C89.1342 17.312 86.4462 20 83.1422 20H75.5542C72.2502 20 69.5622 17.312 69.5622 14.008V6.42C69.5622 3.116 72.2502 0.399999 75.5542 0.399999H83.1422ZM85.8862 14.008V6.42C85.8862 4.908 84.6542 3.676 83.1422 3.676H75.5542C74.0422 3.676 72.8102 4.908 72.8102 6.42V14.008C72.8102 15.52 74.0422 16.752 75.5542 16.752H83.1422C84.6542 16.752 85.8862 15.52 85.8862 14.008ZM112.852 20H109.576V0.399999H112.852V20ZM96.4997 20H93.2517V0.399999H96.4997V20ZM96.4997 0.399999H99.7197L109.576 20H106.356L96.4997 0.399999ZM130.922 0.399999C134.226 0.399999 136.914 3.116 136.914 6.42V14.008C136.914 17.312 134.226 20 130.922 20H117.342V0.399999H130.922ZM133.666 14.008V6.42C133.666 4.908 132.434 3.676 130.922 3.676H120.59V16.752H130.922C132.434 16.752 133.666 15.52 133.666 14.008ZM165.713 0.399999C169.437 0.399999 172.461 3.424 172.461 7.148C172.461 10.872 169.437 13.896 165.713 13.896H156.109V20H152.861V0.399999H165.713ZM165.713 10.62C167.617 10.62 169.185 9.052 169.185 7.148C169.185 5.244 167.617 3.676 165.713 3.676H156.109V10.62H165.713ZM195.375 7.148C195.375 10.088 193.443 12.664 190.615 13.56L190.139 13.7L193.303 20H189.663L186.583 13.896H179.023V20H175.775V0.399999H188.627C192.351 0.399999 195.375 3.424 195.375 7.148ZM188.627 10.62C190.531 10.62 192.099 9.052 192.099 7.148C192.099 5.244 190.531 3.676 188.627 3.676H179.023V10.62H188.627ZM202.047 20H198.799V0.399999H202.047V20ZM225.408 20H205.836V16.752H225.408V20ZM225.408 3.676H205.836V0.399999H225.408V3.676ZM205.836 16.752V13.532L225.408 3.676V6.896L205.836 16.752ZM248.357 7.764H245.109V6.42C245.109 4.908 243.877 3.676 242.365 3.676H234.777C233.265 3.676 232.033 4.908 232.033 6.42V8.576H240.209V11.852H232.033V14.008C232.033 15.52 233.265 16.752 234.777 16.752H242.365C243.877 16.752 245.109 15.52 245.109 14.008V12.664H248.357V14.008C248.357 17.312 245.669 20 242.365 20H234.777C231.473 20 228.785 17.312 228.785 14.008V6.42C228.785 3.116 231.473 0.399999 234.777 0.399999H242.365C245.669 0.399999 248.357 3.116 248.357 6.42V7.764Z" fill="#BBB4B4"/>
</svg>
