<svg width="209" height="20" viewBox="0 0 209 20" fill="none" xmlns="http://www.w3.org/2000/svg">
<path d="M0.532 0.399999H20.132V3.676H11.956V20H8.68V3.676H0.532V0.399999ZM39.2632 0.399999H42.5392V20H39.2632V11.852H26.1872V20H22.9392V0.399999H26.1872V8.576H39.2632V0.399999ZM50.2771 20H47.0291V0.399999H50.2771V20ZM74.3947 7.148C74.3947 10.088 72.4627 12.664 69.6347 13.56L69.1587 13.7L72.3227 20H68.6827L65.6027 13.896H58.0427V20H54.7947V0.399999H67.6467C71.3707 0.399999 74.3947 3.424 74.3947 7.148ZM67.6467 10.62C69.5507 10.62 71.1187 9.052 71.1187 7.148C71.1187 5.244 69.5507 3.676 67.6467 3.676H58.0427V10.62H67.6467ZM91.3981 0.399999C94.7021 0.399999 97.3901 3.116 97.3901 6.42V14.008C97.3901 17.312 94.7021 20 91.3981 20H77.8181V0.399999H91.3981ZM94.1421 14.008V6.42C94.1421 4.908 92.9101 3.676 91.3981 3.676H81.0661V16.752H91.3981C92.9101 16.752 94.1421 15.52 94.1421 14.008ZM126.19 0.399999C129.914 0.399999 132.938 3.424 132.938 7.148C132.938 10.872 129.914 13.896 126.19 13.896H116.586V20H113.338V0.399999H126.19ZM126.19 10.62C128.094 10.62 129.662 9.052 129.662 7.148C129.662 5.244 128.094 3.676 126.19 3.676H116.586V10.62H126.19ZM155.852 7.148C155.852 10.088 153.92 12.664 151.092 13.56L150.616 13.7L153.78 20H150.14L147.06 13.896H139.5V20H136.252V0.399999H149.104C152.828 0.399999 155.852 3.424 155.852 7.148ZM149.104 10.62C151.008 10.62 152.576 9.052 152.576 7.148C152.576 5.244 151.008 3.676 149.104 3.676H139.5V10.62H149.104ZM162.523 20H159.275V0.399999H162.523V20ZM185.885 20H166.313V16.752H185.885V20ZM185.885 3.676H166.313V0.399999H185.885V3.676ZM166.313 16.752V13.532L185.885 3.676V6.896L166.313 16.752ZM208.833 7.764H205.585V6.42C205.585 4.908 204.353 3.676 202.841 3.676H195.253C193.741 3.676 192.509 4.908 192.509 6.42V8.576H200.685V11.852H192.509V14.008C192.509 15.52 193.741 16.752 195.253 16.752H202.841C204.353 16.752 205.585 15.52 205.585 14.008V12.664H208.833V14.008C208.833 17.312 206.145 20 202.841 20H195.253C191.949 20 189.261 17.312 189.261 14.008V6.42C189.261 3.116 191.949 0.399999 195.253 0.399999H202.841C206.145 0.399999 208.833 3.116 208.833 6.42V7.764Z" fill="#BBB4B4"/>
</svg>
