<svg width="94" height="20" viewBox="0 0 94 20" fill="none" xmlns="http://www.w3.org/2000/svg">
<path d="M23.8453 20H20.5973V0.399999H23.8453V20ZM3.43331 20H0.185313V0.399999H3.43331V20ZM10.2653 4.488H13.7653L20.5973 20H17.3773L12.0013 8.38L6.65331 20H3.43331L10.2653 4.488ZM47.5294 11.656L31.1774 13.7V14.764C31.1774 15.856 32.0734 16.752 33.1654 16.752H42.2654C43.3574 16.752 44.2534 15.856 44.2534 14.764V14.708H47.5294V14.764C47.5294 17.648 45.1494 20 42.2654 20H33.1654C30.2814 20 27.9294 17.648 27.9294 14.764V7.708C27.9294 4.796 30.2814 2.444 33.1654 2.444H42.2654C45.1494 2.444 47.5294 4.796 47.5294 7.708V11.656ZM31.1774 7.708V10.396L44.2534 8.772V7.708C44.2534 6.616 43.3574 5.72 42.2654 5.72H33.1654C32.0734 5.72 31.1774 6.616 31.1774 7.708ZM62.2615 2.444C67.1055 2.444 71.0255 6.392 71.0535 11.236C71.0535 16.08 67.1055 20 62.2615 20H51.4535V0.399999H54.7015V2.444H62.2615ZM62.2615 16.752C65.2855 16.752 67.7775 14.26 67.7775 11.236C67.7775 8.184 65.3135 5.72 62.2615 5.72H54.7015V16.752H62.2615ZM93.879 3.676H74.307V0.399999H93.879V3.676ZM82.455 11.852V8.464L93.907 3.676V6.896L88.699 9.024C89.455 9.024 90.071 9.108 90.743 9.388C91.387 9.64 91.975 10.06 92.451 10.564C93.375 11.572 93.907 12.944 93.907 14.288C93.907 17.452 91.331 20 88.167 20H80.019C76.855 20 74.307 17.452 74.307 14.288V13.672H77.555V14.288C77.555 15.66 78.647 16.752 80.019 16.752H88.167C89.539 16.752 90.631 15.66 90.631 14.288C90.631 12.944 89.539 11.852 88.167 11.852H82.455Z" fill="white"/>
</svg>
