<svg width="152" height="79" viewBox="0 0 152 79" fill="none" xmlns="http://www.w3.org/2000/svg">
<path d="M36.9645 20H33.7165V0.399999H36.9645V20ZM16.5525 20H13.3045V0.399999H16.5525V20ZM23.3845 4.488H26.8845L33.7165 20H30.4965L25.1205 8.38L19.7725 20H16.5525L23.3845 4.488ZM55.3845 2.444C58.2685 2.444 60.6485 4.796 60.6485 7.708V14.764C60.6485 17.648 58.2685 20 55.3845 20H46.2845C43.4005 20 41.0485 17.648 41.0485 14.764V7.708C41.0485 4.796 43.4005 2.444 46.2845 2.444H55.3845ZM57.3725 14.764V7.708C57.3725 6.616 56.4765 5.72 55.3845 5.72H46.2845C45.1925 5.72 44.2965 6.616 44.2965 7.708V14.764C44.2965 15.856 45.1925 16.752 46.2845 16.752H55.3845C56.4765 16.752 57.3725 15.856 57.3725 14.764ZM62.6466 3.816L64.9426 1.492L69.2266 5.776V20H65.9506V7.12L62.6466 3.816ZM84.3746 2.444C87.2866 2.444 89.6386 4.796 89.6386 7.708V20H86.3626V7.708C86.3626 6.616 85.4666 5.72 84.3746 5.72H81.4066C80.3146 5.72 79.4186 6.616 79.4186 7.708V20H76.1426V7.708C76.1426 6.616 75.2746 5.72 74.1826 5.72H69.2266V2.444H74.1826C75.3866 2.444 76.5626 2.892 77.5146 3.704L77.7946 3.928L78.0466 3.704C79.0266 2.892 80.1746 2.444 81.4066 2.444H84.3746ZM107.718 2.444C110.602 2.444 112.982 4.796 112.982 7.708V14.764C112.982 17.648 110.602 20 107.718 20H98.6178C95.7338 20 93.3818 17.648 93.3818 14.764V10.984L109.65 6.896L109.23 6.42C108.838 5.972 108.306 5.72 107.718 5.72H98.6178C97.5258 5.72 96.6298 6.616 96.6298 7.708V7.764H93.3818V7.708C93.3818 4.796 95.7338 2.444 98.6178 2.444H107.718ZM109.706 14.764V10.256L96.6298 13.532V14.764C96.6298 15.856 97.5258 16.752 98.6178 16.752H107.718C108.81 16.752 109.706 15.856 109.706 14.764ZM132.651 2.444C135.535 2.444 137.887 4.796 137.887 7.708V20H134.611V7.708C134.611 6.616 133.715 5.72 132.651 5.72H121.563V2.444H132.651ZM114.983 3.76L117.279 1.436L121.563 5.72V20H118.287V7.064L114.983 3.76ZM14.2548 58.576C17.4188 58.576 19.9948 61.152 19.9948 64.288C19.9948 67.452 17.4188 70 14.2548 70H6.10681C3.08281 70 0.618813 67.676 0.394813 64.708H3.67081C3.86681 65.856 4.87481 66.752 6.10681 66.752H14.2548C15.6268 66.752 16.7188 65.66 16.7188 64.288C16.7188 62.944 15.6268 61.852 14.2548 61.852H6.10681C2.94281 61.852 0.394813 59.276 0.394813 56.14C0.394813 52.976 2.94281 50.4 6.10681 50.4H14.2548C17.2788 50.4 19.7428 52.752 19.9668 55.72H16.6908C16.4948 54.572 15.4868 53.676 14.2548 53.676H6.10681C4.73481 53.676 3.64281 54.768 3.64281 56.14C3.64281 57.484 4.73481 58.576 6.10681 58.576H14.2548ZM42.9434 61.656L26.5914 63.7V64.764C26.5914 65.856 27.4874 66.752 28.5794 66.752H37.6794C38.7714 66.752 39.6674 65.856 39.6674 64.764V64.708H42.9434V64.764C42.9434 67.648 40.5634 70 37.6794 70H28.5794C25.6954 70 23.3434 67.648 23.3434 64.764V57.708C23.3434 54.796 25.6954 52.444 28.5794 52.444H37.6794C40.5634 52.444 42.9434 54.796 42.9434 57.708V61.656ZM26.5914 57.708V60.396L39.6674 58.772V57.708C39.6674 56.616 38.7714 55.72 37.6794 55.72H28.5794C27.4874 55.72 26.5914 56.616 26.5914 57.708ZM66.1036 57.764H62.8276V57.708C62.8276 56.616 61.9316 55.72 60.8396 55.72H51.7396C50.6476 55.72 49.7516 56.616 49.7516 57.708V64.764C49.7516 65.856 50.6476 66.752 51.7396 66.752H60.8396C61.9316 66.752 62.8276 65.856 62.8276 64.764V64.708H66.1036V64.764C66.1036 67.648 63.7236 70 60.8396 70H51.7396C48.8556 70 46.5036 67.648 46.5036 64.764V57.708C46.5036 54.796 48.8556 52.444 51.7396 52.444H60.8396C63.7236 52.444 66.1036 54.796 66.1036 57.708V57.764ZM85.8003 52.444H89.0763V64.764C89.0763 67.648 86.6963 70 83.8123 70H74.7123C71.8283 70 69.4763 67.648 69.4763 64.764V52.444H72.7243V64.764C72.7243 65.856 73.6203 66.752 74.7123 66.752H83.8123C84.9043 66.752 85.8003 65.856 85.8003 64.764V52.444ZM99.3459 52.444H108.53V55.72H99.3459C97.6379 55.72 96.2659 57.092 96.2659 58.8V70H93.0179V58.8C93.0179 55.3 95.8459 52.444 99.3459 52.444ZM114.311 70H111.063V55.524H114.311V70ZM114.311 52.668H111.063V50.4H114.311V52.668ZM127.528 56.756H121.396V64.26C121.396 65.632 122.516 66.752 123.888 66.752H127.528V70H123.888C120.724 70 118.148 67.452 118.148 64.26V50.4H121.396V53.48H127.528V56.756ZM133.047 52.444L140.943 70H137.247L129.351 52.444H133.047ZM147.887 52.444H151.527L141.531 78.176H137.891L140.747 70.84L140.887 70.42L147.887 52.444Z" fill="white"/>
</svg>
