<svg width="528" height="45" viewBox="0 0 528 45" fill="none" xmlns="http://www.w3.org/2000/svg">
<path d="M45.2398 17.032H37.8158V13.96C37.8158 10.504 34.9998 7.688 31.5438 7.688H14.1998C10.7438 7.688 7.92775 10.504 7.92775 13.96V18.888H26.6158V26.376H7.92775V31.304C7.92775 34.76 10.7438 37.576 14.1998 37.576H31.5438C34.9998 37.576 37.8158 34.76 37.8158 31.304V28.232H45.2398V31.304C45.2398 38.856 39.0958 45 31.5438 45H14.1998C6.64775 45 0.50375 38.856 0.50375 31.304V13.96C0.50375 6.408 6.64775 0.199997 14.1998 0.199997H31.5438C39.0958 0.199997 45.2398 6.408 45.2398 13.96V17.032ZM90.5673 4.872C97.1593 4.872 102.535 10.248 102.535 16.904V45H95.0473V16.904C95.0473 14.408 92.9993 12.36 90.5673 12.36H65.2233V4.872H90.5673ZM50.1833 7.88L55.4313 2.568L65.2233 12.36V45H57.7353V15.432L50.1833 7.88ZM106.872 4.872H114.168L130.872 45H123.512L106.872 4.872ZM147.512 4.872H154.872L138.168 45H130.872L147.512 4.872ZM167.804 45H160.38V11.912H167.804V45ZM167.804 5.384H160.38V0.199997H167.804V5.384ZM190.974 4.872H211.966V12.36H190.974C187.07 12.36 183.934 15.496 183.934 19.4V45H176.51V19.4C176.51 11.4 182.974 4.872 190.974 4.872ZM250.084 4.872C256.676 4.872 262.116 10.248 262.116 16.904V33.032C262.116 39.624 256.676 45 250.084 45H229.284C222.692 45 217.316 39.624 217.316 33.032V16.904C217.316 10.248 222.692 4.872 229.284 4.872H250.084ZM254.628 33.032V16.904C254.628 14.408 252.58 12.36 250.084 12.36H229.284C226.788 12.36 224.74 14.408 224.74 16.904V33.032C224.74 35.528 226.788 37.576 229.284 37.576H250.084C252.58 37.576 254.628 35.528 254.628 33.032ZM307.067 4.872C313.659 4.872 319.035 10.248 319.035 16.904V45H311.547V16.904C311.547 14.408 309.499 12.36 307.067 12.36H281.723V4.872H307.067ZM266.683 7.88L271.931 2.568L281.723 12.36V45H274.235V15.432L266.683 7.88ZM324.871 8.008L330.119 2.696L339.911 12.488V45H332.423V15.56L324.871 8.008ZM374.535 4.872C381.191 4.872 386.567 10.248 386.567 16.904V45H379.079V16.904C379.079 14.408 377.031 12.36 374.535 12.36H367.751C365.255 12.36 363.207 14.408 363.207 16.904V45H355.719V16.904C355.719 14.408 353.735 12.36 351.239 12.36H339.911V4.872H351.239C353.991 4.872 356.679 5.896 358.855 7.752L359.495 8.264L360.071 7.752C362.311 5.896 364.935 4.872 367.751 4.872H374.535ZM440.179 25.928L402.803 30.6V33.032C402.803 35.528 404.851 37.576 407.347 37.576H428.147C430.643 37.576 432.691 35.528 432.691 33.032V32.904H440.179V33.032C440.179 39.624 434.739 45 428.147 45H407.347C400.755 45 395.379 39.624 395.379 33.032V16.904C395.379 10.248 400.755 4.872 407.347 4.872H428.147C434.739 4.872 440.179 10.248 440.179 16.904V25.928ZM402.803 16.904V23.048L432.691 19.336V16.904C432.691 14.408 430.643 12.36 428.147 12.36H407.347C404.851 12.36 402.803 14.408 402.803 16.904ZM485.005 4.872C491.597 4.872 496.973 10.248 496.973 16.904V45H489.485V16.904C489.485 14.408 487.437 12.36 485.005 12.36H459.661V4.872H485.005ZM444.621 7.88L449.869 2.568L459.661 12.36V45H452.173V15.432L444.621 7.88ZM527.576 14.728H513.56V31.88C513.56 35.016 516.12 37.576 519.256 37.576H527.576V45H519.256C512.024 45 506.136 39.176 506.136 31.88V0.199997H513.56V7.24H527.576V14.728Z" fill="#C3C0C0"/>
</svg>
