<svg width="714" height="94" viewBox="0 0 714 94" fill="none" xmlns="http://www.w3.org/2000/svg">
<path d="M110.942 6.4209L81.5625 86.0793H140.332L110.942 6.4209Z" stroke="white" stroke-width="9" stroke-linecap="round" stroke-linejoin="round"/>
<path d="M255.438 9.36035L226.754 46.493" stroke="white" stroke-width="10" stroke-linecap="round" stroke-linejoin="bevel"/>
<path d="M255.98 84.3442L226.754 46.4932" stroke="white" stroke-width="10" stroke-linecap="round" stroke-linejoin="bevel"/>
<path d="M342.923 81.6476C343.748 81.6476 344.417 80.9747 344.417 80.1446C344.417 79.3145 343.748 78.6416 342.923 78.6416C342.098 78.6416 341.43 79.3145 341.43 80.1446C341.43 80.9747 342.098 81.6476 342.923 81.6476Z" fill="white" stroke="white" stroke-width="10" stroke-linecap="round" stroke-linejoin="bevel"/>
<path d="M349.819 66.3527C353.038 60.3016 354.722 53.4395 354.699 46.4602C354.699 25.1421 339.354 7.84668 320.419 7.84668C301.484 7.84668 286.129 25.1421 286.129 46.4602C286.129 67.7783 301.473 85.0738 320.419 85.0738C322.249 85.0706 324.076 84.9043 325.882 84.5764" stroke="white" stroke-width="10" stroke-linecap="round" stroke-linejoin="bevel"/>
<path d="M429.353 12.2344C422.397 5.02892 411.901 1.23828 397.16 1.23828C391.043 1.24024 384.934 1.67217 378.869 2.53131C377.872 2.67782 376.959 3.21647 376.306 4.04426C375.653 4.87205 375.305 5.93087 375.33 7.01817V38.0947C375.299 39.4056 375.72 40.6822 376.509 41.6782C377.299 42.6741 378.402 43.3188 379.606 43.4877C379.872 43.4877 380.148 43.4877 380.424 43.4877C380.728 43.4862 381.032 43.4677 381.335 43.4325C382.533 43.2587 383.629 42.6135 384.415 41.6204C385.2 40.6273 385.618 39.3562 385.59 38.0504V15.2956C385.59 14.2123 385.947 13.1643 386.598 12.3399C387.248 11.5154 388.15 10.9687 389.14 10.7977C391.954 10.4339 394.786 10.2567 397.62 10.2673C419.328 10.2673 429.936 23.5289 429.823 44.3166C429.823 56.2631 426.836 65.6347 421.097 72.0224C413.937 79.9242 403.901 81.3387 400.372 81.5819C396.178 81.8581 392.27 81.9024 392.27 81.9024C389.416 81.9024 386.562 82.1123 383.708 82.0902C379.831 82.0902 377.509 81.9134 376.179 83.6816C375.735 84.288 375.443 85.0071 375.33 85.7703C375.305 86.8956 375.679 87.9886 376.374 88.8265C377.07 89.6643 378.036 90.1839 379.074 90.2793C383.411 90.6882 388.342 90.9203 393.968 90.9203C396.198 90.9203 398.357 90.8282 400.444 90.644C412.842 89.5388 422.755 85.2841 429.087 78.2222C436.514 70.1105 440.524 58.3297 440.524 43.9629C440.524 29.5961 436.432 19.4399 429.353 12.2344Z" fill="white"/>
<path d="M470.579 5.76921V86.7869C470.593 87.3814 470.497 87.973 470.299 88.5277C470.101 89.0825 469.803 89.5895 469.423 90.0196C469.043 90.4498 468.588 90.7947 468.084 91.0345C467.58 91.2744 467.037 91.4045 466.487 91.4174H464.39C463.84 91.4045 463.297 91.2744 462.793 91.0345C462.29 90.7947 461.835 90.4498 461.455 90.0196C461.074 89.5895 460.777 89.0825 460.578 88.5277C460.38 87.973 460.285 87.3814 460.298 86.7869V5.76921C460.273 4.56928 460.69 3.40778 461.458 2.53964C462.225 1.6715 463.279 1.16765 464.39 1.13867H466.497C467.606 1.17052 468.658 1.67564 469.423 2.54347C470.188 3.41129 470.604 4.57115 470.579 5.76921Z" fill="white"/>
<path d="M200.198 14.7545C203.508 14.7545 206.192 11.8353 206.192 8.23418C206.192 4.63311 203.508 1.71387 200.198 1.71387C196.887 1.71387 194.203 4.63311 194.203 8.23418C194.203 11.8353 196.887 14.7545 200.198 14.7545Z" fill="white"/>
<path d="M207.48 86.4552L207.429 86.1789C207.347 85.6102 207.156 85.0661 206.869 84.581C206.582 84.0959 206.205 83.6804 205.762 83.3605C205.319 83.0407 204.819 82.8236 204.294 82.7228C203.77 82.622 203.231 82.6398 202.713 82.775C198.771 83.8227 194.705 84.2214 190.652 83.9576C172.444 82.8524 162.603 68.6403 163.697 47.488C164.178 38.2932 166.49 30.8335 170.244 25.2747C171.073 24.0389 171.989 22.8749 172.986 21.7935C173.282 21.4841 173.579 21.1857 173.896 20.8873C174.496 20.2954 175.124 19.7383 175.778 19.2185L176.014 19.0307C176.29 18.8096 176.566 18.6107 176.842 18.4118C177.603 17.8694 178.392 17.3749 179.205 16.9309C179.492 16.7651 179.809 16.5994 180.116 16.4446L180.392 16.312C180.75 16.1352 181.108 15.9805 181.415 15.8258C181.722 15.6711 182.244 15.4832 182.653 15.3284L183.85 14.9196C184.457 14.7192 185.017 14.3769 185.489 13.9171C185.961 13.4573 186.333 12.891 186.58 12.2585C186.827 11.6259 186.942 10.9425 186.918 10.2565C186.893 9.57051 186.729 8.89875 186.438 8.28872C186.438 8.17821 186.335 8.06769 186.274 7.95717C186.248 7.90228 186.218 7.85043 186.182 7.80246C186.167 7.77148 186.15 7.74191 186.131 7.71404C185.665 6.94929 185.003 6.34896 184.224 5.98748C183.446 5.62601 182.587 5.5193 181.753 5.68059L181.282 5.80216L180.024 6.21105C179.737 6.29946 179.441 6.39893 179.154 6.52049C178.868 6.64206 178.612 6.71942 178.356 6.81888C178.101 6.91835 177.63 7.10623 177.272 7.26095L175.983 7.85772L175.042 8.33293C174.52 8.59817 174.019 8.87444 173.507 9.18388C172.996 9.49332 172.761 9.637 172.392 9.86908L171.615 10.3774L170.909 10.8747C169.444 11.9143 168.056 13.0745 166.756 14.3449C166.091 14.9969 165.446 15.6821 164.812 16.3894C158.214 23.8712 154.112 34.4805 153.447 47.2338C151.974 75.5143 167.052 91.8482 188.146 93.1413C193.681 93.567 199.243 93.0448 204.626 91.5941C205.603 91.266 206.434 90.5608 206.961 89.6129C207.487 88.6651 207.672 87.541 207.48 86.4552Z" fill="white"/>
<path d="M183.891 14.9522L182.694 15.3611C182.285 15.5158 181.866 15.6816 181.457 15.8584C181.047 16.0352 180.751 16.1678 180.434 16.3447L180.157 16.4773C179.851 16.632 179.533 16.7978 179.247 16.9635C178.434 17.4075 177.645 17.902 176.884 18.4444C176.608 18.6433 176.332 18.8423 176.055 19.0633L175.82 19.2512C175.161 19.7642 174.532 20.3216 173.938 20.9199C173.621 21.2183 173.324 21.5167 173.027 21.8261C172.566 22.3213 172.006 22.6963 171.391 22.9226C170.775 23.1489 170.12 23.2206 169.475 23.1321C168.83 23.0437 168.212 22.7975 167.668 22.4122C167.124 22.027 166.669 21.5128 166.337 20.9089C166.131 20.5289 165.944 20.138 165.774 19.7374C165.408 18.8419 165.309 17.8449 165.492 16.8858C165.676 15.9268 166.132 15.0536 166.797 14.3886C168.097 13.1182 169.486 11.958 170.951 10.9184L171.657 10.4211L172.434 9.91275C172.802 9.68067 173.171 9.4486 173.549 9.22757C173.928 9.00654 174.572 8.64184 175.084 8.37661L176.025 7.90139L177.314 7.30462C177.672 7.1499 178.03 6.99519 178.398 6.86258C178.766 6.72996 178.92 6.65259 179.196 6.56418C179.472 6.47577 179.779 6.34316 180.065 6.25475L181.324 5.84585H181.467C181.574 5.81072 181.683 5.78484 181.794 5.76848C182.628 5.60719 183.488 5.7139 184.266 6.07537C185.044 6.43685 185.707 7.03718 186.173 7.80193C186.192 7.8298 186.209 7.85937 186.224 7.89035L186.285 7.96771C186.289 7.99332 186.289 8.01946 186.285 8.04506C186.346 8.15558 186.398 8.2661 186.449 8.37661C186.731 8.98209 186.889 9.64664 186.911 10.3244C186.933 11.0021 186.818 11.6769 186.575 12.3021C186.332 12.9273 185.966 13.488 185.503 13.9456C185.039 14.4031 184.489 14.7466 183.891 14.9522Z" fill="white"/>
<path d="M679.829 6.4209L650.449 89.3947H709.209L679.829 6.4209Z" stroke="white" stroke-width="9" stroke-linecap="round" stroke-linejoin="round"/>
<path d="M574.738 93.3521H572.621C572.07 93.3378 571.527 93.2063 571.023 92.9652C570.519 92.7242 570.064 92.3783 569.684 91.9472C569.304 91.5162 569.007 91.0085 568.808 90.4531C568.61 89.8977 568.515 89.3056 568.529 88.7105V7.59332C568.515 6.99825 568.61 6.40613 568.808 5.85076C569.007 5.29539 569.304 4.78767 569.684 4.35662C570.064 3.92558 570.519 3.57964 571.023 3.33858C571.527 3.09753 572.07 2.96608 572.621 2.95174H574.738C575.289 2.96463 575.833 3.09511 576.337 3.33567C576.842 3.57622 577.297 3.92211 577.677 4.35345C578.058 4.7848 578.355 5.2931 578.553 5.84911C578.751 6.40512 578.845 6.99788 578.83 7.59332V88.7105C578.845 89.3059 578.751 89.8987 578.553 90.4547C578.355 91.0108 578.058 91.5191 577.677 91.9504C577.297 92.3817 576.842 92.7276 576.337 92.9682C575.833 93.2087 575.289 93.3392 574.738 93.3521ZM621.334 2.95174H623.565C624.115 2.96608 624.658 3.09753 625.162 3.33858C625.666 3.57964 626.121 3.92558 626.501 4.35662C626.881 4.78767 627.178 5.29539 627.377 5.85076C627.575 6.40613 627.67 6.99825 627.656 7.59332V88.7105C627.67 89.3056 627.575 89.8977 627.377 90.4531C627.178 91.0085 626.881 91.5162 626.501 91.9472C626.121 92.3783 625.666 92.7242 625.162 92.9652C624.658 93.2063 624.115 93.3378 623.565 93.3521H621.334C620.783 93.3392 620.24 93.2087 619.735 92.9682C619.231 92.7276 618.775 92.3817 618.395 91.9504C618.015 91.5191 617.717 91.0108 617.52 90.4547C617.322 89.8987 617.228 89.3059 617.243 88.7105V7.59332C617.221 6.99332 617.31 6.39462 617.504 5.83219C617.699 5.26977 617.996 4.7549 618.377 4.31764C618.757 3.88037 619.215 3.52949 619.723 3.28548C620.231 3.04148 620.779 2.90923 621.334 2.89648V2.95174Z" fill="white"/>
<path d="M597.134 56.7269C601.354 56.7269 604.775 52.8329 604.775 48.0295C604.775 43.226 601.354 39.332 597.134 39.332C592.913 39.332 589.492 43.226 589.492 48.0295C589.492 52.8329 592.913 56.7269 597.134 56.7269Z" fill="white"/>
<path d="M538.996 3.99927C534.496 2.29227 529.751 1.46159 524.982 1.54587C509.525 1.54587 499.264 11.4921 499.264 25.008C499.264 34.7995 504.451 41.4414 513.238 46.2598C513.913 46.6355 514.609 47.0002 515.335 47.3649L516.593 47.9727C517.176 48.238 517.759 48.4922 518.353 48.7353C518.946 48.9784 519.58 49.2436 520.225 49.4868C521.299 49.9399 522.271 50.3819 523.294 50.8351L523.601 50.9787C524.392 51.3785 525.272 51.5264 526.138 51.4051C527.004 51.2837 527.82 50.8981 528.49 50.2935C528.603 50.1941 528.715 50.0725 528.828 49.951C528.941 49.8294 529.063 49.6746 529.176 49.542L529.503 49.111V49.0558C529.906 48.4566 530.184 47.7706 530.319 47.0447C530.453 46.3188 530.442 45.5701 530.284 44.8495C530.127 44.1289 529.828 43.4534 529.407 42.8691C528.986 42.2848 528.454 41.8053 527.846 41.4635L527.058 41.0988L525.422 40.3915C524.399 39.9715 523.468 39.5516 522.578 39.1316L521.555 38.6675C520.849 38.3249 520.163 37.9823 519.509 37.6397C518.216 36.9665 516.965 36.2023 515.765 35.3521C511.652 32.324 509.606 28.8538 509.606 23.726C509.606 17.8246 513.698 10.7738 524.593 10.7738C528.437 10.7709 532.249 11.5197 535.846 12.9841C536.359 13.1933 536.907 13.2888 537.456 13.2647C538.004 13.2406 538.543 13.0974 539.039 12.8437C539.535 12.5901 539.98 12.231 540.345 11.7881C540.71 11.3451 540.989 10.8273 541.165 10.2654L541.38 9.58023C541.73 8.49767 541.678 7.31036 541.233 6.26901C540.788 5.22766 539.986 4.41379 538.996 3.99927ZM545.676 63.7762C545.676 63.1352 545.574 62.5053 545.503 61.8864C545.503 61.8864 545.503 61.8864 545.503 61.8091C545.372 60.8028 545.184 59.8063 544.94 58.8252C544.037 58.2049 543.04 57.7633 541.994 57.5211H541.84C541.737 57.4874 541.631 57.4652 541.523 57.4548C541.288 57.4548 541.053 57.3775 540.807 57.3554C540.531 57.3388 540.254 57.3388 539.978 57.3554C539.777 57.3444 539.576 57.3444 539.375 57.3554H539.14C538.49 57.4587 537.867 57.701 537.306 58.068C536.744 58.435 536.257 58.9193 535.871 59.4926C535.485 60.0659 535.209 60.7166 535.059 61.4066C534.909 62.0966 534.887 62.8121 534.997 63.511C535.173 64.561 535.259 65.6266 535.252 66.6938C535.258 68.1013 535.086 69.503 534.741 70.8602C534.41 72.1411 533.899 73.3597 533.227 74.474C530.618 78.784 525.575 81.4363 518.619 81.4363C513.71 81.3864 508.862 80.2584 504.369 78.1209C503.84 77.8708 503.267 77.7445 502.69 77.7505C502.112 77.7564 501.542 77.8944 501.017 78.1554C500.493 78.4164 500.025 78.7945 499.645 79.2647C499.265 79.735 498.982 80.2868 498.814 80.8838L498.589 81.6574C498.297 82.6877 498.364 83.7975 498.777 84.7784C499.189 85.7593 499.919 86.5437 500.829 86.9841C506.251 89.389 512.052 90.6351 517.913 90.6532C531.099 90.6532 539.508 84.9507 543.334 76.9274C543.725 76.1123 544.067 75.2706 544.357 74.4076C544.388 74.3359 544.416 74.2621 544.439 74.1866L544.623 73.612C544.715 73.3136 544.797 73.0152 544.878 72.7168C544.922 72.5872 544.956 72.4542 544.981 72.3189C545.052 72.0537 545.114 71.7885 545.165 71.5122C545.165 71.5122 545.165 71.4459 545.165 71.4127C545.226 71.1475 545.277 70.8823 545.318 70.617L545.41 70.0534C545.629 68.64 545.738 67.2095 545.738 65.7765C545.738 65.0803 545.717 64.4282 545.676 63.7762Z" fill="white"/>
<path d="M529.535 49.0571V49.1123L529.207 49.5433C529.095 49.6759 528.982 49.8196 528.859 49.9523C528.737 50.0849 528.634 50.1954 528.522 50.2948C527.851 50.8994 527.035 51.285 526.169 51.4064C525.303 51.5277 524.423 51.3798 523.632 50.98L523.325 50.8364C522.384 50.3832 521.381 49.9412 520.256 49.4881C519.612 49.245 518.998 48.9908 518.384 48.7366C517.77 48.4824 517.208 48.2393 516.625 47.974C516.246 47.8083 515.888 47.6315 515.52 47.4546L515.366 47.3662C514.594 46.9649 513.94 46.3385 513.479 45.5574C513.018 44.7764 512.768 43.8718 512.758 42.9457C512.76 42.3535 512.805 41.7623 512.891 41.1775C513.033 40.4114 513.337 39.6913 513.78 39.0736C514.223 38.4559 514.792 37.9573 515.443 37.6169C516.094 37.2766 516.809 37.1036 517.533 37.1116C518.256 37.1196 518.967 37.3084 519.612 37.6631C520.246 38.0057 520.931 38.3483 521.658 38.6909L522.681 39.155C523.571 39.575 524.532 39.9949 525.524 40.4149L527.161 41.1222L527.611 41.3211L527.949 41.4869C528.548 41.8361 529.071 42.3198 529.482 42.9055C529.894 43.4912 530.185 44.1654 530.335 44.8826C530.485 45.5998 530.491 46.3434 530.353 47.0635C530.215 47.7835 529.936 48.4633 529.535 49.0571Z" fill="white"/>
<path d="M545.736 65.7229C545.736 67.1559 545.627 68.5864 545.409 69.9998L545.317 70.5634C545.276 70.8287 545.225 71.0939 545.163 71.3591C545.163 71.3591 545.163 71.4254 545.163 71.4586C545.163 71.7349 545.051 72.0001 544.979 72.2654C544.955 72.4006 544.92 72.5336 544.877 72.6632C544.795 72.9616 544.713 73.26 544.621 73.5584C544.529 73.8567 544.539 73.8346 544.498 73.9672L544.437 74.133C544.414 74.2085 544.387 74.2824 544.355 74.3541C543.991 75.2792 543.389 76.072 542.62 76.6382C541.851 77.2043 540.948 77.5201 540.018 77.5479C539.68 77.5479 539.332 77.5479 538.995 77.4926C538.287 77.4059 537.605 77.1553 536.995 76.758C536.386 76.3606 535.862 75.8259 535.461 75.1902C535.06 74.5545 534.791 73.8328 534.672 73.0744C534.552 72.316 534.586 71.5387 534.77 70.7955C535.115 69.4383 535.287 68.0366 535.281 66.6291C535.288 65.5619 535.202 64.4964 535.026 63.4463C534.916 62.7474 534.938 62.032 535.088 61.342C535.238 60.652 535.514 60.0012 535.9 59.4279C536.285 58.8547 536.773 58.3703 537.335 58.0033C537.896 57.6364 538.519 57.3941 539.169 57.2907H539.404H539.741H540.007C540.283 57.2742 540.56 57.2742 540.836 57.2907C541.082 57.2907 541.317 57.346 541.552 57.3902H541.654L541.869 57.4454H542.023C542.927 57.7205 543.739 58.2712 544.361 59.0316C544.983 59.792 545.39 60.73 545.531 61.7334C545.531 61.7334 545.531 61.7886 545.531 61.8107C545.603 62.4296 545.664 63.0596 545.705 63.7005C545.746 64.3415 545.736 65.0819 545.736 65.7229Z" fill="white"/>
<path d="M535.449 55.7769C537.155 55.7769 538.538 54.2727 538.538 52.4172C538.538 50.5618 537.155 49.0576 535.449 49.0576C533.742 49.0576 532.359 50.5618 532.359 52.4172C532.359 54.2727 533.742 55.7769 535.449 55.7769Z" fill="white"/>
<path d="M6.20106 91.1408H4.09373C3.54018 91.1236 2.99519 90.9888 2.48991 90.744C1.98463 90.4991 1.52896 90.1491 1.14894 89.714C0.768932 89.2788 0.472023 88.767 0.275197 88.2078C0.0783713 87.6486 -0.0145183 87.053 0.0018391 86.455V4.67473C-0.0145065 4.07728 0.0784664 3.48223 0.275416 2.92367C0.472365 2.36511 0.769422 1.85404 1.14956 1.41975C1.5297 0.985467 1.98545 0.636508 2.49067 0.392876C2.99589 0.149244 3.54065 0.0157362 4.09373 0H6.20106C7.31719 0.0346908 8.37496 0.546444 9.14214 1.42291C9.90933 2.29937 10.3232 3.4689 10.2929 4.67473V86.455C10.3093 87.053 10.2164 87.6486 10.0196 88.2078C9.82276 88.767 9.52586 89.2788 9.14584 89.714C8.76583 90.1491 8.31016 90.4991 7.80488 90.744C7.29959 90.9888 6.75461 91.1236 6.20106 91.1408ZM52.8077 0H55.0275C55.5806 0.0157362 56.1254 0.149244 56.6306 0.392876C57.1358 0.636508 57.5916 0.985467 57.9717 1.41975C58.3518 1.85404 58.6489 2.36511 58.8459 2.92367C59.0428 3.48223 59.1358 4.07728 59.1194 4.67473V86.455C59.1358 87.053 59.0429 87.6486 58.8461 88.2078C58.6492 88.767 58.3523 89.2788 57.9723 89.714C57.5923 90.1491 57.1366 90.4991 56.6314 90.744C56.1261 90.9888 55.5811 91.1236 55.0275 91.1408H52.8077C52.2541 91.1236 51.7092 90.9888 51.2039 90.744C50.6986 90.4991 50.2429 90.1491 49.8629 89.714C49.4829 89.2788 49.186 88.767 48.9892 88.2078C48.7923 87.6486 48.6994 87.053 48.7158 86.455V4.67473C48.6938 3.47457 49.1113 2.31356 49.8776 1.44431C50.6439 0.575049 51.697 0.0678798 52.8077 0.0331528V0Z" fill="white"/>
<path d="M28.6025 55.3674C32.8229 55.3674 36.2441 51.6466 36.2441 47.0567C36.2441 42.4669 32.8229 38.7461 28.6025 38.7461C24.3822 38.7461 20.9609 42.4669 20.9609 47.0567C20.9609 51.6466 24.3822 55.3674 28.6025 55.3674Z" fill="white"/>
</svg>
