<svg width="452" height="45" viewBox="0 0 452 45" fill="none" xmlns="http://www.w3.org/2000/svg">
<path d="M37.7758 0.199997H45.2638V45H37.7758V26.376H7.88775V45H0.46375V0.199997H7.88775V18.888H37.7758V0.199997ZM99.3663 25.928L61.9903 30.6V33.032C61.9903 35.528 64.0383 37.576 66.5343 37.576H87.3343C89.8303 37.576 91.8783 35.528 91.8783 33.032V32.904H99.3663V33.032C99.3663 39.624 93.9263 45 87.3343 45H66.5343C59.9423 45 54.5663 39.624 54.5663 33.032V16.904C54.5663 10.248 59.9423 4.872 66.5343 4.872H87.3343C93.9263 4.872 99.3663 10.248 99.3663 16.904V25.928ZM61.9903 16.904V23.048L91.8783 19.336V16.904C91.8783 14.408 89.8303 12.36 87.3343 12.36H66.5343C64.0383 12.36 61.9903 14.408 61.9903 16.904ZM140.016 4.872C146.608 4.872 152.048 10.248 152.048 16.904V33.032C152.048 39.624 146.608 45 140.016 45H119.216C112.624 45 107.248 39.624 107.248 33.032V24.392L144.432 15.048L143.472 13.96C142.576 12.936 141.36 12.36 140.016 12.36H119.216C116.72 12.36 114.672 14.408 114.672 16.904V17.032H107.248V16.904C107.248 10.248 112.624 4.872 119.216 4.872H140.016ZM144.56 33.032V22.728L114.672 30.216V33.032C114.672 35.528 116.72 37.576 119.216 37.576H140.016C142.512 37.576 144.56 35.528 144.56 33.032ZM168.697 45H161.273V0.199997H168.697V45ZM199.701 14.728H185.685V31.88C185.685 35.016 188.245 37.576 191.381 37.576H199.701V45H191.381C184.149 45 178.261 39.176 178.261 31.88V0.199997H185.685V7.24H199.701V14.728ZM232.477 4.872C243.549 4.872 252.573 13.896 252.573 24.968V45H245.085V24.968C245.085 17.992 239.453 12.36 232.477 12.36H215.197V45H207.773V0.199997H215.197V4.872H232.477ZM305.554 17.032H298.066V16.904C298.066 14.408 296.018 12.36 293.522 12.36H272.722C270.226 12.36 268.178 14.408 268.178 16.904V33.032C268.178 35.528 270.226 37.576 272.722 37.576H293.522C296.018 37.576 298.066 35.528 298.066 33.032V32.904H305.554V33.032C305.554 39.624 300.114 45 293.522 45H272.722C266.13 45 260.754 39.624 260.754 33.032V16.904C260.754 10.248 266.13 4.872 272.722 4.872H293.522C300.114 4.872 305.554 10.248 305.554 16.904V17.032ZM345.391 4.872C351.983 4.872 357.423 10.248 357.423 16.904V33.032C357.423 39.624 351.983 45 345.391 45H324.591C317.999 45 312.623 39.624 312.623 33.032V24.392L349.807 15.048L348.847 13.96C347.951 12.936 346.735 12.36 345.391 12.36H324.591C322.095 12.36 320.047 14.408 320.047 16.904V17.032H312.623V16.904C312.623 10.248 317.999 4.872 324.591 4.872H345.391ZM349.935 33.032V22.728L320.047 30.216V33.032C320.047 35.528 322.095 37.576 324.591 37.576H345.391C347.887 37.576 349.935 35.528 349.935 33.032ZM380.536 4.872H401.528V12.36H380.536C376.632 12.36 373.496 15.496 373.496 19.4V45H366.072V19.4C366.072 11.4 372.536 4.872 380.536 4.872ZM451.679 25.928L414.303 30.6V33.032C414.303 35.528 416.351 37.576 418.847 37.576H439.647C442.143 37.576 444.191 35.528 444.191 33.032V32.904H451.679V33.032C451.679 39.624 446.239 45 439.647 45H418.847C412.255 45 406.879 39.624 406.879 33.032V16.904C406.879 10.248 412.255 4.872 418.847 4.872H439.647C446.239 4.872 451.679 10.248 451.679 16.904V25.928ZM414.303 16.904V23.048L444.191 19.336V16.904C444.191 14.408 442.143 12.36 439.647 12.36H418.847C416.351 12.36 414.303 14.408 414.303 16.904Z" fill="#C3C0C0"/>
</svg>
