<svg width="397" height="139" viewBox="0 0 397 139" fill="none" xmlns="http://www.w3.org/2000/svg">
<path d="M385.598 51.4689V28.1777C385.598 19.3412 378.434 12.1777 369.598 12.1777H340.148" stroke="#06C4ED" stroke-width="3.26582"/>
<path d="M13.4023 51.4689V28.1777C13.4023 19.3412 20.5658 12.1777 29.4023 12.1777H58.8522" stroke="#06C4ED" stroke-width="3.26582"/>
<path d="M13.4023 88.3036V111.595C13.4023 120.431 20.5658 127.595 29.4023 127.595H58.8522" stroke="#06C4ED" stroke-width="3.26582"/>
<path d="M385.598 88.3036V111.595C385.598 120.431 378.434 127.595 369.598 127.595H340.148" stroke="#06C4ED" stroke-width="3.26582"/>
<path d="M394.965 46.557V18.3545C394.965 9.51794 387.801 2.35449 378.965 2.35449H343.834" stroke="#06C4ED" stroke-opacity="0.3" stroke-width="3.67405"/>
<path d="M2.34766 46.557V18.3545C2.34766 9.51794 9.5111 2.35449 18.3477 2.35449H53.4787" stroke="#06C4ED" stroke-opacity="0.3" stroke-width="3.67405"/>
<path d="M4.80469 91.9869V120.189C4.80469 129.026 11.9681 136.189 20.8047 136.189H55.9357" stroke="#06C4ED" stroke-opacity="0.3" stroke-width="3.67405"/>
<path d="M394.965 91.9869V120.189C394.965 129.026 387.801 136.189 378.965 136.189H343.834" stroke="#06C4ED" stroke-opacity="0.3" stroke-width="3.67405"/>
</svg>
