<svg width="527" height="53" viewBox="0 0 527 53" fill="none" xmlns="http://www.w3.org/2000/svg">
<path d="M31.95 0.199997C39.502 0.199997 45.646 6.408 45.646 13.96V31.304C45.646 38.856 39.502 45 31.95 45H14.606C7.054 45 0.91 38.856 0.91 31.304V13.96C0.91 6.408 7.054 0.199997 14.606 0.199997H31.95ZM38.222 31.304V13.96C38.222 10.504 35.406 7.688 31.95 7.688H14.606C11.15 7.688 8.334 10.504 8.334 13.96V31.304C8.334 34.76 11.15 37.576 14.606 37.576H31.95C35.406 37.576 38.222 34.76 38.222 31.304ZM72.2095 14.904C80.5135 14.904 87.2815 21.672 87.2815 29.976C87.2815 38.28 80.5135 45 72.2095 45H59.2495V52.008H53.6815V14.904H72.2095ZM72.2095 39.432C77.4415 39.432 81.6655 35.16 81.6655 29.976C81.6655 24.744 77.4415 20.52 72.2095 20.52H59.2495V39.432H72.2095ZM126.267 30.696L98.2349 34.2V36.024C98.2349 37.896 99.7709 39.432 101.643 39.432H117.243C119.115 39.432 120.651 37.896 120.651 36.024V35.928H126.267V36.024C126.267 40.968 122.187 45 117.243 45H101.643C96.6989 45 92.6669 40.968 92.6669 36.024V23.928C92.6669 18.936 96.6989 14.904 101.643 14.904H117.243C122.187 14.904 126.267 18.936 126.267 23.928V30.696ZM98.2349 23.928V28.536L120.651 25.752V23.928C120.651 22.056 119.115 20.52 117.243 20.52H101.643C99.7709 20.52 98.2349 22.056 98.2349 23.928ZM159.886 14.904C164.83 14.904 168.862 18.936 168.862 23.928V45H163.246V23.928C163.246 22.056 161.71 20.52 159.886 20.52H140.878V14.904H159.886ZM129.598 17.16L133.534 13.176L140.878 20.52V45H135.262V22.824L129.598 17.16ZM205.216 45H197.792V0.199997H205.216V45ZM241.574 14.904C246.518 14.904 250.55 18.936 250.55 23.928V45H244.934V23.928C244.934 22.056 243.398 20.52 241.574 20.52H222.566V14.904H241.574ZM211.286 17.16L215.222 13.176L222.566 20.52V45H216.95V22.824L211.286 17.16ZM285.215 14.904C290.159 14.904 294.191 18.936 294.191 23.928V45H288.575V23.928C288.575 22.056 287.039 20.52 285.215 20.52H266.207V14.904H285.215ZM254.927 17.16L258.863 13.176L266.207 20.52V45H260.591V22.824L254.927 17.16ZM325.399 14.904C330.343 14.904 334.423 18.936 334.423 23.928V36.024C334.423 40.968 330.343 45 325.399 45H309.799C304.855 45 300.823 40.968 300.823 36.024V23.928C300.823 18.936 304.855 14.904 309.799 14.904H325.399ZM328.807 36.024V23.928C328.807 22.056 327.271 20.52 325.399 20.52H309.799C307.927 20.52 306.391 22.056 306.391 23.928V36.024C306.391 37.896 307.927 39.432 309.799 39.432H325.399C327.271 39.432 328.807 37.896 328.807 36.024ZM337.662 14.904H343.134L355.662 45H350.142L337.662 14.904ZM368.142 14.904H373.662L361.134 45H355.662L368.142 14.904ZM401.426 14.904C406.37 14.904 410.45 18.936 410.45 23.928V36.024C410.45 40.968 406.37 45 401.426 45H385.826C380.882 45 376.85 40.968 376.85 36.024V29.544L404.738 22.536L404.018 21.72C403.346 20.952 402.434 20.52 401.426 20.52H385.826C383.954 20.52 382.418 22.056 382.418 23.928V24.024H376.85V23.928C376.85 18.936 380.882 14.904 385.826 14.904H401.426ZM404.834 36.024V28.296L382.418 33.912V36.024C382.418 37.896 383.954 39.432 385.826 39.432H401.426C403.298 39.432 404.834 37.896 404.834 36.024ZM433.065 22.296H422.553V35.16C422.553 37.512 424.473 39.432 426.825 39.432H433.065V45H426.825C421.401 45 416.985 40.632 416.985 35.16V11.4H422.553V16.68H433.065V22.296ZM444.111 45H438.543V20.184H444.111V45ZM444.111 15.288H438.543V11.4H444.111V15.288ZM475.024 14.904C479.968 14.904 484.048 18.936 484.048 23.928V36.024C484.048 40.968 479.968 45 475.024 45H459.424C454.48 45 450.448 40.968 450.448 36.024V23.928C450.448 18.936 454.48 14.904 459.424 14.904H475.024ZM478.432 36.024V23.928C478.432 22.056 476.896 20.52 475.024 20.52H459.424C457.552 20.52 456.016 22.056 456.016 23.928V36.024C456.016 37.896 457.552 39.432 459.424 39.432H475.024C476.896 39.432 478.432 37.896 478.432 36.024ZM517.761 14.904C522.705 14.904 526.737 18.936 526.737 23.928V45H521.121V23.928C521.121 22.056 519.585 20.52 517.761 20.52H498.753V14.904H517.761ZM487.473 17.16L491.409 13.176L498.753 20.52V45H493.137V22.824L487.473 17.16Z" fill="#C3C0C0"/>
</svg>
