<svg width="129" height="47" viewBox="0 0 129 47" fill="none" xmlns="http://www.w3.org/2000/svg">
<g clip-path="url(#clip0_141_2255)">
<path d="M12.2602 17.3172V27.3477C12.2602 27.6813 12.3921 28.0012 12.627 28.237C12.8619 28.4729 13.1804 28.6054 13.5126 28.6054H14.5784C14.806 28.6063 15.0314 28.5619 15.2418 28.4747C15.4521 28.3875 15.6431 28.2593 15.8038 28.0976L17.0834 26.8126C17.3995 26.4978 17.8262 26.3203 18.2714 26.3184H28.5256C28.6664 26.3181 28.8059 26.3459 28.9358 26.4004C29.0658 26.4548 29.1837 26.5347 29.2825 26.6354L30.6674 28.0226C30.8511 28.2078 31.0697 28.3547 31.3103 28.4548C31.5509 28.5548 31.8088 28.606 32.0692 28.6054H33.5593C33.8204 28.6054 34.0708 28.5013 34.2554 28.3159C34.44 28.1305 34.5437 27.8791 34.5437 27.617V17.0411C34.5437 16.779 34.44 16.5276 34.2554 16.3422C34.0708 16.1569 33.8204 16.0527 33.5593 16.0527H13.516C13.3507 16.0523 13.1869 16.0847 13.0341 16.1481C12.8813 16.2116 12.7425 16.3047 12.6258 16.4223C12.509 16.5398 12.4166 16.6794 12.3539 16.833C12.2911 16.9866 12.2593 17.1512 12.2602 17.3172Z" fill="white"/>
<path d="M15.926 28.4217L17.4433 26.8982C17.5321 26.8084 17.6379 26.7375 17.7545 26.6895C17.8711 26.6415 17.9961 26.6174 18.1221 26.6187H28.5799C28.6803 26.618 28.7798 26.6376 28.8725 26.6762C28.9652 26.7149 29.0493 26.7718 29.1196 26.8437L30.6946 28.4217C30.7465 28.4757 30.7754 28.5478 30.7754 28.6228C30.7754 28.6978 30.7465 28.7699 30.6946 28.8239C30.6405 28.8756 30.569 28.9048 30.4943 28.9057H16.1297C16.055 28.9057 15.9833 28.8759 15.9305 28.8228C15.8776 28.7697 15.8479 28.6978 15.8479 28.6228C15.8473 28.5855 15.8542 28.5484 15.8682 28.5138C15.8822 28.4793 15.903 28.4479 15.9294 28.4217H15.926Z" fill="white"/>
<path d="M4.3141 0.41926L0.695814 5.72592C0.522234 6.00529 0.421783 6.32419 0.403868 6.65297C0.312222 13.7354 0.142541 13.8887 0.692416 14.4375L2.44384 16.1961C2.62403 16.3769 2.72539 16.622 2.72559 16.8778V42.3887C2.72541 42.592 2.64482 42.7869 2.50156 42.9306L0.851938 44.587C0.729743 44.7097 0.5125 44.9006 0.461586 45.0676C0.422694 45.6076 0.422694 46.1498 0.461586 46.6899C0.46248 46.7734 0.496125 46.8531 0.555227 46.9118C0.61433 46.9705 0.694137 47.0035 0.777273 47.0034H11.4862C11.5186 47.0035 11.5507 46.997 11.5805 46.9845C11.6104 46.9719 11.6375 46.9535 11.6603 46.9304C11.683 46.9072 11.7009 46.8798 11.713 46.8496C11.7251 46.8194 11.7311 46.7872 11.7306 46.7547V0.507868C11.7306 0.373183 11.6773 0.244014 11.5825 0.148777C11.4876 0.0535399 11.359 3.95721e-05 11.2249 3.95721e-05H5.11514C4.95762 -0.00139308 4.80221 0.0360951 4.66252 0.1092C4.52283 0.182305 4.40315 0.288788 4.3141 0.41926Z" fill="white"/>
<path d="M0.379976 14.6558L2.04319 16.2849C2.13333 16.3737 2.20473 16.4798 2.25313 16.5969C2.30154 16.7141 2.32593 16.8398 2.3249 16.9666V42.2252C2.32493 42.3262 2.30483 42.4262 2.26577 42.5193C2.22671 42.6123 2.16951 42.6966 2.09751 42.7671L0.379976 44.4508C0.358361 44.4744 0.332119 44.4932 0.302909 44.506C0.273699 44.5189 0.242154 44.5255 0.210262 44.5255C0.17837 44.5255 0.146825 44.5189 0.117615 44.506C0.0884049 44.4932 0.0621625 44.4744 0.0405475 44.4508C-0.00101456 44.408 -0.0241513 44.3505 -0.0239241 44.2906V14.8262C-0.0239241 14.7647 0.000369471 14.7058 0.0436551 14.6623C0.0869407 14.6188 0.145649 14.5944 0.206864 14.5944C0.23838 14.592 0.270037 14.5962 0.299843 14.6068C0.329648 14.6173 0.356952 14.634 0.379976 14.6558Z" fill="white"/>
<path d="M35.029 0.398809V34.4235C35.0278 34.5501 35.0517 34.6756 35.0995 34.7926C35.1473 34.9097 35.218 35.016 35.3074 35.1052L41.2067 41.0322C41.3874 41.2115 41.6314 41.312 41.8855 41.3116H45.9587C46.0107 41.3116 46.0621 41.3013 46.1101 41.2812C46.1581 41.2611 46.2017 41.2317 46.2383 41.1946C46.2749 41.1576 46.3038 41.1136 46.3234 41.0652C46.343 41.0169 46.3528 40.9651 46.3524 40.9129V35.6403C46.3524 35.4222 46.3524 35.2381 46.3524 35.2381L45.0626 33.9396C44.8617 33.7686 44.6987 33.5573 44.584 33.3193C44.5586 33.1204 44.5496 32.9198 44.5568 32.7194V23.0092C44.5391 22.7463 44.5666 22.4823 44.6383 22.2287C44.7683 22.0149 44.9297 21.8218 45.1169 21.6562L46.0741 20.695L46.3626 20.4053V12.3311C46.3626 12.2789 46.3729 12.2272 46.3929 12.1791C46.4129 12.1309 46.4422 12.0871 46.4791 12.0504C46.516 12.0136 46.5598 11.9846 46.608 11.9649C46.6562 11.9452 46.7077 11.9353 46.7597 11.9358H49.1357C49.2405 11.9349 49.3406 11.8925 49.4143 11.8178C49.4881 11.7431 49.5295 11.6422 49.5295 11.537V7.1574C49.5293 7.03332 49.501 6.91089 49.4469 6.79933C49.3929 6.68776 49.3143 6.58994 49.2172 6.51323L41.2542 0.259069C41.0531 0.0997577 40.8043 0.0132892 40.5482 0.0136731H35.4058C35.3538 0.0136712 35.3024 0.0240048 35.2544 0.0440863C35.2064 0.0641677 35.1628 0.0935917 35.1262 0.130666C35.0896 0.16774 35.0606 0.211727 35.0411 0.260088C35.0215 0.308449 35.0117 0.360229 35.0121 0.412435L35.029 0.398809Z" fill="white"/>
<path d="M46.047 34.6996L45.0287 33.6772C44.94 33.5875 44.8697 33.4811 44.8219 33.3642C44.7742 33.2472 44.7498 33.1219 44.7504 32.9955V22.5321C44.7503 22.4311 44.7704 22.3312 44.8095 22.2381C44.8486 22.145 44.9058 22.0607 44.9778 21.9902L46.047 20.9473C46.1011 20.8932 46.1743 20.8628 46.2507 20.8628C46.327 20.8628 46.4002 20.8932 46.4543 20.9473C46.506 21.0028 46.5351 21.0758 46.5358 21.1518V34.4985C46.5355 34.5545 46.5187 34.6092 46.4875 34.6555C46.4564 34.7019 46.4122 34.738 46.3606 34.7592C46.309 34.7803 46.2523 34.7856 46.1977 34.7744C46.1431 34.7632 46.093 34.736 46.0538 34.6962L46.047 34.6996Z" fill="white"/>
<path d="M55.809 4.15448L53.0935 6.88109C52.8931 7.08257 52.7342 7.32172 52.6259 7.58488C52.5175 7.84804 52.4619 8.13006 52.4622 8.41481V17.75C52.462 18.0338 52.5194 18.3146 52.6308 18.5754C52.7423 18.8362 52.9055 19.0714 53.1105 19.2667L54.234 20.3335C54.3056 20.4022 54.3626 20.4848 54.4017 20.5761C54.4407 20.6675 54.461 20.7658 54.4614 20.8652V30.347C54.4611 30.4638 54.4372 30.5793 54.3911 30.6865C54.345 30.7937 54.2777 30.8904 54.1933 30.9707L53.1139 31.9932C52.9075 32.1876 52.7431 32.4226 52.631 32.6835C52.5189 32.9444 52.4614 33.2257 52.4622 33.5099V37.5998C52.4631 37.8378 52.5579 38.0658 52.7259 38.2338C52.8938 38.4018 53.1212 38.4962 53.3583 38.4962H55.8124C56.3899 38.4965 56.9481 38.2871 57.3839 37.9065L62.214 33.6803C62.4268 33.4953 62.5974 33.2666 62.7146 33.0096C62.8317 32.7527 62.8925 32.4735 62.8929 32.1909V14.3861C62.8929 14.1475 62.9873 13.9186 63.1553 13.7499C63.3234 13.5811 63.5513 13.4863 63.789 13.4863H77.1556C77.732 13.4847 78.2882 13.2727 78.7204 12.8899L84.2192 7.99559C84.4313 7.80858 84.6014 7.57852 84.7185 7.32061C84.8355 7.06269 84.8967 6.78279 84.898 6.49937V4.43055C84.898 4.1925 84.8041 3.96416 84.6368 3.79551C84.4695 3.62687 84.2424 3.53166 84.0053 3.53076H57.3364C56.7633 3.53153 56.2139 3.76079 55.809 4.16812V4.15448Z" fill="white"/>
<path d="M84.2869 9.31159L80.0135 13.0607C79.7143 13.3233 79.4745 13.6471 79.31 14.0103C79.1455 14.3736 79.0602 14.768 79.0598 15.167V32.2424C79.0598 32.4092 79.027 32.5743 78.9633 32.7284C78.8996 32.8824 78.8063 33.0224 78.6887 33.1402C78.5711 33.2579 78.4315 33.3512 78.278 33.4148C78.1244 33.4783 77.9598 33.5107 77.7937 33.5103H65.1703C64.3544 33.5103 63.5669 33.811 62.9572 34.3555L58.005 38.7624C57.7064 39.0268 57.4672 39.352 57.3034 39.7163C57.1395 40.0806 57.0547 40.4758 57.0546 40.8755V42.215C57.0546 42.3818 57.0874 42.5469 57.151 42.701C57.2147 42.855 57.308 42.9949 57.4256 43.1127C57.5432 43.2305 57.6828 43.3238 57.8364 43.3873C57.99 43.4509 58.1545 43.4833 58.3206 43.4829H84.2191C84.6205 43.4834 85.018 43.4045 85.389 43.2507C85.76 43.0969 86.0972 42.8712 86.3812 42.5865L88.5807 40.3745C89.1538 39.7998 89.4761 39.0201 89.4768 38.2069V36.5368C89.4759 36.1385 89.3889 35.7451 89.2219 35.3839C89.0549 35.0226 88.8118 34.702 88.5095 34.4442H88.4857C88.3167 34.3003 88.1809 34.1212 88.0877 33.9193C87.9945 33.7174 87.9461 33.4976 87.946 33.2751V16.1349C87.9461 15.9124 87.9945 15.6926 88.0877 15.4908C88.1809 15.2889 88.3167 15.1098 88.4857 14.9659L88.5095 14.9489C88.8114 14.6909 89.054 14.3702 89.2204 14.0089C89.3868 13.6475 89.4731 13.2543 89.4734 12.8562V9.74785C89.4734 9.41069 89.34 9.08733 89.1026 8.84892C88.8652 8.6105 88.5432 8.47656 88.2074 8.47656H86.5102C85.694 8.47613 84.9054 8.7728 84.2903 9.31159H84.2869Z" fill="white"/>
<path d="M52.3875 19.2738V31.9867C52.387 32.0236 52.3976 32.0598 52.418 32.0906C52.4383 32.1214 52.4674 32.1453 52.5014 32.1593C52.5355 32.1732 52.5729 32.1766 52.6089 32.1689C52.6449 32.1612 52.6777 32.1428 52.7032 32.1162L53.9658 30.8449C54.0661 30.7456 54.1457 30.6273 54.1999 30.4968C54.2541 30.3663 54.2819 30.2263 54.2815 30.0849V21.1722C54.2813 21.0309 54.2533 20.891 54.1991 20.7606C54.1449 20.6302 54.0657 20.5118 53.9658 20.4122L52.7032 19.1443C52.6771 19.1193 52.6444 19.1023 52.6089 19.0956C52.5735 19.0888 52.5368 19.0925 52.5034 19.1062C52.47 19.1199 52.4413 19.143 52.4207 19.1728C52.4002 19.2025 52.3886 19.2376 52.3875 19.2738Z" fill="white"/>
<path d="M89.1918 14.6214L88.4824 15.3338C88.3897 15.4269 88.3163 15.5374 88.2662 15.6591C88.2161 15.7807 88.1903 15.9111 88.1904 16.0427V33.401C88.1903 33.5326 88.2161 33.663 88.2662 33.7846C88.3163 33.9062 88.3897 34.0168 88.4824 34.1099L89.1918 34.8222C89.2158 34.8463 89.2463 34.8627 89.2795 34.8695C89.3127 34.8763 89.3472 34.8731 89.3786 34.8604C89.41 34.8477 89.4371 34.826 89.4564 34.798C89.4756 34.77 89.4863 34.737 89.4871 34.7029V14.7441C89.4875 14.7215 89.4835 14.6989 89.4751 14.6779C89.4668 14.6568 89.4544 14.6376 89.4386 14.6214C89.4228 14.6052 89.4039 14.5924 89.3831 14.5836C89.3623 14.5748 89.3399 14.5703 89.3174 14.5703C89.2716 14.5711 89.2279 14.5894 89.1952 14.6214H89.1918Z" fill="white"/>
<path d="M128.83 16.6255L128.783 16.6766L126.801 18.667L119.381 26.1175L118.834 26.6662L117.731 27.7739C117.377 28.129 116.897 28.3288 116.397 28.3294H102.25C101.749 28.3294 101.269 28.1298 100.915 27.7744C100.561 27.419 100.362 26.937 100.362 26.4344V20.562C100.362 20.0594 100.561 19.5774 100.915 19.222C101.269 18.8667 101.749 18.667 102.25 18.667H112.412C112.913 18.6664 113.392 18.4666 113.746 18.1115L119.177 12.6787C119.247 12.6099 119.303 12.5277 119.341 12.437C119.378 12.3462 119.398 12.2488 119.398 12.1504V10.3406C119.397 10.1891 119.352 10.0413 119.266 9.9167C119.18 9.7921 119.059 9.69665 118.917 9.64302C118.776 9.58939 118.622 9.58013 118.476 9.61645C118.329 9.65278 118.198 9.73299 118.098 9.84641L115.345 12.9513C115.275 13.0306 115.189 13.094 115.093 13.1375C114.997 13.181 114.893 13.2035 114.788 13.2035H95.2302C94.7297 13.2035 94.2497 13.0039 93.8958 12.6485C93.5419 12.2931 93.343 11.8111 93.343 11.3086V5.45315C93.343 4.95057 93.5419 4.46857 93.8958 4.11319C94.2497 3.75781 94.7297 3.55816 95.2302 3.55816H128.257C128.39 3.55651 128.521 3.59445 128.633 3.66722L127.663 4.63857C127.309 4.99395 127.11 5.47562 127.109 5.97803V14.2124L127.663 15.5553L128.681 16.5777C128.701 16.5965 128.724 16.6105 128.75 16.6188C128.776 16.6271 128.803 16.6293 128.83 16.6255Z" fill="white"/>
<path d="M129 29.2023V33.0604C129 33.3934 128.935 33.7232 128.808 34.0308C128.681 34.3384 128.495 34.6179 128.26 34.8532L121.896 41.2403L120.436 42.7058C120.202 42.9425 119.923 43.1303 119.616 43.2583C119.309 43.3864 118.98 43.4523 118.647 43.4522H116.173C116.207 43.4515 116.24 43.4408 116.268 43.4214C116.296 43.4021 116.317 43.3749 116.33 43.3433C116.343 43.3118 116.346 43.2771 116.339 43.2438C116.332 43.2104 116.316 43.1798 116.292 43.1557L116.105 42.9683C115.847 42.7086 115.54 42.5027 115.202 42.3624C114.864 42.222 114.502 42.1499 114.136 42.1503H97.6062C97.4748 42.1501 97.3447 42.1762 97.2235 42.2271C97.1023 42.278 96.9924 42.3527 96.9002 42.4468L96.1908 43.1591C96.1749 43.175 96.1623 43.1938 96.1537 43.2146C96.1451 43.2353 96.1406 43.2576 96.1406 43.2801C96.1406 43.3026 96.1451 43.3249 96.1537 43.3457C96.1623 43.3664 96.1749 43.3853 96.1908 43.4011C96.2232 43.4337 96.2672 43.4521 96.313 43.4522H95.8717C95.5395 43.4527 95.2105 43.3873 94.9035 43.2599C94.5965 43.1324 94.3176 42.9454 94.0827 42.7095C93.8478 42.4736 93.6615 42.1936 93.5346 41.8853C93.4077 41.577 93.3426 41.2466 93.343 40.9131V36.3324C93.3426 35.9988 93.4077 35.6684 93.5346 35.3601C93.6615 35.0519 93.8478 34.7718 94.0827 34.5359C94.3176 34.3 94.5965 34.113 94.9035 33.9856C95.2105 33.8581 95.5395 33.7928 95.8717 33.7932H115.711L121.896 27.5833L122.069 27.4095C122.304 27.1733 122.582 26.9861 122.889 26.8586C123.196 26.731 123.525 26.6658 123.858 26.6665H126.475C127.144 26.6683 127.785 26.936 128.258 27.4112C128.732 27.8864 128.998 28.5303 129 29.2023Z" fill="white"/>
<path d="M128.83 3.84814V16.3224L128.182 15.6714C127.966 15.4542 127.795 15.1964 127.679 14.9128C127.562 14.6291 127.503 14.3252 127.503 14.0184V6.15213C127.503 5.84532 127.562 5.54141 127.679 5.25778C127.795 4.97414 127.966 4.71635 128.182 4.49912L128.83 3.84814Z" fill="white"/>
<path d="M115.878 43.4552H96.6185L97.2567 42.7736C97.3448 42.682 97.4502 42.6089 97.5668 42.5586C97.6833 42.5083 97.8087 42.4817 97.9355 42.4805H114.568C114.695 42.4809 114.82 42.5072 114.937 42.5575C115.053 42.6079 115.159 42.6814 115.246 42.7736L115.878 43.4552Z" fill="white"/>
</g>
<defs>
<clipPath id="clip0_141_2255">
<rect width="129" height="47" fill="white"/>
</clipPath>
</defs>
</svg>
