<svg width="714" height="282" viewBox="0 0 714 282" fill="none" xmlns="http://www.w3.org/2000/svg">
<g opacity="0.12">
<path d="M110.942 274.931L81.5625 195.273H140.332L110.942 274.931Z" stroke="white" stroke-width="9" stroke-linecap="round" stroke-linejoin="round"/>
<path d="M255.438 271.992L226.754 234.859" stroke="white" stroke-width="10" stroke-linecap="round" stroke-linejoin="bevel"/>
<path d="M255.98 197.008L226.754 234.859" stroke="white" stroke-width="10" stroke-linecap="round" stroke-linejoin="bevel"/>
<path d="M342.923 199.704C343.748 199.704 344.417 200.377 344.417 201.207C344.417 202.038 343.748 202.71 342.923 202.71C342.098 202.71 341.43 202.038 341.43 201.207C341.43 200.377 342.098 199.704 342.923 199.704Z" fill="white" stroke="white" stroke-width="10" stroke-linecap="round" stroke-linejoin="bevel"/>
<path d="M349.819 214.999C353.038 221.05 354.722 227.913 354.699 234.892C354.699 256.21 339.354 273.505 320.419 273.505C301.484 273.505 286.129 256.21 286.129 234.892C286.129 213.574 301.473 196.278 320.419 196.278C322.249 196.281 324.076 196.448 325.882 196.776" stroke="white" stroke-width="10" stroke-linecap="round" stroke-linejoin="bevel"/>
<path d="M429.353 269.118C422.397 276.323 411.901 280.114 397.16 280.114C391.043 280.112 384.934 279.68 378.869 278.821C377.872 278.674 376.959 278.136 376.306 277.308C375.653 276.48 375.305 275.421 375.33 274.334V243.257C375.299 241.946 375.72 240.67 376.509 239.674C377.299 238.678 378.402 238.033 379.606 237.864C379.872 237.864 380.148 237.864 380.424 237.864C380.728 237.866 381.032 237.884 381.335 237.92C382.533 238.093 383.629 238.739 384.415 239.732C385.2 240.725 385.618 241.996 385.59 243.302V266.056C385.59 267.14 385.947 268.188 386.598 269.012C387.248 269.837 388.15 270.383 389.14 270.554C391.954 270.918 394.786 271.095 397.62 271.085C419.328 271.085 429.936 257.823 429.823 237.035C429.823 225.089 426.836 215.717 421.097 209.33C413.937 201.428 403.901 200.013 400.372 199.77C396.178 199.494 392.27 199.45 392.27 199.45C389.416 199.45 386.562 199.24 383.708 199.262C379.831 199.262 377.509 199.439 376.179 197.67C375.735 197.064 375.443 196.345 375.33 195.582C375.305 194.456 375.679 193.363 376.374 192.526C377.07 191.688 378.036 191.168 379.074 191.073C383.411 190.664 388.342 190.432 393.968 190.432C396.198 190.432 398.357 190.524 400.444 190.708C412.842 191.813 422.755 196.068 429.087 203.13C436.514 211.242 440.524 223.022 440.524 237.389C440.524 251.756 436.432 261.912 429.353 269.118Z" fill="white"/>
<path d="M470.579 275.583V194.565C470.593 193.971 470.497 193.379 470.299 192.824C470.101 192.27 469.803 191.763 469.423 191.332C469.043 190.902 468.588 190.557 468.084 190.318C467.58 190.078 467.037 189.948 466.487 189.935H464.39C463.84 189.948 463.297 190.078 462.793 190.318C462.29 190.557 461.835 190.902 461.455 191.332C461.074 191.763 460.777 192.27 460.578 192.824C460.38 193.379 460.285 193.971 460.298 194.565V275.583C460.273 276.783 460.69 277.944 461.458 278.812C462.225 279.681 463.279 280.184 464.39 280.213H466.497C467.606 280.182 468.658 279.676 469.423 278.809C470.188 277.941 470.604 276.781 470.579 275.583Z" fill="white"/>
<path d="M200.198 266.598C203.508 266.598 206.192 269.517 206.192 273.118C206.192 276.719 203.508 279.638 200.198 279.638C196.887 279.638 194.203 276.719 194.203 273.118C194.203 269.517 196.887 266.598 200.198 266.598Z" fill="white"/>
<path d="M207.48 194.897L207.429 195.173C207.347 195.742 207.156 196.286 206.869 196.771C206.582 197.256 206.205 197.672 205.762 197.992C205.319 198.311 204.819 198.528 204.294 198.629C203.77 198.73 203.231 198.712 202.713 198.577C198.771 197.529 194.705 197.131 190.652 197.394C172.444 198.5 162.603 212.712 163.697 233.864C164.178 243.059 166.49 250.519 170.244 256.077C171.073 257.313 171.989 258.477 172.986 259.559C173.282 259.868 173.579 260.166 173.896 260.465C174.496 261.057 175.124 261.614 175.778 262.134L176.014 262.321C176.29 262.542 176.566 262.741 176.842 262.94C177.603 263.483 178.392 263.977 179.205 264.421C179.492 264.587 179.809 264.753 180.116 264.907L180.392 265.04C180.75 265.217 181.108 265.372 181.415 265.526C181.722 265.681 182.244 265.869 182.653 266.024L183.85 266.432C184.457 266.633 185.017 266.975 185.489 267.435C185.961 267.895 186.333 268.461 186.58 269.094C186.827 269.726 186.942 270.41 186.918 271.096C186.893 271.782 186.729 272.453 186.438 273.063C186.438 273.174 186.335 273.284 186.274 273.395C186.248 273.45 186.218 273.502 186.182 273.55C186.167 273.581 186.15 273.61 186.131 273.638C185.665 274.403 185.003 275.003 184.224 275.365C183.446 275.726 182.587 275.833 181.753 275.671L181.282 275.55L180.024 275.141C179.737 275.053 179.441 274.953 179.154 274.832C178.868 274.71 178.612 274.633 178.356 274.533C178.101 274.434 177.63 274.246 177.272 274.091L175.983 273.494L175.042 273.019C174.52 272.754 174.019 272.478 173.507 272.168C172.996 271.859 172.761 271.715 172.392 271.483L171.615 270.975L170.909 270.477C169.444 269.438 168.056 268.278 166.756 267.007C166.091 266.355 165.446 265.67 164.812 264.963C158.214 257.481 154.112 246.872 153.447 234.118C151.974 205.838 167.052 189.504 188.146 188.211C193.681 187.785 199.243 188.307 204.626 189.758C205.603 190.086 206.434 190.791 206.961 191.739C207.487 192.687 207.672 193.811 207.48 194.897Z" fill="white"/>
<path d="M183.891 266.4L182.694 265.991C182.285 265.836 181.866 265.67 181.457 265.494C181.047 265.317 180.751 265.184 180.434 265.007L180.157 264.875C179.851 264.72 179.533 264.554 179.247 264.389C178.434 263.945 177.645 263.45 176.884 262.908C176.608 262.709 176.332 262.51 176.055 262.289L175.82 262.101C175.161 261.588 174.532 261.03 173.938 260.432C173.621 260.134 173.324 259.835 173.027 259.526C172.566 259.031 172.006 258.656 171.391 258.429C170.775 258.203 170.12 258.131 169.475 258.22C168.83 258.308 168.212 258.555 167.668 258.94C167.124 259.325 166.669 259.839 166.337 260.443C166.131 260.823 165.944 261.214 165.774 261.615C165.408 262.51 165.309 263.507 165.492 264.466C165.676 265.425 166.132 266.298 166.797 266.963C168.097 268.234 169.486 269.394 170.951 270.434L171.657 270.931L172.434 271.439C172.802 271.671 173.171 271.903 173.549 272.124C173.928 272.346 174.572 272.71 175.084 272.975L176.025 273.451L177.314 274.047C177.672 274.202 178.03 274.357 178.398 274.489C178.766 274.622 178.92 274.699 179.196 274.788C179.472 274.876 179.779 275.009 180.065 275.097L181.324 275.506H181.467C181.574 275.541 181.683 275.567 181.794 275.584C182.628 275.745 183.488 275.638 184.266 275.277C185.044 274.915 185.707 274.315 186.173 273.55C186.192 273.522 186.209 273.493 186.224 273.462L186.285 273.384C186.289 273.359 186.289 273.333 186.285 273.307C186.346 273.196 186.398 273.086 186.449 272.975C186.731 272.37 186.889 271.705 186.911 271.028C186.933 270.35 186.818 269.675 186.575 269.05C186.332 268.425 185.966 267.864 185.503 267.406C185.039 266.949 184.489 266.605 183.891 266.4Z" fill="white"/>
<path d="M679.829 274.931L650.449 191.957H709.209L679.829 274.931Z" stroke="white" stroke-width="9" stroke-linecap="round" stroke-linejoin="round"/>
<path d="M574.738 188H572.621C572.07 188.014 571.527 188.146 571.023 188.387C570.52 188.628 570.065 188.974 569.685 189.405C569.305 189.836 569.007 190.344 568.809 190.899C568.61 191.454 568.515 192.046 568.529 192.642V273.759C568.515 274.354 568.61 274.946 568.809 275.501C569.007 276.057 569.305 276.564 569.685 276.995C570.065 277.426 570.52 277.772 571.023 278.013C571.527 278.255 572.07 278.386 572.621 278.4H574.738C575.29 278.387 575.833 278.257 576.337 278.016C576.842 277.776 577.297 277.43 577.678 276.999C578.058 276.567 578.355 276.059 578.553 275.503C578.751 274.947 578.845 274.354 578.83 273.759V192.642C578.845 192.046 578.751 191.453 578.553 190.897C578.355 190.341 578.058 189.833 577.678 189.402C577.297 188.97 576.842 188.624 576.337 188.384C575.833 188.143 575.29 188.013 574.738 188ZM621.335 278.4H623.565C624.116 278.386 624.659 278.255 625.162 278.013C625.666 277.772 626.121 277.426 626.501 276.995C626.881 276.564 627.179 276.057 627.377 275.501C627.575 274.946 627.67 274.354 627.657 273.759V192.642C627.67 192.046 627.575 191.454 627.377 190.899C627.179 190.344 626.881 189.836 626.501 189.405C626.121 188.974 625.666 188.628 625.162 188.387C624.659 188.146 624.116 188.014 623.565 188H621.335C620.783 188.013 620.24 188.143 619.736 188.384C619.231 188.624 618.776 188.97 618.395 189.402C618.015 189.833 617.718 190.341 617.52 190.897C617.322 191.453 617.228 192.046 617.243 192.642V273.759C617.221 274.359 617.31 274.957 617.505 275.52C617.699 276.082 617.996 276.597 618.377 277.034C618.758 277.472 619.216 277.823 619.723 278.067C620.231 278.311 620.779 278.443 621.335 278.456V278.4Z" fill="white"/>
<path d="M597.134 224.625C601.354 224.625 604.775 228.519 604.775 233.323C604.775 238.126 601.354 242.02 597.134 242.02C592.913 242.02 589.492 238.126 589.492 233.323C589.492 228.519 592.913 224.625 597.134 224.625Z" fill="white"/>
<path d="M538.996 277.353C534.496 279.06 529.751 279.89 524.982 279.806C509.525 279.806 499.264 269.86 499.264 256.344C499.264 246.553 504.451 239.911 513.238 235.092C513.913 234.717 514.609 234.352 515.335 233.987L516.593 233.379C517.176 233.114 517.759 232.86 518.353 232.617C518.946 232.374 519.58 232.108 520.225 231.865C521.299 231.412 522.271 230.97 523.294 230.517L523.601 230.373C524.392 229.974 525.272 229.826 526.138 229.947C527.004 230.068 527.82 230.454 528.49 231.059C528.603 231.158 528.715 231.28 528.828 231.401C528.941 231.523 529.063 231.677 529.176 231.81L529.503 232.241V232.296C529.906 232.896 530.184 233.581 530.319 234.307C530.453 235.033 530.442 235.782 530.284 236.503C530.127 237.223 529.828 237.899 529.407 238.483C528.986 239.067 528.454 239.547 527.846 239.889L527.058 240.253L525.422 240.961C524.399 241.381 523.468 241.8 522.578 242.22L521.555 242.685C520.849 243.027 520.163 243.37 519.509 243.712C518.216 244.386 516.965 245.15 515.765 246C511.652 249.028 509.606 252.498 509.606 257.626C509.606 263.527 513.698 270.578 524.593 270.578C528.437 270.581 532.249 269.832 535.846 268.368C536.359 268.159 536.907 268.063 537.456 268.087C538.004 268.111 538.543 268.255 539.039 268.508C539.535 268.762 539.98 269.121 540.345 269.564C540.71 270.007 540.989 270.525 541.165 271.087L541.38 271.772C541.73 272.854 541.678 274.042 541.233 275.083C540.788 276.124 539.986 276.938 538.996 277.353ZM545.676 217.576C545.676 218.217 545.574 218.847 545.503 219.466C545.503 219.466 545.503 219.466 545.503 219.543C545.372 220.549 545.184 221.546 544.94 222.527C544.037 223.147 543.04 223.589 541.994 223.831H541.84C541.737 223.865 541.631 223.887 541.523 223.897C541.288 223.897 541.053 223.975 540.807 223.997C540.531 224.013 540.254 224.013 539.978 223.997C539.777 224.008 539.576 224.008 539.375 223.997H539.14C538.49 223.893 537.867 223.651 537.306 223.284C536.744 222.917 536.257 222.433 535.871 221.859C535.485 221.286 535.209 220.635 535.059 219.945C534.909 219.255 534.887 218.54 534.997 217.841C535.173 216.791 535.259 215.725 535.252 214.658C535.258 213.251 535.086 211.849 534.741 210.492C534.41 209.211 533.899 207.992 533.227 206.878C530.618 202.568 525.575 199.916 518.619 199.916C513.71 199.966 508.862 201.094 504.369 203.231C503.84 203.481 503.267 203.608 502.69 203.602C502.112 203.596 501.542 203.458 501.017 203.197C500.493 202.936 500.025 202.558 499.645 202.087C499.265 201.617 498.982 201.065 498.814 200.468L498.589 199.695C498.297 198.664 498.364 197.555 498.777 196.574C499.189 195.593 499.919 194.808 500.829 194.368C506.251 191.963 512.052 190.717 517.913 190.699C531.099 190.699 539.508 196.401 543.334 204.425C543.725 205.24 544.067 206.081 544.357 206.944C544.388 207.016 544.416 207.09 544.439 207.165L544.623 207.74C544.715 208.038 544.797 208.337 544.878 208.635C544.922 208.765 544.956 208.898 544.981 209.033C545.052 209.298 545.114 209.564 545.165 209.84C545.165 209.84 545.165 209.906 545.165 209.939C545.226 210.205 545.277 210.47 545.318 210.735L545.41 211.299C545.629 212.712 545.738 214.143 545.738 215.576C545.738 216.272 545.717 216.924 545.676 217.576Z" fill="white"/>
<path d="M529.535 232.295V232.24L529.207 231.809C529.095 231.676 528.982 231.532 528.859 231.4C528.737 231.267 528.634 231.157 528.522 231.057C527.851 230.453 527.035 230.067 526.169 229.946C525.303 229.824 524.423 229.972 523.632 230.372L523.325 230.516C522.384 230.969 521.381 231.411 520.256 231.864C519.612 232.107 518.998 232.361 518.384 232.615C517.77 232.87 517.208 233.113 516.625 233.378C516.246 233.544 515.888 233.721 515.52 233.897L515.366 233.986C514.594 234.387 513.94 235.014 513.479 235.795C513.018 236.576 512.768 237.48 512.758 238.406C512.76 238.999 512.805 239.59 512.891 240.175C513.033 240.941 513.337 241.661 513.78 242.278C514.223 242.896 514.792 243.395 515.443 243.735C516.094 244.075 516.809 244.248 517.533 244.24C518.256 244.232 518.967 244.044 519.612 243.689C520.246 243.346 520.931 243.004 521.658 242.661L522.681 242.197C523.571 241.777 524.532 241.357 525.524 240.937L527.161 240.23L527.611 240.031L527.949 239.865C528.548 239.516 529.071 239.032 529.482 238.447C529.894 237.861 530.185 237.187 530.335 236.469C530.485 235.752 530.491 235.009 530.353 234.289C530.215 233.569 529.936 232.889 529.535 232.295Z" fill="white"/>
<path d="M545.736 215.629C545.736 214.196 545.627 212.766 545.409 211.352L545.317 210.789C545.276 210.523 545.225 210.258 545.163 209.993C545.163 209.993 545.163 209.927 545.163 209.893C545.163 209.617 545.051 209.352 544.979 209.087C544.955 208.951 544.92 208.818 544.877 208.689C544.795 208.39 544.713 208.092 544.621 207.794C544.529 207.495 544.539 207.517 544.498 207.385L544.437 207.219C544.414 207.144 544.387 207.07 544.355 206.998C543.991 206.073 543.389 205.28 542.62 204.714C541.851 204.148 540.948 203.832 540.018 203.804C539.68 203.804 539.332 203.804 538.995 203.859C538.287 203.946 537.605 204.197 536.995 204.594C536.386 204.991 535.862 205.526 535.461 206.162C535.06 206.798 534.791 207.519 534.672 208.278C534.552 209.036 534.586 209.813 534.77 210.557C535.115 211.914 535.287 213.315 535.281 214.723C535.288 215.79 535.202 216.856 535.026 217.906C534.916 218.605 534.938 219.32 535.088 220.01C535.238 220.7 535.514 221.351 535.9 221.924C536.285 222.497 536.773 222.982 537.335 223.349C537.896 223.716 538.519 223.958 539.169 224.061H539.404H539.741H540.007C540.283 224.078 540.56 224.078 540.836 224.061C541.082 224.061 541.317 224.006 541.552 223.962H541.654L541.869 223.907H542.023C542.927 223.632 543.739 223.081 544.361 222.32C544.983 221.56 545.39 220.622 545.531 219.619C545.531 219.619 545.531 219.563 545.531 219.541C545.603 218.922 545.664 218.292 545.705 217.652C545.746 217.011 545.736 216.27 545.736 215.629Z" fill="white"/>
<path d="M535.449 225.575C537.155 225.575 538.538 227.079 538.538 228.935C538.538 230.79 537.155 232.294 535.449 232.294C533.742 232.294 532.359 230.79 532.359 228.935C532.359 227.079 533.742 225.575 535.449 225.575Z" fill="white"/>
<path d="M6.20106 190.211H4.09373C3.54018 190.228 2.99519 190.363 2.48991 190.608C1.98463 190.853 1.52896 191.203 1.14894 191.638C0.768932 192.073 0.472023 192.585 0.275197 193.144C0.0783713 193.703 -0.0145183 194.299 0.0018391 194.897V276.677C-0.0145065 277.275 0.0784664 277.87 0.275416 278.428C0.472365 278.987 0.769422 279.498 1.14956 279.932C1.5297 280.367 1.98545 280.716 2.49067 280.959C2.99589 281.203 3.54065 281.336 4.09373 281.352H6.20106C7.31719 281.317 8.37496 280.806 9.14214 279.929C9.90933 279.053 10.3232 277.883 10.2929 276.677V194.897C10.3093 194.299 10.2164 193.703 10.0196 193.144C9.82276 192.585 9.52586 192.073 9.14584 191.638C8.76583 191.203 8.31016 190.853 7.80488 190.608C7.29959 190.363 6.75461 190.228 6.20106 190.211ZM52.8077 281.352H55.0275C55.5806 281.336 56.1254 281.203 56.6306 280.959C57.1358 280.716 57.5916 280.367 57.9717 279.932C58.3518 279.498 58.6489 278.987 58.8459 278.428C59.0428 277.87 59.1358 277.275 59.1194 276.677V194.897C59.1358 194.299 59.0429 193.703 58.8461 193.144C58.6492 192.585 58.3523 192.073 57.9723 191.638C57.5923 191.203 57.1366 190.853 56.6314 190.608C56.1261 190.363 55.5811 190.228 55.0275 190.211H52.8077C52.2541 190.228 51.7092 190.363 51.2039 190.608C50.6986 190.853 50.2429 191.203 49.8629 191.638C49.4829 192.073 49.186 192.585 48.9892 193.144C48.7923 193.703 48.6994 194.299 48.7158 194.897V276.677C48.6938 277.877 49.1113 279.038 49.8776 279.908C50.6439 280.777 51.697 281.284 52.8077 281.319V281.352Z" fill="white"/>
<path d="M28.6025 225.985C32.8229 225.985 36.2441 229.705 36.2441 234.295C36.2441 238.885 32.8229 242.606 28.6025 242.606C24.3822 242.606 20.9609 238.885 20.9609 234.295C20.9609 229.705 24.3822 225.985 28.6025 225.985Z" fill="white"/>
</g>
<g opacity="0.18">
<path d="M110.942 179.931L81.5625 100.273H140.332L110.942 179.931Z" stroke="white" stroke-width="9" stroke-linecap="round" stroke-linejoin="round"/>
<path d="M255.438 176.992L226.754 139.859" stroke="white" stroke-width="10" stroke-linecap="round" stroke-linejoin="bevel"/>
<path d="M255.98 102.008L226.754 139.859" stroke="white" stroke-width="10" stroke-linecap="round" stroke-linejoin="bevel"/>
<path d="M342.923 104.704C343.748 104.704 344.417 105.377 344.417 106.207C344.417 107.038 343.748 107.71 342.923 107.71C342.098 107.71 341.43 107.038 341.43 106.207C341.43 105.377 342.098 104.704 342.923 104.704Z" fill="white" stroke="white" stroke-width="10" stroke-linecap="round" stroke-linejoin="bevel"/>
<path d="M349.819 119.999C353.038 126.05 354.722 132.913 354.699 139.892C354.699 161.21 339.354 178.505 320.419 178.505C301.484 178.505 286.129 161.21 286.129 139.892C286.129 118.574 301.473 101.278 320.419 101.278C322.249 101.281 324.076 101.448 325.882 101.776" stroke="white" stroke-width="10" stroke-linecap="round" stroke-linejoin="bevel"/>
<path d="M429.353 174.118C422.397 181.323 411.901 185.114 397.16 185.114C391.043 185.112 384.934 184.68 378.869 183.821C377.872 183.674 376.959 183.136 376.306 182.308C375.653 181.48 375.305 180.421 375.33 179.334V148.257C375.299 146.946 375.72 145.67 376.509 144.674C377.299 143.678 378.402 143.033 379.606 142.864C379.872 142.864 380.148 142.864 380.424 142.864C380.728 142.866 381.032 142.884 381.335 142.92C382.533 143.093 383.629 143.739 384.415 144.732C385.2 145.725 385.618 146.996 385.59 148.302V171.056C385.59 172.14 385.947 173.188 386.598 174.012C387.248 174.837 388.15 175.383 389.14 175.554C391.954 175.918 394.786 176.095 397.62 176.085C419.328 176.085 429.936 162.823 429.823 142.035C429.823 130.089 426.836 120.717 421.097 114.33C413.937 106.428 403.901 105.013 400.372 104.77C396.178 104.494 392.27 104.45 392.27 104.45C389.416 104.45 386.562 104.24 383.708 104.262C379.831 104.262 377.509 104.439 376.179 102.67C375.735 102.064 375.443 101.345 375.33 100.582C375.305 99.4564 375.679 98.3634 376.374 97.5256C377.07 96.6877 378.036 96.1681 379.074 96.0728C383.411 95.6639 388.342 95.4318 393.968 95.4318C396.198 95.4318 398.357 95.5239 400.444 95.7081C412.842 96.8132 422.755 101.068 429.087 108.13C436.514 116.242 440.524 128.022 440.524 142.389C440.524 156.756 436.432 166.912 429.353 174.118Z" fill="white"/>
<path d="M470.579 180.583V99.5651C470.593 98.9706 470.497 98.379 470.299 97.8243C470.101 97.2696 469.803 96.7626 469.423 96.3324C469.043 95.9023 468.588 95.5574 468.084 95.3175C467.58 95.0776 467.037 94.9475 466.487 94.9346H464.39C463.84 94.9475 463.297 95.0776 462.793 95.3175C462.29 95.5574 461.835 95.9023 461.455 96.3324C461.074 96.7626 460.777 97.2696 460.578 97.8243C460.38 98.379 460.285 98.9706 460.298 99.5651V180.583C460.273 181.783 460.69 182.944 461.458 183.812C462.225 184.681 463.279 185.184 464.39 185.213H466.497C467.606 185.182 468.658 184.676 469.423 183.809C470.188 182.941 470.604 181.781 470.579 180.583Z" fill="white"/>
<path d="M200.198 171.598C203.508 171.598 206.192 174.517 206.192 178.118C206.192 181.719 203.508 184.638 200.198 184.638C196.887 184.638 194.203 181.719 194.203 178.118C194.203 174.517 196.887 171.598 200.198 171.598Z" fill="white"/>
<path d="M207.48 99.8969L207.429 100.173C207.347 100.742 207.156 101.286 206.869 101.771C206.582 102.256 206.205 102.672 205.762 102.992C205.319 103.311 204.819 103.528 204.294 103.629C203.77 103.73 203.231 103.712 202.713 103.577C198.771 102.529 194.705 102.131 190.652 102.394C172.444 103.5 162.603 117.712 163.697 138.864C164.178 148.059 166.49 155.519 170.244 161.077C171.073 162.313 171.989 163.477 172.986 164.559C173.282 164.868 173.579 165.166 173.896 165.465C174.496 166.057 175.124 166.614 175.778 167.134L176.014 167.321C176.29 167.542 176.566 167.741 176.842 167.94C177.603 168.483 178.392 168.977 179.205 169.421C179.492 169.587 179.809 169.753 180.116 169.907L180.392 170.04C180.75 170.217 181.108 170.372 181.415 170.526C181.722 170.681 182.244 170.869 182.653 171.024L183.85 171.432C184.457 171.633 185.017 171.975 185.489 172.435C185.961 172.895 186.333 173.461 186.58 174.094C186.827 174.726 186.942 175.41 186.918 176.096C186.893 176.782 186.729 177.453 186.438 178.063C186.438 178.174 186.335 178.284 186.274 178.395C186.248 178.45 186.218 178.502 186.182 178.55C186.167 178.581 186.15 178.61 186.131 178.638C185.665 179.403 185.003 180.003 184.224 180.365C183.446 180.726 182.587 180.833 181.753 180.671L181.282 180.55L180.024 180.141C179.737 180.053 179.441 179.953 179.154 179.832C178.868 179.71 178.612 179.633 178.356 179.533C178.101 179.434 177.63 179.246 177.272 179.091L175.983 178.494L175.042 178.019C174.52 177.754 174.019 177.478 173.507 177.168C172.996 176.859 172.761 176.715 172.392 176.483L171.615 175.975L170.909 175.477C169.444 174.438 168.056 173.278 166.756 172.007C166.091 171.355 165.446 170.67 164.812 169.963C158.214 162.481 154.112 151.872 153.447 139.118C151.974 110.838 167.052 94.5038 188.146 93.2108C193.681 92.785 199.243 93.3072 204.626 94.758C205.603 95.086 206.434 95.7913 206.961 96.7391C207.487 97.687 207.672 98.8111 207.48 99.8969Z" fill="white"/>
<path d="M183.891 171.4L182.694 170.991C182.285 170.836 181.866 170.67 181.457 170.494C181.047 170.317 180.751 170.184 180.434 170.007L180.157 169.875C179.851 169.72 179.533 169.554 179.247 169.389C178.434 168.945 177.645 168.45 176.884 167.908C176.608 167.709 176.332 167.51 176.055 167.289L175.82 167.101C175.161 166.588 174.532 166.03 173.938 165.432C173.621 165.134 173.324 164.835 173.027 164.526C172.566 164.031 172.006 163.656 171.391 163.429C170.775 163.203 170.12 163.131 169.475 163.22C168.83 163.308 168.212 163.555 167.668 163.94C167.124 164.325 166.669 164.839 166.337 165.443C166.131 165.823 165.944 166.214 165.774 166.615C165.408 167.51 165.309 168.507 165.492 169.466C165.676 170.425 166.132 171.298 166.797 171.963C168.097 173.234 169.486 174.394 170.951 175.434L171.657 175.931L172.434 176.439C172.802 176.671 173.171 176.903 173.549 177.124C173.928 177.346 174.572 177.71 175.084 177.975L176.025 178.451L177.314 179.047C177.672 179.202 178.03 179.357 178.398 179.489C178.766 179.622 178.92 179.699 179.196 179.788C179.472 179.876 179.779 180.009 180.065 180.097L181.324 180.506H181.467C181.574 180.541 181.683 180.567 181.794 180.584C182.628 180.745 183.488 180.638 184.266 180.277C185.044 179.915 185.707 179.315 186.173 178.55C186.192 178.522 186.209 178.493 186.224 178.462L186.285 178.384C186.289 178.359 186.289 178.333 186.285 178.307C186.346 178.196 186.398 178.086 186.449 177.975C186.731 177.37 186.889 176.705 186.911 176.028C186.933 175.35 186.818 174.675 186.575 174.05C186.332 173.425 185.966 172.864 185.503 172.406C185.039 171.949 184.489 171.605 183.891 171.4Z" fill="white"/>
<path d="M679.829 179.931L650.449 96.9573H709.209L679.829 179.931Z" stroke="white" stroke-width="9" stroke-linecap="round" stroke-linejoin="round"/>
<path d="M574.738 93H572.621C572.07 93.0143 571.527 93.1457 571.023 93.3868C570.52 93.6279 570.065 93.9738 569.685 94.4048C569.305 94.8359 569.007 95.3436 568.809 95.899C568.61 96.4543 568.515 97.0465 568.529 97.6416V178.759C568.515 179.354 568.61 179.946 568.809 180.501C569.007 181.057 569.305 181.564 569.685 181.995C570.065 182.426 570.52 182.772 571.023 183.013C571.527 183.255 572.07 183.386 572.621 183.4H574.738C575.29 183.387 575.833 183.257 576.337 183.016C576.842 182.776 577.297 182.43 577.678 181.999C578.058 181.567 578.355 181.059 578.553 180.503C578.751 179.947 578.845 179.354 578.83 178.759V97.6416C578.845 97.0461 578.751 96.4533 578.553 95.8973C578.355 95.3413 578.058 94.833 577.678 94.4016C577.297 93.9703 576.842 93.6244 576.337 93.3839C575.833 93.1433 575.29 93.0128 574.738 93ZM621.335 183.4H623.565C624.116 183.386 624.659 183.255 625.162 183.013C625.666 182.772 626.121 182.426 626.501 181.995C626.881 181.564 627.179 181.057 627.377 180.501C627.575 179.946 627.67 179.354 627.657 178.759V97.6416C627.67 97.0465 627.575 96.4543 627.377 95.899C627.179 95.3436 626.881 94.8359 626.501 94.4048C626.121 93.9738 625.666 93.6279 625.162 93.3868C624.659 93.1457 624.116 93.0143 623.565 93H621.335C620.783 93.0128 620.24 93.1433 619.736 93.3839C619.231 93.6244 618.776 93.9703 618.395 94.4016C618.015 94.833 617.718 95.3413 617.52 95.8973C617.322 96.4533 617.228 97.0461 617.243 97.6416V178.759C617.221 179.359 617.31 179.957 617.505 180.52C617.699 181.082 617.996 181.597 618.377 182.034C618.758 182.472 619.216 182.823 619.723 183.067C620.231 183.311 620.779 183.443 621.335 183.456V183.4Z" fill="white"/>
<path d="M597.134 129.625C601.354 129.625 604.775 133.519 604.775 138.323C604.775 143.126 601.354 147.02 597.134 147.02C592.913 147.02 589.492 143.126 589.492 138.323C589.492 133.519 592.913 129.625 597.134 129.625Z" fill="white"/>
<path d="M538.996 182.353C534.496 184.06 529.751 184.89 524.982 184.806C509.525 184.806 499.264 174.86 499.264 161.344C499.264 151.553 504.451 144.911 513.238 140.092C513.913 139.717 514.609 139.352 515.335 138.987L516.593 138.379C517.176 138.114 517.759 137.86 518.353 137.617C518.946 137.374 519.58 137.108 520.225 136.865C521.299 136.412 522.271 135.97 523.294 135.517L523.601 135.373C524.392 134.974 525.272 134.826 526.138 134.947C527.004 135.068 527.82 135.454 528.49 136.059C528.603 136.158 528.715 136.28 528.828 136.401C528.941 136.523 529.063 136.677 529.176 136.81L529.503 137.241V137.296C529.906 137.896 530.184 138.581 530.319 139.307C530.453 140.033 530.442 140.782 530.284 141.503C530.127 142.223 529.828 142.899 529.407 143.483C528.986 144.067 528.454 144.547 527.846 144.889L527.058 145.253L525.422 145.961C524.399 146.381 523.468 146.8 522.578 147.22L521.555 147.685C520.849 148.027 520.163 148.37 519.509 148.712C518.216 149.386 516.965 150.15 515.765 151C511.652 154.028 509.606 157.498 509.606 162.626C509.606 168.527 513.698 175.578 524.593 175.578C528.437 175.581 532.249 174.832 535.846 173.368C536.359 173.159 536.907 173.063 537.456 173.087C538.004 173.111 538.543 173.255 539.039 173.508C539.535 173.762 539.98 174.121 540.345 174.564C540.71 175.007 540.989 175.525 541.165 176.087L541.38 176.772C541.73 177.854 541.678 179.042 541.233 180.083C540.788 181.124 539.986 181.938 538.996 182.353ZM545.676 122.576C545.676 123.217 545.574 123.847 545.503 124.466C545.503 124.466 545.503 124.466 545.503 124.543C545.372 125.549 545.184 126.546 544.94 127.527C544.037 128.147 543.04 128.589 541.994 128.831H541.84C541.737 128.865 541.631 128.887 541.523 128.897C541.288 128.897 541.053 128.975 540.807 128.997C540.531 129.013 540.254 129.013 539.978 128.997C539.777 129.008 539.576 129.008 539.375 128.997H539.14C538.49 128.893 537.867 128.651 537.306 128.284C536.744 127.917 536.257 127.433 535.871 126.859C535.485 126.286 535.209 125.635 535.059 124.945C534.909 124.255 534.887 123.54 534.997 122.841C535.173 121.791 535.259 120.725 535.252 119.658C535.258 118.251 535.086 116.849 534.741 115.492C534.41 114.211 533.899 112.992 533.227 111.878C530.618 107.568 525.575 104.916 518.619 104.916C513.71 104.966 508.862 106.094 504.369 108.231C503.84 108.481 503.267 108.608 502.69 108.602C502.112 108.596 501.542 108.458 501.017 108.197C500.493 107.936 500.025 107.558 499.645 107.087C499.265 106.617 498.982 106.065 498.814 105.468L498.589 104.695C498.297 103.664 498.364 102.555 498.777 101.574C499.189 100.593 499.919 99.8084 500.829 99.3679C506.251 96.963 512.052 95.717 517.913 95.6989C531.099 95.6989 539.508 101.401 543.334 109.425C543.725 110.24 544.067 111.081 544.357 111.944C544.388 112.016 544.416 112.09 544.439 112.165L544.623 112.74C544.715 113.038 544.797 113.337 544.878 113.635C544.922 113.765 544.956 113.898 544.981 114.033C545.052 114.298 545.114 114.564 545.165 114.84C545.165 114.84 545.165 114.906 545.165 114.939C545.226 115.205 545.277 115.47 545.318 115.735L545.41 116.299C545.629 117.712 545.738 119.143 545.738 120.576C545.738 121.272 545.717 121.924 545.676 122.576Z" fill="white"/>
<path d="M529.535 137.295V137.24L529.207 136.809C529.095 136.676 528.982 136.532 528.859 136.4C528.737 136.267 528.634 136.157 528.522 136.057C527.851 135.453 527.035 135.067 526.169 134.946C525.303 134.824 524.423 134.972 523.632 135.372L523.325 135.516C522.384 135.969 521.381 136.411 520.256 136.864C519.612 137.107 518.998 137.361 518.384 137.615C517.77 137.87 517.208 138.113 516.625 138.378C516.246 138.544 515.888 138.721 515.52 138.897L515.366 138.986C514.594 139.387 513.94 140.014 513.479 140.795C513.018 141.576 512.768 142.48 512.758 143.406C512.76 143.999 512.805 144.59 512.891 145.175C513.033 145.941 513.337 146.661 513.78 147.278C514.223 147.896 514.792 148.395 515.443 148.735C516.094 149.075 516.809 149.248 517.533 149.24C518.256 149.232 518.967 149.044 519.612 148.689C520.246 148.346 520.931 148.004 521.658 147.661L522.681 147.197C523.571 146.777 524.532 146.357 525.524 145.937L527.161 145.23L527.611 145.031L527.949 144.865C528.548 144.516 529.071 144.032 529.482 143.447C529.894 142.861 530.185 142.187 530.335 141.469C530.485 140.752 530.491 140.009 530.353 139.289C530.215 138.569 529.936 137.889 529.535 137.295Z" fill="white"/>
<path d="M545.736 120.629C545.736 119.196 545.627 117.766 545.409 116.352L545.317 115.789C545.276 115.523 545.225 115.258 545.163 114.993C545.163 114.993 545.163 114.927 545.163 114.893C545.163 114.617 545.051 114.352 544.979 114.087C544.955 113.951 544.92 113.818 544.877 113.689C544.795 113.39 544.713 113.092 544.621 112.794C544.529 112.495 544.539 112.517 544.498 112.385L544.437 112.219C544.414 112.144 544.387 112.07 544.355 111.998C543.991 111.073 543.389 110.28 542.62 109.714C541.851 109.148 540.948 108.832 540.018 108.804C539.68 108.804 539.332 108.804 538.995 108.859C538.287 108.946 537.605 109.197 536.995 109.594C536.386 109.991 535.862 110.526 535.461 111.162C535.06 111.798 534.791 112.519 534.672 113.278C534.552 114.036 534.586 114.813 534.77 115.557C535.115 116.914 535.287 118.315 535.281 119.723C535.288 120.79 535.202 121.856 535.026 122.906C534.916 123.605 534.938 124.32 535.088 125.01C535.238 125.7 535.514 126.351 535.9 126.924C536.285 127.497 536.773 127.982 537.335 128.349C537.896 128.716 538.519 128.958 539.169 129.061H539.404H539.741H540.007C540.283 129.078 540.56 129.078 540.836 129.061C541.082 129.061 541.317 129.006 541.552 128.962H541.654L541.869 128.907H542.023C542.927 128.632 543.739 128.081 544.361 127.32C544.983 126.56 545.39 125.622 545.531 124.619C545.531 124.619 545.531 124.563 545.531 124.541C545.603 123.922 545.664 123.292 545.705 122.652C545.746 122.011 545.736 121.27 545.736 120.629Z" fill="white"/>
<path d="M535.449 130.575C537.155 130.575 538.538 132.079 538.538 133.935C538.538 135.79 537.155 137.294 535.449 137.294C533.742 137.294 532.359 135.79 532.359 133.935C532.359 132.079 533.742 130.575 535.449 130.575Z" fill="white"/>
<path d="M6.20106 95.2113H4.09373C3.54018 95.2284 2.99519 95.3633 2.48991 95.6081C1.98463 95.8529 1.52896 96.2029 1.14894 96.6381C0.768932 97.0732 0.472023 97.5851 0.275197 98.1443C0.0783713 98.7035 -0.0145183 99.299 0.0018391 99.897V181.677C-0.0145065 182.275 0.0784664 182.87 0.275416 183.428C0.472365 183.987 0.769422 184.498 1.14956 184.932C1.5297 185.367 1.98545 185.716 2.49067 185.959C2.99589 186.203 3.54065 186.336 4.09373 186.352H6.20106C7.31719 186.317 8.37496 185.806 9.14214 184.929C9.90933 184.053 10.3232 182.883 10.2929 181.677V99.897C10.3093 99.299 10.2164 98.7035 10.0196 98.1443C9.82276 97.5851 9.52586 97.0732 9.14584 96.6381C8.76583 96.2029 8.31016 95.8529 7.80488 95.6081C7.29959 95.3633 6.75461 95.2284 6.20106 95.2113ZM52.8077 186.352H55.0275C55.5806 186.336 56.1254 186.203 56.6306 185.959C57.1358 185.716 57.5916 185.367 57.9717 184.932C58.3518 184.498 58.6489 183.987 58.8459 183.428C59.0428 182.87 59.1358 182.275 59.1194 181.677V99.897C59.1358 99.299 59.0429 98.7035 58.8461 98.1443C58.6492 97.5851 58.3523 97.0732 57.9723 96.6381C57.5923 96.2029 57.1366 95.8529 56.6314 95.6081C56.1261 95.3633 55.5811 95.2284 55.0275 95.2113H52.8077C52.2541 95.2284 51.7092 95.3633 51.2039 95.6081C50.6986 95.8529 50.2429 96.2029 49.8629 96.6381C49.4829 97.0732 49.186 97.5851 48.9892 98.1443C48.7923 98.7035 48.6994 99.299 48.7158 99.897V181.677C48.6938 182.877 49.1113 184.038 49.8776 184.908C50.6439 185.777 51.697 186.284 52.8077 186.319V186.352Z" fill="white"/>
<path d="M28.6025 130.985C32.8229 130.985 36.2441 134.705 36.2441 139.295C36.2441 143.885 32.8229 147.606 28.6025 147.606C24.3822 147.606 20.9609 143.885 20.9609 139.295C20.9609 134.705 24.3822 130.985 28.6025 130.985Z" fill="white"/>
</g>
<g opacity="0.3">
<path d="M110.942 87.9312L81.5625 8.27276H140.332L110.942 87.9312Z" stroke="white" stroke-width="9" stroke-linecap="round" stroke-linejoin="round"/>
<path d="M255.438 84.9917L226.754 47.859" stroke="white" stroke-width="10" stroke-linecap="round" stroke-linejoin="bevel"/>
<path d="M255.98 10.0079L226.754 47.8589" stroke="white" stroke-width="10" stroke-linecap="round" stroke-linejoin="bevel"/>
<path d="M342.923 12.7045C343.748 12.7045 344.417 13.3774 344.417 14.2075C344.417 15.0375 343.748 15.7104 342.923 15.7104C342.098 15.7104 341.43 15.0375 341.43 14.2075C341.43 13.3774 342.098 12.7045 342.923 12.7045Z" fill="white" stroke="white" stroke-width="10" stroke-linecap="round" stroke-linejoin="bevel"/>
<path d="M349.819 27.9993C353.038 34.0505 354.722 40.9126 354.699 47.8918C354.699 69.21 339.354 86.5054 320.419 86.5054C301.484 86.5054 286.129 69.21 286.129 47.8918C286.129 26.5737 301.473 9.27828 320.419 9.27828C322.249 9.28142 324.076 9.44776 325.882 9.77561" stroke="white" stroke-width="10" stroke-linecap="round" stroke-linejoin="bevel"/>
<path d="M429.353 82.1176C422.397 89.3231 411.901 93.1138 397.16 93.1138C391.043 93.1118 384.934 92.6799 378.869 91.8207C377.872 91.6742 376.959 91.1356 376.306 90.3078C375.653 89.48 375.305 88.4212 375.33 87.3339V56.2574C375.299 54.9465 375.72 53.6698 376.509 52.6739C377.299 51.678 378.402 51.0333 379.606 50.8643C379.872 50.8643 380.148 50.8643 380.424 50.8643C380.728 50.8659 381.032 50.8844 381.335 50.9196C382.533 51.0934 383.629 51.7386 384.415 52.7317C385.2 53.7248 385.618 54.9959 385.59 56.3016V79.0564C385.59 80.1398 385.947 81.1878 386.598 82.0122C387.248 82.8366 388.15 83.3834 389.14 83.5543C391.954 83.9182 394.786 84.0953 397.62 84.0848C419.328 84.0848 429.936 70.8231 429.823 50.0355C429.823 38.0889 426.836 28.7173 421.097 22.3296C413.937 14.4279 403.901 13.0133 400.372 12.7702C396.178 12.4939 392.27 12.4497 392.27 12.4497C389.416 12.4497 386.562 12.2397 383.708 12.2618C379.831 12.2618 377.509 12.4387 376.179 10.6704C375.735 10.0641 375.443 9.34492 375.33 8.58171C375.305 7.45644 375.679 6.36344 376.374 5.52558C377.07 4.68772 378.036 4.16812 379.074 4.07276C383.411 3.66386 388.342 3.43179 393.968 3.43179C396.198 3.43179 398.357 3.52389 400.444 3.70808C412.842 4.81322 422.755 9.06799 429.087 16.1298C436.514 24.2415 440.524 36.0223 440.524 50.3891C440.524 64.7559 436.432 74.9121 429.353 82.1176Z" fill="white"/>
<path d="M470.579 88.5828V7.56514C470.593 6.97061 470.497 6.37904 470.299 5.8243C470.101 5.26957 469.803 4.76259 469.423 4.33242C469.043 3.90226 468.588 3.55737 468.084 3.3175C467.58 3.07764 467.037 2.94752 466.487 2.93461H464.39C463.84 2.94752 463.297 3.07764 462.793 3.3175C462.29 3.55737 461.835 3.90226 461.455 4.33242C461.074 4.76259 460.777 5.26957 460.578 5.8243C460.38 6.37904 460.285 6.97061 460.298 7.56514V88.5828C460.273 89.7828 460.69 90.9443 461.458 91.8124C462.225 92.6806 463.279 93.1844 464.39 93.2134H466.497C467.606 93.1815 468.658 92.6764 469.423 91.8086C470.188 90.9408 470.604 89.7809 470.579 88.5828Z" fill="white"/>
<path d="M200.198 79.5976C203.508 79.5976 206.192 82.5168 206.192 86.1179C206.192 89.7189 203.508 92.6382 200.198 92.6382C196.887 92.6382 194.203 89.7189 194.203 86.1179C194.203 82.5168 196.887 79.5976 200.198 79.5976Z" fill="white"/>
<path d="M207.48 7.89687L207.429 8.17316C207.347 8.7419 207.156 9.28599 206.869 9.77106C206.582 10.2561 206.205 10.6717 205.762 10.9915C205.319 11.3113 204.819 11.5285 204.294 11.6292C203.77 11.73 203.231 11.7122 202.713 11.577C198.771 10.5294 194.705 10.1307 190.652 10.3945C172.444 11.4996 162.603 25.7117 163.697 46.8641C164.178 56.0588 166.49 63.5185 170.244 69.0774C171.073 70.3132 171.989 71.4771 172.986 72.5585C173.282 72.868 173.579 73.1664 173.896 73.4648C174.496 74.0567 175.124 74.6137 175.778 75.1335L176.014 75.3214C176.29 75.5424 176.566 75.7413 176.842 75.9403C177.603 76.4827 178.392 76.9771 179.205 77.4211C179.492 77.5869 179.809 77.7527 180.116 77.9074L180.392 78.04C180.75 78.2169 181.108 78.3716 181.415 78.5263C181.722 78.681 182.244 78.8689 182.653 79.0236L183.85 79.4325C184.457 79.6329 185.017 79.9751 185.489 80.435C185.961 80.8948 186.333 81.461 186.58 82.0936C186.827 82.7261 186.942 83.4096 186.918 84.0956C186.893 84.7815 186.729 85.4533 186.438 86.0633C186.438 86.1738 186.335 86.2844 186.274 86.3949C186.248 86.4498 186.218 86.5016 186.182 86.5496C186.167 86.5806 186.15 86.6101 186.131 86.638C185.665 87.4028 185.003 88.0031 184.224 88.3646C183.446 88.726 182.587 88.8328 181.753 88.6715L181.282 88.5499L180.024 88.141C179.737 88.0526 179.441 87.9531 179.154 87.8316C178.868 87.71 178.612 87.6326 178.356 87.5332C178.101 87.4337 177.63 87.2458 177.272 87.0911L175.983 86.4943L175.042 86.0191C174.52 85.7539 174.019 85.4776 173.507 85.1682C172.996 84.8587 172.761 84.7151 172.392 84.483L171.615 83.9746L170.909 83.4773C169.444 82.4377 168.056 81.2776 166.756 80.0072C166.091 79.3551 165.446 78.67 164.812 77.9627C158.214 70.4809 154.112 59.8716 153.447 47.1183C151.974 18.8378 167.052 2.50381 188.146 1.2108C193.681 0.785042 199.243 1.30721 204.626 2.75798C205.603 3.08601 206.434 3.79126 206.961 4.73913C207.487 5.687 207.672 6.8111 207.48 7.89687Z" fill="white"/>
<path d="M183.891 79.3999L182.694 78.991C182.285 78.8363 181.866 78.6705 181.457 78.4936C181.047 78.3168 180.751 78.1842 180.434 78.0074L180.157 77.8748C179.851 77.7201 179.533 77.5543 179.247 77.3885C178.434 76.9445 177.645 76.4501 176.884 75.9076C176.608 75.7087 176.332 75.5098 176.055 75.2888L175.82 75.1009C175.161 74.5879 174.532 74.0305 173.938 73.4321C173.621 73.1337 173.324 72.8353 173.027 72.5259C172.566 72.0308 172.006 71.6558 171.391 71.4295C170.775 71.2031 170.12 71.1315 169.475 71.2199C168.83 71.3084 168.212 71.5546 167.668 71.9398C167.124 72.3251 166.669 72.8392 166.337 73.4432C166.131 73.8231 165.944 74.2141 165.774 74.6146C165.408 75.5101 165.309 76.5071 165.492 77.4662C165.676 78.4253 166.132 79.2984 166.797 79.9635C168.097 81.2339 169.486 82.394 170.951 83.4336L171.657 83.9309L172.434 84.4393C172.802 84.6714 173.171 84.9035 173.549 85.1245C173.928 85.3455 174.572 85.7102 175.084 85.9754L176.025 86.4507L177.314 87.0474C177.672 87.2021 178.03 87.3569 178.398 87.4895C178.766 87.6221 178.92 87.6995 179.196 87.7879C179.472 87.8763 179.779 88.0089 180.065 88.0973L181.324 88.5062H181.467C181.574 88.5413 181.683 88.5672 181.794 88.5836C182.628 88.7449 183.488 88.6382 184.266 88.2767C185.044 87.9152 185.707 87.3149 186.173 86.5501C186.192 86.5223 186.209 86.4927 186.224 86.4617L186.285 86.3843C186.289 86.3587 186.289 86.3326 186.285 86.307C186.346 86.1965 186.398 86.086 186.449 85.9754C186.731 85.37 186.889 84.7054 186.911 84.0277C186.933 83.3499 186.818 82.6752 186.575 82.05C186.332 81.4248 185.966 80.864 185.503 80.4065C185.039 79.9489 184.489 79.6055 183.891 79.3999Z" fill="white"/>
<path d="M679.829 87.9312L650.449 4.95734H709.209L679.829 87.9312Z" stroke="white" stroke-width="9" stroke-linecap="round" stroke-linejoin="round"/>
<path d="M574.738 0.999962H572.621C572.07 1.0143 571.527 1.14574 571.023 1.3868C570.52 1.62785 570.065 1.97378 569.685 2.40482C569.305 2.83587 569.007 3.34359 568.809 3.89896C568.61 4.45432 568.515 5.04649 568.529 5.64156V86.7587C568.515 87.3538 568.61 87.9459 568.809 88.5013C569.007 89.0567 569.305 89.5644 569.685 89.9954C570.065 90.4265 570.52 90.7724 571.023 91.0135C571.527 91.2545 572.07 91.386 572.621 91.4003H574.738C575.29 91.3874 575.833 91.2569 576.337 91.0164C576.842 90.7758 577.297 90.4299 577.678 89.9986C578.058 89.5673 578.355 89.059 578.553 88.5029C578.751 87.9469 578.845 87.3542 578.83 86.7587V5.64156C578.845 5.04611 578.751 4.45332 578.553 3.89731C578.355 3.34129 578.058 2.833 577.678 2.40165C577.297 1.97031 576.842 1.62442 576.337 1.38387C575.833 1.14331 575.29 1.01285 574.738 0.999962ZM621.335 91.4003H623.565C624.116 91.386 624.659 91.2545 625.162 91.0135C625.666 90.7724 626.121 90.4265 626.501 89.9954C626.881 89.5644 627.179 89.0567 627.377 88.5013C627.575 87.9459 627.67 87.3538 627.657 86.7587V5.64156C627.67 5.04649 627.575 4.45432 627.377 3.89896C627.179 3.34359 626.881 2.83587 626.501 2.40482C626.121 1.97378 625.666 1.62785 625.162 1.3868C624.659 1.14574 624.116 1.0143 623.565 0.999962H621.335C620.783 1.01285 620.24 1.14331 619.736 1.38387C619.231 1.62442 618.776 1.97031 618.395 2.40165C618.015 2.833 617.718 3.34129 617.52 3.89731C617.322 4.45332 617.228 5.04611 617.243 5.64156V86.7587C617.221 87.3587 617.31 87.9574 617.505 88.5199C617.699 89.0823 617.996 89.5972 618.377 90.0344C618.758 90.4717 619.216 90.8226 619.723 91.0666C620.231 91.3106 620.779 91.4428 621.335 91.4556V91.4003Z" fill="white"/>
<path d="M597.134 37.6251C601.354 37.6251 604.775 41.5191 604.775 46.3226C604.775 51.126 601.354 55.02 597.134 55.02C592.913 55.02 589.492 51.126 589.492 46.3226C589.492 41.5191 592.913 37.6251 597.134 37.6251Z" fill="white"/>
<path d="M538.996 90.3528C534.496 92.0598 529.751 92.8905 524.982 92.8062C509.525 92.8062 499.264 82.8599 499.264 69.3441C499.264 59.5526 504.451 52.9107 513.238 48.0923C513.913 47.7165 514.609 47.3518 515.335 46.9871L516.593 46.3793C517.176 46.1141 517.759 45.8599 518.353 45.6168C518.946 45.3736 519.58 45.1084 520.225 44.8653C521.299 44.4122 522.271 43.9701 523.294 43.517L523.601 43.3733C524.392 42.9735 525.272 42.8256 526.138 42.947C527.004 43.0684 527.82 43.4539 528.49 44.0585C528.603 44.158 528.715 44.2795 528.828 44.4011C528.941 44.5227 529.063 44.6774 529.176 44.81L529.503 45.241V45.2963C529.906 45.8955 530.184 46.5815 530.319 47.3073C530.453 48.0332 530.442 48.782 530.284 49.5025C530.127 50.2231 529.828 50.8986 529.407 51.4829C528.986 52.0673 528.454 52.5467 527.846 52.8886L527.058 53.2533L525.422 53.9606C524.399 54.3805 523.468 54.8005 522.578 55.2204L521.555 55.6846C520.849 56.0272 520.163 56.3698 519.509 56.7124C518.216 57.3856 516.965 58.1498 515.765 59C511.652 62.0281 509.606 65.4982 509.606 70.626C509.606 76.5275 513.698 83.5783 524.593 83.5783C528.437 83.5812 532.249 82.8323 535.846 81.368C536.359 81.1587 536.907 81.0633 537.456 81.0874C538.004 81.1115 538.543 81.2546 539.039 81.5083C539.535 81.762 539.98 82.121 540.345 82.564C540.71 83.0069 540.989 83.5247 541.165 84.0866L541.38 84.7718C541.73 85.8544 541.678 87.0417 541.233 88.083C540.788 89.1244 539.986 89.9383 538.996 90.3528ZM545.676 30.5758C545.676 31.2168 545.574 31.8467 545.503 32.4656C545.503 32.4656 545.503 32.4656 545.503 32.543C545.372 33.5492 545.184 34.5457 544.94 35.5268C544.037 36.1472 543.04 36.5888 541.994 36.8309H541.84C541.737 36.8646 541.631 36.8868 541.523 36.8972C541.288 36.8972 541.053 36.9746 540.807 36.9967C540.531 37.0132 540.254 37.0132 539.978 36.9967C539.777 37.0077 539.576 37.0077 539.375 36.9967H539.14C538.49 36.8933 537.867 36.651 537.306 36.2841C536.744 35.9171 536.257 35.4327 535.871 34.8595C535.485 34.2862 535.209 33.6354 535.059 32.9454C534.909 32.2554 534.887 31.54 534.997 30.8411C535.173 29.791 535.259 28.7255 535.252 27.6583C535.258 26.2508 535.086 24.8491 534.741 23.4919C534.41 22.211 533.899 20.9923 533.227 19.8781C530.618 15.568 525.575 12.9157 518.619 12.9157C513.71 12.9657 508.862 14.0937 504.369 16.2311C503.84 16.4813 503.267 16.6075 502.69 16.6016C502.112 16.5956 501.542 16.4576 501.017 16.1966C500.493 15.9356 500.025 15.5576 499.645 15.0873C499.265 14.6171 498.982 14.0653 498.814 13.4683L498.589 12.6947C498.297 11.6644 498.364 10.5545 498.777 9.57362C499.189 8.59273 499.919 7.80836 500.829 7.36793C506.251 4.96304 512.052 3.717 517.913 3.69886C531.099 3.69886 539.508 9.40135 543.334 17.4247C543.725 18.2397 544.067 19.0814 544.357 19.9444C544.388 20.0161 544.416 20.0899 544.439 20.1654L544.623 20.7401C544.715 21.0385 544.797 21.3369 544.878 21.6353C544.922 21.7648 544.956 21.8978 544.981 22.0331C545.052 22.2983 545.114 22.5636 545.165 22.8399C545.165 22.8399 545.165 22.9062 545.165 22.9393C545.226 23.2046 545.277 23.4698 545.318 23.735L545.41 24.2986C545.629 25.7121 545.738 27.1426 545.738 28.5755C545.738 29.2718 545.717 29.9238 545.676 30.5758Z" fill="white"/>
<path d="M529.535 45.295V45.2397L529.207 44.8087C529.095 44.6761 528.982 44.5324 528.859 44.3998C528.737 44.2672 528.634 44.1567 528.522 44.0572C527.851 43.4526 527.035 43.0671 526.169 42.9457C525.303 42.8243 524.423 42.9722 523.632 43.372L523.325 43.5157C522.384 43.9688 521.381 44.4109 520.256 44.864C519.612 45.1071 518.998 45.3613 518.384 45.6155C517.77 45.8696 517.208 46.1128 516.625 46.378C516.246 46.5438 515.888 46.7206 515.52 46.8974L515.366 46.9858C514.594 47.3871 513.94 48.0136 513.479 48.7946C513.018 49.5756 512.768 50.4802 512.758 51.4064C512.76 51.9986 512.805 52.5897 512.891 53.1746C513.033 53.9406 513.337 54.6607 513.78 55.2784C514.223 55.8961 514.792 56.3947 515.443 56.7351C516.094 57.0755 516.809 57.2485 517.533 57.2405C518.256 57.2324 518.967 57.0437 519.612 56.689C520.246 56.3464 520.931 56.0038 521.658 55.6612L522.681 55.197C523.571 54.7771 524.532 54.3571 525.524 53.9371L527.161 53.2299L527.611 53.0309L527.949 52.8652C528.548 52.516 529.071 52.0323 529.482 51.4465C529.894 50.8608 530.185 50.1867 530.335 49.4695C530.485 48.7523 530.491 48.0086 530.353 47.2886C530.215 46.5685 529.936 45.8887 529.535 45.295Z" fill="white"/>
<path d="M545.736 28.6291C545.736 27.1962 545.627 25.7657 545.409 24.3522L545.317 23.7886C545.276 23.5234 545.225 23.2581 545.163 22.9929C545.163 22.9929 545.163 22.9266 545.163 22.8935C545.163 22.6172 545.051 22.3519 544.979 22.0867C544.955 21.9514 544.92 21.8184 544.877 21.6889C544.795 21.3905 544.713 21.0921 544.621 20.7937C544.529 20.4953 544.539 20.5174 544.498 20.3848L544.437 20.219C544.414 20.1435 544.387 20.0697 544.355 19.998C543.991 19.0729 543.389 18.2801 542.62 17.7139C541.851 17.1477 540.948 16.832 540.018 16.8041C539.68 16.8041 539.332 16.8041 538.995 16.8594C538.287 16.9461 537.605 17.1967 536.995 17.5941C536.386 17.9914 535.862 18.5262 535.461 19.1619C535.06 19.7976 534.791 20.5193 534.672 21.2777C534.552 22.0361 534.586 22.8134 534.77 23.5565C535.115 24.9137 535.287 26.3154 535.281 27.7229C535.288 28.7901 535.202 29.8557 535.026 30.9057C534.916 31.6046 534.938 32.3201 535.088 33.0101C535.238 33.7001 535.514 34.3508 535.9 34.9241C536.285 35.4974 536.773 35.9817 537.335 36.3487C537.896 36.7157 538.519 36.958 539.169 37.0613H539.404H539.741H540.007C540.283 37.0779 540.56 37.0779 540.836 37.0613C541.082 37.0613 541.317 37.0061 541.552 36.9619H541.654L541.869 36.9066H542.023C542.927 36.6316 543.739 36.0809 544.361 35.3205C544.983 34.56 545.39 33.622 545.531 32.6187C545.531 32.6187 545.531 32.5634 545.531 32.5413C545.603 31.9224 545.664 31.2925 545.705 30.6515C545.746 30.0105 545.736 29.2701 545.736 28.6291Z" fill="white"/>
<path d="M535.449 38.5752C537.155 38.5752 538.538 40.0793 538.538 41.9348C538.538 43.7903 537.155 45.2944 535.449 45.2944C533.742 45.2944 532.359 43.7903 532.359 41.9348C532.359 40.0793 533.742 38.5752 535.449 38.5752Z" fill="white"/>
<path d="M6.20106 3.21127H4.09373C3.54018 3.22843 2.99519 3.36327 2.48991 3.60809C1.98463 3.85291 1.52896 4.20292 1.14894 4.63808C0.768932 5.07325 0.472023 5.58507 0.275197 6.14426C0.0783713 6.70345 -0.0145183 7.29905 0.0018391 7.89704V89.6773C-0.0145065 90.2748 0.0784664 90.8698 0.275416 91.4284C0.472365 91.9869 0.769422 92.498 1.14956 92.9323C1.5297 93.3666 1.98545 93.7155 2.49067 93.9592C2.99589 94.2028 3.54065 94.3363 4.09373 94.3521H6.20106C7.31719 94.3174 8.37496 93.8056 9.14214 92.9291C9.90933 92.0527 10.3232 90.8832 10.2929 89.6773V7.89704C10.3093 7.29905 10.2164 6.70345 10.0196 6.14426C9.82276 5.58507 9.52586 5.07325 9.14584 4.63808C8.76583 4.20292 8.31016 3.85291 7.80488 3.60809C7.29959 3.36327 6.75461 3.22843 6.20106 3.21127ZM52.8077 94.3521H55.0275C55.5806 94.3363 56.1254 94.2028 56.6306 93.9592C57.1358 93.7155 57.5916 93.3666 57.9717 92.9323C58.3518 92.498 58.6489 91.9869 58.8459 91.4284C59.0428 90.8698 59.1358 90.2748 59.1194 89.6773V7.89704C59.1358 7.29905 59.0429 6.70345 58.8461 6.14426C58.6492 5.58507 58.3523 5.07325 57.9723 4.63808C57.5923 4.20292 57.1366 3.85291 56.6314 3.60809C56.1261 3.36327 55.5811 3.22843 55.0275 3.21127H52.8077C52.2541 3.22843 51.7092 3.36327 51.2039 3.60809C50.6986 3.85291 50.2429 4.20292 49.8629 4.63808C49.4829 5.07325 49.186 5.58507 48.9892 6.14426C48.7923 6.70345 48.6994 7.29905 48.7158 7.89704V89.6773C48.6938 90.8775 49.1113 92.0385 49.8776 92.9077C50.6439 93.777 51.697 94.2842 52.8077 94.3189V94.3521Z" fill="white"/>
<path d="M28.6025 38.9847C32.8229 38.9847 36.2441 42.7055 36.2441 47.2953C36.2441 51.8852 32.8229 55.606 28.6025 55.606C24.3822 55.606 20.9609 51.8852 20.9609 47.2953C20.9609 42.7055 24.3822 38.9847 28.6025 38.9847Z" fill="white"/>
</g>
</svg>
