<svg width="525" height="60" viewBox="0 0 525 60" fill="none" xmlns="http://www.w3.org/2000/svg">
<path d="M54.7664 45H47.3424V0.199997H54.7664V45ZM8.11041 45H0.686407V0.199997H8.11041V45ZM23.7264 9.544H31.7264L47.3424 45H39.9824L27.6944 18.44L15.4704 45H8.11041L23.7264 9.544ZM87.6374 14.904C92.5814 14.904 96.6614 18.936 96.6614 23.928V36.024C96.6614 40.968 92.5814 45 87.6374 45H72.0374C67.0934 45 63.0614 40.968 63.0614 36.024V23.928C63.0614 18.936 67.0934 14.904 72.0374 14.904H87.6374ZM91.0454 36.024V23.928C91.0454 22.056 89.5094 20.52 87.6374 20.52H72.0374C70.1654 20.52 68.6294 22.056 68.6294 23.928V36.024C68.6294 37.896 70.1654 39.432 72.0374 39.432H87.6374C89.5094 39.432 91.0454 37.896 91.0454 36.024ZM100.087 17.256L104.023 13.272L111.367 20.616V45H105.751V22.92L100.087 17.256ZM137.335 14.904C142.327 14.904 146.359 18.936 146.359 23.928V45H140.743V23.928C140.743 22.056 139.207 20.52 137.335 20.52H132.247C130.375 20.52 128.839 22.056 128.839 23.928V45H123.223V23.928C123.223 22.056 121.735 20.52 119.863 20.52H111.367V14.904H119.863C121.927 14.904 123.943 15.672 125.575 17.064L126.055 17.448L126.487 17.064C128.167 15.672 130.135 14.904 132.247 14.904H137.335ZM177.352 14.904C182.296 14.904 186.376 18.936 186.376 23.928V36.024C186.376 40.968 182.296 45 177.352 45H161.752C156.808 45 152.776 40.968 152.776 36.024V29.544L180.664 22.536L179.944 21.72C179.272 20.952 178.36 20.52 177.352 20.52H161.752C159.88 20.52 158.344 22.056 158.344 23.928V24.024H152.776V23.928C152.776 18.936 156.808 14.904 161.752 14.904H177.352ZM180.76 36.024V28.296L158.344 33.912V36.024C158.344 37.896 159.88 39.432 161.752 39.432H177.352C179.224 39.432 180.76 37.896 180.76 36.024ZM220.093 14.904C225.037 14.904 229.069 18.936 229.069 23.928V45H223.453V23.928C223.453 22.056 221.917 20.52 220.093 20.52H201.085V14.904H220.093ZM189.805 17.16L193.741 13.176L201.085 20.52V45H195.469V22.824L189.805 17.16ZM297.88 17.032H290.392V16.456C290.392 14.216 288.536 12.36 286.296 12.36H264.6C262.36 12.36 260.504 14.216 260.504 16.456C260.504 18.632 262.232 20.36 264.344 20.552L287 21.96C293.08 22.344 297.88 27.4 297.88 33.48C297.88 39.88 292.632 45 286.296 45H264.6C258.264 45 253.08 39.88 253.08 33.48V32.904H260.504V33.48C260.504 35.72 262.36 37.576 264.6 37.576H286.296C288.536 37.576 290.392 35.72 290.392 33.48C290.392 31.304 288.728 29.512 286.552 29.384L263.896 27.976C257.816 27.592 253.08 22.536 253.08 16.456C253.08 10.056 258.264 4.872 264.6 4.872H286.296C292.696 4.872 297.88 10.056 297.88 16.456V17.032ZM338.279 30.696L310.247 34.2V36.024C310.247 37.896 311.783 39.432 313.655 39.432H329.255C331.127 39.432 332.663 37.896 332.663 36.024V35.928H338.279V36.024C338.279 40.968 334.199 45 329.255 45H313.655C308.711 45 304.679 40.968 304.679 36.024V23.928C304.679 18.936 308.711 14.904 313.655 14.904H329.255C334.199 14.904 338.279 18.936 338.279 23.928V30.696ZM310.247 23.928V28.536L332.663 25.752V23.928C332.663 22.056 331.127 20.52 329.255 20.52H313.655C311.783 20.52 310.247 22.056 310.247 23.928ZM377.982 24.024H372.366V23.928C372.366 22.056 370.83 20.52 368.958 20.52H353.358C351.486 20.52 349.95 22.056 349.95 23.928V36.024C349.95 37.896 351.486 39.432 353.358 39.432H368.958C370.83 39.432 372.366 37.896 372.366 36.024V35.928H377.982V36.024C377.982 40.968 373.902 45 368.958 45H353.358C348.414 45 344.382 40.968 344.382 36.024V23.928C344.382 18.936 348.414 14.904 353.358 14.904H368.958C373.902 14.904 377.982 18.936 377.982 23.928V24.024ZM411.747 14.904H417.363V36.024C417.363 40.968 413.283 45 408.339 45H392.739C387.795 45 383.763 40.968 383.763 36.024V14.904H389.331V36.024C389.331 37.896 390.867 39.432 392.739 39.432H408.339C410.211 39.432 411.747 37.896 411.747 36.024V14.904ZM434.969 14.904H450.713V20.52H434.969C432.041 20.52 429.689 22.872 429.689 25.8V45H424.121V25.8C424.121 19.8 428.969 14.904 434.969 14.904ZM460.623 45H455.055V20.184H460.623V45ZM460.623 15.288H455.055V11.4H460.623V15.288ZM483.28 22.296H472.768V35.16C472.768 37.512 474.688 39.432 477.04 39.432H483.28V45H477.04C471.616 45 467.2 40.632 467.2 35.16V11.4H472.768V16.68H483.28V22.296ZM492.742 14.904L506.278 45H499.942L486.406 14.904H492.742ZM518.182 14.904H524.422L507.286 59.016H501.046L505.942 46.44L506.182 45.72L518.182 14.904Z" fill="#C3C0C0"/>
</svg>
