<svg width="531" height="89" viewBox="0 0 531 89" fill="none" xmlns="http://www.w3.org/2000/svg">
<path d="M18.24 60V26.04H1.26V18H43.26V26.04H26.28V60H18.24ZM65.5913 30.12L70.4513 25.26H81.3713V33.36H57.1313V60H49.0913V25.26H55.2113L60.0713 30.12H65.5913ZM86.6873 25.26H121.187L128.687 32.76V52.5L121.187 60H94.1873L86.6873 52.5V42.24H94.7273V49.2L97.4873 51.96H117.827L120.587 49.2V36.12L117.827 33.36H86.6873V25.26ZM178.142 60H143.642L136.142 52.5V32.76L143.642 25.26H178.142V33.36H146.942L144.182 36.12V49.2L146.942 51.96H178.142V60ZM227.673 60H222.513L193.713 42.3V60H185.673V18H193.713V32.82L204.813 39.66L217.893 25.26H227.673V26.52L211.773 43.98L227.673 53.7V60ZM300.368 28.26V40.02L290.108 50.28H266.408V60H258.368V42.24H286.748L292.268 36.66V31.62L286.748 26.04H258.368V18H290.108L300.368 28.26ZM323.873 30.12L328.733 25.26H339.653V33.36H315.413V60H307.373V25.26H313.493L318.353 30.12H323.873ZM353.909 24.12L349.109 28.98V34.5L353.909 39.36V60H345.869V18H353.909V24.12ZM361.135 48.66L391.675 33.36H361.135V25.26H403.135V36.66L372.535 51.96H403.135V60H361.135V48.66ZM452.302 60H417.802L410.302 52.5V32.76L417.802 25.26H452.302V40.68L441.022 51.96H452.302V60ZM418.342 36.12V49.2L421.102 51.96H429.622L444.202 37.32V33.36H421.102L418.342 36.12ZM494.25 51.96V45.48H460.35V30.36L465.45 25.26H502.35V33.36H468.39V39.84H502.35V54.9L497.25 60H460.35V51.96H494.25Z" fill="#07D6D1"/>
</svg>
