<svg width="714" height="279" viewBox="0 0 714 279" fill="none" xmlns="http://www.w3.org/2000/svg">
<g opacity="0.12">
<path d="M110.942 98.4209L81.5625 178.079H140.332L110.942 98.4209Z" stroke="white" stroke-width="9" stroke-linecap="round" stroke-linejoin="round"/>
<path d="M255.438 101.36L226.754 138.493" stroke="white" stroke-width="10" stroke-linecap="round" stroke-linejoin="bevel"/>
<path d="M255.98 176.344L226.754 138.493" stroke="white" stroke-width="10" stroke-linecap="round" stroke-linejoin="bevel"/>
<path d="M342.923 173.648C343.748 173.648 344.417 172.975 344.417 172.145C344.417 171.315 343.748 170.642 342.923 170.642C342.098 170.642 341.43 171.315 341.43 172.145C341.43 172.975 342.098 173.648 342.923 173.648Z" fill="white" stroke="white" stroke-width="10" stroke-linecap="round" stroke-linejoin="bevel"/>
<path d="M349.819 158.353C353.038 152.302 354.722 145.439 354.699 138.46C354.699 117.142 339.354 99.8467 320.419 99.8467C301.484 99.8467 286.129 117.142 286.129 138.46C286.129 159.778 301.473 177.074 320.419 177.074C322.249 177.071 324.076 176.904 325.882 176.576" stroke="white" stroke-width="10" stroke-linecap="round" stroke-linejoin="bevel"/>
<path d="M429.353 104.234C422.397 97.0289 411.901 93.2383 397.16 93.2383C391.043 93.2402 384.934 93.6722 378.869 94.5313C377.872 94.6778 376.959 95.2165 376.306 96.0443C375.653 96.8721 375.305 97.9309 375.33 99.0182V130.095C375.299 131.406 375.72 132.682 376.509 133.678C377.299 134.674 378.402 135.319 379.606 135.488C379.872 135.488 380.148 135.488 380.424 135.488C380.728 135.486 381.032 135.468 381.335 135.432C382.533 135.259 383.629 134.613 384.415 133.62C385.2 132.627 385.618 131.356 385.59 130.05V107.296C385.59 106.212 385.947 105.164 386.598 104.34C387.248 103.515 388.15 102.969 389.14 102.798C391.954 102.434 394.786 102.257 397.62 102.267C419.328 102.267 429.936 115.529 429.823 136.317C429.823 148.263 426.836 157.635 421.097 164.022C413.937 171.924 403.901 173.339 400.372 173.582C396.178 173.858 392.27 173.902 392.27 173.902C389.416 173.902 386.562 174.112 383.708 174.09C379.831 174.09 377.509 173.913 376.179 175.682C375.735 176.288 375.443 177.007 375.33 177.77C375.305 178.896 375.679 179.989 376.374 180.826C377.07 181.664 378.036 182.184 379.074 182.279C383.411 182.688 388.342 182.92 393.968 182.92C396.198 182.92 398.357 182.828 400.444 182.644C412.842 181.539 422.755 177.284 429.087 170.222C436.514 162.111 440.524 150.33 440.524 135.963C440.524 121.596 436.432 111.44 429.353 104.234Z" fill="white"/>
<path d="M470.579 97.7692V178.787C470.593 179.381 470.497 179.973 470.299 180.528C470.101 181.082 469.803 181.589 469.423 182.02C469.043 182.45 468.588 182.795 468.084 183.035C467.58 183.274 467.037 183.405 466.487 183.417H464.39C463.84 183.405 463.297 183.274 462.793 183.035C462.29 182.795 461.835 182.45 461.455 182.02C461.074 181.589 460.777 181.082 460.578 180.528C460.38 179.973 460.285 179.381 460.298 178.787V97.7692C460.273 96.5693 460.69 95.4078 461.458 94.5396C462.225 93.6715 463.279 93.1676 464.39 93.1387H466.497C467.606 93.1705 468.658 93.6756 469.423 94.5435C470.188 95.4113 470.604 96.5711 470.579 97.7692Z" fill="white"/>
<path d="M200.198 106.754C203.508 106.754 206.192 103.835 206.192 100.234C206.192 96.6331 203.508 93.7139 200.198 93.7139C196.887 93.7139 194.203 96.6331 194.203 100.234C194.203 103.835 196.887 106.754 200.198 106.754Z" fill="white"/>
<path d="M207.48 178.455L207.429 178.179C207.347 177.61 207.156 177.066 206.869 176.581C206.582 176.096 206.205 175.68 205.762 175.361C205.319 175.041 204.819 174.824 204.294 174.723C203.77 174.622 203.231 174.64 202.713 174.775C198.771 175.823 194.705 176.221 190.652 175.958C172.444 174.852 162.603 160.64 163.697 139.488C164.178 130.293 166.49 122.834 170.244 117.275C171.073 116.039 171.989 114.875 172.986 113.794C173.282 113.484 173.579 113.186 173.896 112.887C174.496 112.295 175.124 111.738 175.778 111.219L176.014 111.031C176.29 110.81 176.566 110.611 176.842 110.412C177.603 109.869 178.392 109.375 179.205 108.931C179.492 108.765 179.809 108.599 180.116 108.445L180.392 108.312C180.75 108.135 181.108 107.98 181.415 107.826C181.722 107.671 182.244 107.483 182.653 107.328L183.85 106.92C184.457 106.719 185.017 106.377 185.489 105.917C185.961 105.457 186.333 104.891 186.58 104.258C186.827 103.626 186.942 102.942 186.918 102.256C186.893 101.571 186.729 100.899 186.438 100.289C186.438 100.178 186.335 100.068 186.274 99.9572C186.248 99.9023 186.218 99.8504 186.182 99.8025C186.167 99.7715 186.15 99.7419 186.131 99.714C185.665 98.9493 185.003 98.349 184.224 97.9875C183.446 97.626 182.587 97.5193 181.753 97.6806L181.282 97.8022L180.024 98.2111C179.737 98.2995 179.441 98.3989 179.154 98.5205C178.868 98.6421 178.612 98.7194 178.356 98.8189C178.101 98.9183 177.63 99.1062 177.272 99.2609L175.983 99.8577L175.042 100.333C174.52 100.598 174.019 100.874 173.507 101.184C172.996 101.493 172.761 101.637 172.392 101.869L171.615 102.377L170.909 102.875C169.444 103.914 168.056 105.074 166.756 106.345C166.091 106.997 165.446 107.682 164.812 108.389C158.214 115.871 154.112 126.48 153.447 139.234C151.974 167.514 167.052 183.848 188.146 185.141C193.681 185.567 199.243 185.045 204.626 183.594C205.603 183.266 206.434 182.561 206.961 181.613C207.487 180.665 207.672 179.541 207.48 178.455Z" fill="white"/>
<path d="M183.891 106.952L182.694 107.361C182.285 107.516 181.866 107.682 181.457 107.858C181.047 108.035 180.751 108.168 180.434 108.345L180.157 108.477C179.851 108.632 179.533 108.798 179.247 108.964C178.434 109.408 177.645 109.902 176.884 110.444C176.608 110.643 176.332 110.842 176.055 111.063L175.82 111.251C175.161 111.764 174.532 112.322 173.938 112.92C173.621 113.218 173.324 113.517 173.027 113.826C172.566 114.321 172.006 114.696 171.391 114.923C170.775 115.149 170.12 115.221 169.475 115.132C168.83 115.044 168.212 114.797 167.668 114.412C167.124 114.027 166.669 113.513 166.337 112.909C166.131 112.529 165.944 112.138 165.774 111.737C165.408 110.842 165.309 109.845 165.492 108.886C165.676 107.927 166.132 107.054 166.797 106.389C168.097 105.118 169.486 103.958 170.951 102.918L171.657 102.421L172.434 101.913C172.802 101.681 173.171 101.449 173.549 101.228C173.928 101.007 174.572 100.642 175.084 100.377L176.025 99.9014L177.314 99.3046C177.672 99.1499 178.03 98.9952 178.398 98.8626C178.766 98.73 178.92 98.6526 179.196 98.5642C179.472 98.4758 179.779 98.3432 180.065 98.2547L181.324 97.8458H181.467C181.574 97.8107 181.683 97.7848 181.794 97.7685C182.628 97.6072 183.488 97.7139 184.266 98.0754C185.044 98.4368 185.707 99.0372 186.173 99.8019C186.192 99.8298 186.209 99.8594 186.224 99.8903L186.285 99.9677C186.289 99.9933 186.289 100.019 186.285 100.045C186.346 100.156 186.398 100.266 186.449 100.377C186.731 100.982 186.889 101.647 186.911 102.324C186.933 103.002 186.818 103.677 186.575 104.302C186.332 104.927 185.966 105.488 185.503 105.946C185.039 106.403 184.489 106.747 183.891 106.952Z" fill="white"/>
<path d="M679.829 98.4209L650.449 181.395H709.209L679.829 98.4209Z" stroke="white" stroke-width="9" stroke-linecap="round" stroke-linejoin="round"/>
<path d="M574.738 185.352H572.621C572.07 185.338 571.527 185.206 571.023 184.965C570.52 184.724 570.065 184.378 569.685 183.947C569.305 183.516 569.007 183.008 568.809 182.453C568.61 181.898 568.515 181.306 568.529 180.71V99.5933C568.515 98.9983 568.61 98.4061 568.809 97.8508C569.007 97.2954 569.305 96.7877 569.685 96.3566C570.065 95.9256 570.52 95.5796 571.023 95.3386C571.527 95.0975 572.07 94.9661 572.621 94.9517H574.738C575.29 94.9646 575.833 95.0951 576.337 95.3357C576.842 95.5762 577.297 95.9221 577.678 96.3535C578.058 96.7848 578.355 97.2931 578.553 97.8491C578.751 98.4051 578.845 98.9979 578.83 99.5933V180.71C578.845 181.306 578.751 181.899 578.553 182.455C578.355 183.011 578.058 183.519 577.678 183.95C577.297 184.382 576.842 184.728 576.337 184.968C575.833 185.209 575.29 185.339 574.738 185.352ZM621.335 94.9517H623.565C624.116 94.9661 624.659 95.0975 625.162 95.3386C625.666 95.5796 626.121 95.9256 626.501 96.3566C626.881 96.7877 627.179 97.2954 627.377 97.8508C627.575 98.4061 627.67 98.9983 627.657 99.5933V180.71C627.67 181.306 627.575 181.898 627.377 182.453C627.179 183.008 626.881 183.516 626.501 183.947C626.121 184.378 625.666 184.724 625.162 184.965C624.659 185.206 624.116 185.338 623.565 185.352H621.335C620.783 185.339 620.24 185.209 619.736 184.968C619.231 184.728 618.776 184.382 618.395 183.95C618.015 183.519 617.718 183.011 617.52 182.455C617.322 181.899 617.228 181.306 617.243 180.71V99.5933C617.221 98.9933 617.31 98.3946 617.505 97.8322C617.699 97.2698 617.996 96.7549 618.377 96.3176C618.758 95.8804 619.216 95.5295 619.723 95.2855C620.231 95.0415 620.779 94.9092 621.335 94.8965V94.9517Z" fill="white"/>
<path d="M597.134 148.727C601.354 148.727 604.775 144.833 604.775 140.029C604.775 135.226 601.354 131.332 597.134 131.332C592.913 131.332 589.492 135.226 589.492 140.029C589.492 144.833 592.913 148.727 597.134 148.727Z" fill="white"/>
<path d="M538.996 95.9993C534.496 94.2923 529.751 93.4616 524.982 93.5459C509.525 93.5459 499.264 103.492 499.264 117.008C499.264 126.799 504.451 133.441 513.238 138.26C513.913 138.636 514.609 139 515.335 139.365L516.593 139.973C517.176 140.238 517.759 140.492 518.353 140.735C518.946 140.978 519.58 141.244 520.225 141.487C521.299 141.94 522.271 142.382 523.294 142.835L523.601 142.979C524.392 143.379 525.272 143.526 526.138 143.405C527.004 143.284 527.82 142.898 528.49 142.294C528.603 142.194 528.715 142.073 528.828 141.951C528.941 141.829 529.063 141.675 529.176 141.542L529.503 141.111V141.056C529.906 140.457 530.184 139.771 530.319 139.045C530.453 138.319 530.442 137.57 530.284 136.85C530.127 136.129 529.828 135.453 529.407 134.869C528.986 134.285 528.454 133.805 527.846 133.463L527.058 133.099L525.422 132.391C524.399 131.972 523.468 131.552 522.578 131.132L521.555 130.667C520.849 130.325 520.163 129.982 519.509 129.64C518.216 128.966 516.965 128.202 515.765 127.352C511.652 124.324 509.606 120.854 509.606 115.726C509.606 109.825 513.698 102.774 524.593 102.774C528.437 102.771 532.249 103.52 535.846 104.984C536.359 105.193 536.907 105.289 537.456 105.265C538.004 105.241 538.543 105.097 539.039 104.844C539.535 104.59 539.98 104.231 540.345 103.788C540.71 103.345 540.989 102.827 541.165 102.265L541.38 101.58C541.73 100.498 541.678 99.3104 541.233 98.269C540.788 97.2277 539.986 96.4138 538.996 95.9993ZM545.676 155.776C545.676 155.135 545.574 154.505 545.503 153.886C545.503 153.886 545.503 153.886 545.503 153.809C545.372 152.803 545.184 151.806 544.94 150.825C544.037 150.205 543.04 149.763 541.994 149.521H541.84C541.737 149.487 541.631 149.465 541.523 149.455C541.288 149.455 541.053 149.377 540.807 149.355C540.531 149.339 540.254 149.339 539.978 149.355C539.777 149.344 539.576 149.344 539.375 149.355H539.14C538.49 149.459 537.867 149.701 537.306 150.068C536.744 150.435 536.257 150.919 535.871 151.493C535.485 152.066 535.209 152.717 535.059 153.407C534.909 154.097 534.887 154.812 534.997 155.511C535.173 156.561 535.259 157.627 535.252 158.694C535.258 160.101 535.086 161.503 534.741 162.86C534.41 164.141 533.899 165.36 533.227 166.474C530.618 170.784 525.575 173.436 518.619 173.436C513.71 173.386 508.862 172.258 504.369 170.121C503.84 169.871 503.267 169.745 502.69 169.75C502.112 169.756 501.542 169.894 501.017 170.155C500.493 170.416 500.025 170.794 499.645 171.265C499.265 171.735 498.982 172.287 498.814 172.884L498.589 173.657C498.297 174.688 498.364 175.798 498.777 176.778C499.189 177.759 499.919 178.544 500.829 178.984C506.251 181.389 512.052 182.635 517.913 182.653C531.099 182.653 539.508 176.951 543.334 168.927C543.725 168.112 544.067 167.271 544.357 166.408C544.388 166.336 544.416 166.262 544.439 166.187L544.623 165.612C544.715 165.314 544.797 165.015 544.878 164.717C544.922 164.587 544.956 164.454 544.981 164.319C545.052 164.054 545.114 163.788 545.165 163.512C545.165 163.512 545.165 163.446 545.165 163.413C545.226 163.147 545.277 162.882 545.318 162.617L545.41 162.053C545.629 160.64 545.738 159.209 545.738 157.777C545.738 157.08 545.717 156.428 545.676 155.776Z" fill="white"/>
<path d="M529.535 141.057V141.112L529.207 141.543C529.095 141.676 528.982 141.82 528.859 141.952C528.737 142.085 528.634 142.195 528.522 142.295C527.851 142.899 527.035 143.285 526.169 143.406C525.303 143.528 524.423 143.38 523.632 142.98L523.325 142.836C522.384 142.383 521.381 141.941 520.256 141.488C519.612 141.245 518.998 140.991 518.384 140.737C517.77 140.482 517.208 140.239 516.625 139.974C516.246 139.808 515.888 139.631 515.52 139.455L515.366 139.366C514.594 138.965 513.94 138.338 513.479 137.557C513.018 136.776 512.768 135.872 512.758 134.946C512.76 134.353 512.805 133.762 512.891 133.177C513.033 132.411 513.337 131.691 513.78 131.074C514.223 130.456 514.792 129.957 515.443 129.617C516.094 129.277 516.809 129.104 517.533 129.112C518.256 129.12 518.967 129.308 519.612 129.663C520.246 130.006 520.931 130.348 521.658 130.691L522.681 131.155C523.571 131.575 524.532 131.995 525.524 132.415L527.161 133.122L527.611 133.321L527.949 133.487C528.548 133.836 529.071 134.32 529.482 134.906C529.894 135.491 530.185 136.165 530.335 136.883C530.485 137.6 530.491 138.343 530.353 139.063C530.215 139.784 529.936 140.463 529.535 141.057Z" fill="white"/>
<path d="M545.736 157.723C545.736 159.156 545.627 160.586 545.409 162L545.317 162.563C545.276 162.829 545.225 163.094 545.163 163.359C545.163 163.359 545.163 163.425 545.163 163.459C545.163 163.735 545.051 164 544.979 164.265C544.955 164.401 544.92 164.534 544.877 164.663C544.795 164.962 544.713 165.26 544.621 165.558C544.529 165.857 544.539 165.835 544.498 165.967L544.437 166.133C544.414 166.209 544.387 166.282 544.355 166.354C543.991 167.279 543.389 168.072 542.62 168.638C541.851 169.204 540.948 169.52 540.018 169.548C539.68 169.548 539.332 169.548 538.995 169.493C538.287 169.406 537.605 169.155 536.995 168.758C536.386 168.361 535.862 167.826 535.461 167.19C535.06 166.554 534.791 165.833 534.672 165.074C534.552 164.316 534.586 163.539 534.77 162.796C535.115 161.438 535.287 160.037 535.281 158.629C535.288 157.562 535.202 156.496 535.026 155.446C534.916 154.747 534.938 154.032 535.088 153.342C535.238 152.652 535.514 152.001 535.9 151.428C536.285 150.855 536.773 150.37 537.335 150.003C537.896 149.636 538.519 149.394 539.169 149.291H539.404H539.741H540.007C540.283 149.274 540.56 149.274 540.836 149.291C541.082 149.291 541.317 149.346 541.552 149.39H541.654L541.869 149.445H542.023C542.927 149.72 543.739 150.271 544.361 151.032C544.983 151.792 545.39 152.73 545.531 153.733C545.531 153.733 545.531 153.789 545.531 153.811C545.603 154.43 545.664 155.06 545.705 155.701C545.746 156.342 545.736 157.082 545.736 157.723Z" fill="white"/>
<path d="M535.449 147.777C537.155 147.777 538.538 146.273 538.538 144.417C538.538 142.562 537.155 141.058 535.449 141.058C533.742 141.058 532.359 142.562 532.359 144.417C532.359 146.273 533.742 147.777 535.449 147.777Z" fill="white"/>
<path d="M6.20106 183.141H4.09373C3.54018 183.124 2.99519 182.989 2.48991 182.744C1.98463 182.499 1.52896 182.149 1.14894 181.714C0.768932 181.279 0.472023 180.767 0.275197 180.208C0.0783713 179.649 -0.0145183 179.053 0.0018391 178.455V96.6747C-0.0145065 96.0773 0.0784664 95.4822 0.275416 94.9237C0.472365 94.3651 0.769422 93.854 1.14956 93.4198C1.5297 92.9855 1.98545 92.6365 2.49067 92.3929C2.99589 92.1492 3.54065 92.0157 4.09373 92H6.20106C7.31719 92.0347 8.37496 92.5464 9.14214 93.4229C9.90933 94.2994 10.3232 95.4689 10.2929 96.6747V178.455C10.3093 179.053 10.2164 179.649 10.0196 180.208C9.82276 180.767 9.52586 181.279 9.14584 181.714C8.76583 182.149 8.31016 182.499 7.80488 182.744C7.29959 182.989 6.75461 183.124 6.20106 183.141ZM52.8077 92H55.0275C55.5806 92.0157 56.1254 92.1492 56.6306 92.3929C57.1358 92.6365 57.5916 92.9855 57.9717 93.4198C58.3518 93.854 58.6489 94.3651 58.8459 94.9237C59.0428 95.4822 59.1358 96.0773 59.1194 96.6747V178.455C59.1358 179.053 59.0429 179.649 58.8461 180.208C58.6492 180.767 58.3523 181.279 57.9723 181.714C57.5923 182.149 57.1366 182.499 56.6314 182.744C56.1261 182.989 55.5811 183.124 55.0275 183.141H52.8077C52.2541 183.124 51.7092 182.989 51.2039 182.744C50.6986 182.499 50.2429 182.149 49.8629 181.714C49.4829 181.279 49.186 180.767 48.9892 180.208C48.7923 179.649 48.6994 179.053 48.7158 178.455V96.6747C48.6938 95.4746 49.1113 94.3136 49.8776 93.4443C50.6439 92.575 51.697 92.0679 52.8077 92.0332V92Z" fill="white"/>
<path d="M28.6025 147.367C32.8229 147.367 36.2441 143.647 36.2441 139.057C36.2441 134.467 32.8229 130.746 28.6025 130.746C24.3822 130.746 20.9609 134.467 20.9609 139.057C20.9609 143.647 24.3822 147.367 28.6025 147.367Z" fill="white"/>
</g>
<g opacity="0.18">
<path d="M110.942 6.4209L81.5625 86.0793H140.332L110.942 6.4209Z" stroke="white" stroke-width="9" stroke-linecap="round" stroke-linejoin="round"/>
<path d="M255.438 9.36035L226.754 46.493" stroke="white" stroke-width="10" stroke-linecap="round" stroke-linejoin="bevel"/>
<path d="M255.98 84.3442L226.754 46.4932" stroke="white" stroke-width="10" stroke-linecap="round" stroke-linejoin="bevel"/>
<path d="M342.923 81.6476C343.748 81.6476 344.417 80.9747 344.417 80.1446C344.417 79.3145 343.748 78.6416 342.923 78.6416C342.098 78.6416 341.43 79.3145 341.43 80.1446C341.43 80.9747 342.098 81.6476 342.923 81.6476Z" fill="white" stroke="white" stroke-width="10" stroke-linecap="round" stroke-linejoin="bevel"/>
<path d="M349.819 66.3527C353.038 60.3016 354.722 53.4395 354.699 46.4602C354.699 25.1421 339.354 7.84668 320.419 7.84668C301.484 7.84668 286.129 25.1421 286.129 46.4602C286.129 67.7783 301.473 85.0738 320.419 85.0738C322.249 85.0706 324.076 84.9043 325.882 84.5764" stroke="white" stroke-width="10" stroke-linecap="round" stroke-linejoin="bevel"/>
<path d="M429.353 12.2344C422.397 5.02892 411.901 1.23828 397.16 1.23828C391.043 1.24024 384.934 1.67217 378.869 2.53131C377.872 2.67782 376.959 3.21647 376.306 4.04426C375.653 4.87205 375.305 5.93087 375.33 7.01817V38.0947C375.299 39.4056 375.72 40.6822 376.509 41.6782C377.299 42.6741 378.402 43.3188 379.606 43.4877C379.872 43.4877 380.148 43.4877 380.424 43.4877C380.728 43.4862 381.032 43.4677 381.335 43.4325C382.533 43.2587 383.629 42.6135 384.415 41.6204C385.2 40.6273 385.618 39.3562 385.59 38.0504V15.2956C385.59 14.2123 385.947 13.1643 386.598 12.3399C387.248 11.5154 388.15 10.9687 389.14 10.7977C391.954 10.4339 394.786 10.2567 397.62 10.2673C419.328 10.2673 429.936 23.5289 429.823 44.3166C429.823 56.2631 426.836 65.6347 421.097 72.0224C413.937 79.9242 403.901 81.3387 400.372 81.5819C396.178 81.8581 392.27 81.9024 392.27 81.9024C389.416 81.9024 386.562 82.1123 383.708 82.0902C379.831 82.0902 377.509 81.9134 376.179 83.6816C375.735 84.288 375.443 85.0071 375.33 85.7703C375.305 86.8956 375.679 87.9886 376.374 88.8265C377.07 89.6643 378.036 90.1839 379.074 90.2793C383.411 90.6882 388.342 90.9203 393.968 90.9203C396.198 90.9203 398.357 90.8282 400.444 90.644C412.842 89.5388 422.755 85.2841 429.087 78.2222C436.514 70.1105 440.524 58.3297 440.524 43.9629C440.524 29.5961 436.432 19.4399 429.353 12.2344Z" fill="white"/>
<path d="M470.579 5.76921V86.7869C470.593 87.3814 470.497 87.973 470.299 88.5277C470.101 89.0825 469.803 89.5895 469.423 90.0196C469.043 90.4498 468.588 90.7947 468.084 91.0345C467.58 91.2744 467.037 91.4045 466.487 91.4174H464.39C463.84 91.4045 463.297 91.2744 462.793 91.0345C462.29 90.7947 461.835 90.4498 461.455 90.0196C461.074 89.5895 460.777 89.0825 460.578 88.5277C460.38 87.973 460.285 87.3814 460.298 86.7869V5.76921C460.273 4.56928 460.69 3.40778 461.458 2.53964C462.225 1.6715 463.279 1.16765 464.39 1.13867H466.497C467.606 1.17052 468.658 1.67564 469.423 2.54347C470.188 3.41129 470.604 4.57115 470.579 5.76921Z" fill="white"/>
<path d="M200.198 14.7545C203.508 14.7545 206.192 11.8353 206.192 8.23418C206.192 4.63311 203.508 1.71387 200.198 1.71387C196.887 1.71387 194.203 4.63311 194.203 8.23418C194.203 11.8353 196.887 14.7545 200.198 14.7545Z" fill="white"/>
<path d="M207.48 86.4552L207.429 86.1789C207.347 85.6102 207.156 85.0661 206.869 84.581C206.582 84.0959 206.205 83.6804 205.762 83.3605C205.319 83.0407 204.819 82.8236 204.294 82.7228C203.77 82.622 203.231 82.6398 202.713 82.775C198.771 83.8227 194.705 84.2214 190.652 83.9576C172.444 82.8524 162.603 68.6403 163.697 47.488C164.178 38.2932 166.49 30.8335 170.244 25.2747C171.073 24.0389 171.989 22.8749 172.986 21.7935C173.282 21.4841 173.579 21.1857 173.896 20.8873C174.496 20.2954 175.124 19.7383 175.778 19.2185L176.014 19.0307C176.29 18.8096 176.566 18.6107 176.842 18.4118C177.603 17.8694 178.392 17.3749 179.205 16.9309C179.492 16.7651 179.809 16.5994 180.116 16.4446L180.392 16.312C180.75 16.1352 181.108 15.9805 181.415 15.8258C181.722 15.6711 182.244 15.4832 182.653 15.3284L183.85 14.9196C184.457 14.7192 185.017 14.3769 185.489 13.9171C185.961 13.4573 186.333 12.891 186.58 12.2585C186.827 11.6259 186.942 10.9425 186.918 10.2565C186.893 9.57051 186.729 8.89875 186.438 8.28872C186.438 8.17821 186.335 8.06769 186.274 7.95717C186.248 7.90228 186.218 7.85043 186.182 7.80246C186.167 7.77148 186.15 7.74191 186.131 7.71404C185.665 6.94929 185.003 6.34896 184.224 5.98748C183.446 5.62601 182.587 5.5193 181.753 5.68059L181.282 5.80216L180.024 6.21105C179.737 6.29946 179.441 6.39893 179.154 6.52049C178.868 6.64206 178.612 6.71942 178.356 6.81888C178.101 6.91835 177.63 7.10623 177.272 7.26095L175.983 7.85772L175.042 8.33293C174.52 8.59817 174.019 8.87444 173.507 9.18388C172.996 9.49332 172.761 9.637 172.392 9.86908L171.615 10.3774L170.909 10.8747C169.444 11.9143 168.056 13.0745 166.756 14.3449C166.091 14.9969 165.446 15.6821 164.812 16.3894C158.214 23.8712 154.112 34.4805 153.447 47.2338C151.974 75.5143 167.052 91.8482 188.146 93.1413C193.681 93.567 199.243 93.0448 204.626 91.5941C205.603 91.266 206.434 90.5608 206.961 89.6129C207.487 88.6651 207.672 87.541 207.48 86.4552Z" fill="white"/>
<path d="M183.891 14.9522L182.694 15.3611C182.285 15.5158 181.866 15.6816 181.457 15.8584C181.047 16.0352 180.751 16.1678 180.434 16.3447L180.157 16.4773C179.851 16.632 179.533 16.7978 179.247 16.9635C178.434 17.4075 177.645 17.902 176.884 18.4444C176.608 18.6433 176.332 18.8423 176.055 19.0633L175.82 19.2512C175.161 19.7642 174.532 20.3216 173.938 20.9199C173.621 21.2183 173.324 21.5167 173.027 21.8261C172.566 22.3213 172.006 22.6963 171.391 22.9226C170.775 23.1489 170.12 23.2206 169.475 23.1321C168.83 23.0437 168.212 22.7975 167.668 22.4122C167.124 22.027 166.669 21.5128 166.337 20.9089C166.131 20.5289 165.944 20.138 165.774 19.7374C165.408 18.8419 165.309 17.8449 165.492 16.8858C165.676 15.9268 166.132 15.0536 166.797 14.3886C168.097 13.1182 169.486 11.958 170.951 10.9184L171.657 10.4211L172.434 9.91275C172.802 9.68067 173.171 9.4486 173.549 9.22757C173.928 9.00654 174.572 8.64184 175.084 8.37661L176.025 7.90139L177.314 7.30462C177.672 7.1499 178.03 6.99519 178.398 6.86258C178.766 6.72996 178.92 6.65259 179.196 6.56418C179.472 6.47577 179.779 6.34316 180.065 6.25475L181.324 5.84585H181.467C181.574 5.81072 181.683 5.78484 181.794 5.76848C182.628 5.60719 183.488 5.7139 184.266 6.07537C185.044 6.43685 185.707 7.03718 186.173 7.80193C186.192 7.8298 186.209 7.85937 186.224 7.89035L186.285 7.96771C186.289 7.99332 186.289 8.01946 186.285 8.04506C186.346 8.15558 186.398 8.2661 186.449 8.37661C186.731 8.98209 186.889 9.64664 186.911 10.3244C186.933 11.0021 186.818 11.6769 186.575 12.3021C186.332 12.9273 185.966 13.488 185.503 13.9456C185.039 14.4031 184.489 14.7466 183.891 14.9522Z" fill="white"/>
<path d="M679.829 6.4209L650.449 89.3947H709.209L679.829 6.4209Z" stroke="white" stroke-width="9" stroke-linecap="round" stroke-linejoin="round"/>
<path d="M574.738 93.3521H572.621C572.07 93.3378 571.527 93.2063 571.023 92.9652C570.52 92.7242 570.065 92.3783 569.685 91.9472C569.305 91.5162 569.007 91.0085 568.809 90.4531C568.61 89.8977 568.515 89.3056 568.529 88.7105V7.59332C568.515 6.99825 568.61 6.40613 568.809 5.85076C569.007 5.29539 569.305 4.78767 569.685 4.35662C570.065 3.92558 570.52 3.57964 571.023 3.33858C571.527 3.09753 572.07 2.96608 572.621 2.95174H574.738C575.29 2.96463 575.833 3.09511 576.337 3.33567C576.842 3.57622 577.297 3.92211 577.678 4.35345C578.058 4.7848 578.355 5.2931 578.553 5.84911C578.751 6.40512 578.845 6.99788 578.83 7.59332V88.7105C578.845 89.3059 578.751 89.8987 578.553 90.4547C578.355 91.0108 578.058 91.5191 577.678 91.9504C577.297 92.3817 576.842 92.7276 576.337 92.9682C575.833 93.2087 575.29 93.3392 574.738 93.3521ZM621.335 2.95174H623.565C624.116 2.96608 624.659 3.09753 625.162 3.33858C625.666 3.57964 626.121 3.92558 626.501 4.35662C626.881 4.78767 627.179 5.29539 627.377 5.85076C627.575 6.40613 627.67 6.99825 627.657 7.59332V88.7105C627.67 89.3056 627.575 89.8977 627.377 90.4531C627.179 91.0085 626.881 91.5162 626.501 91.9472C626.121 92.3783 625.666 92.7242 625.162 92.9652C624.659 93.2063 624.116 93.3378 623.565 93.3521H621.335C620.783 93.3392 620.24 93.2087 619.736 92.9682C619.231 92.7276 618.776 92.3817 618.395 91.9504C618.015 91.5191 617.718 91.0108 617.52 90.4547C617.322 89.8987 617.228 89.3059 617.243 88.7105V7.59332C617.221 6.99332 617.31 6.39462 617.505 5.83219C617.699 5.26977 617.996 4.7549 618.377 4.31764C618.758 3.88037 619.216 3.52949 619.723 3.28548C620.231 3.04148 620.779 2.90923 621.335 2.89648V2.95174Z" fill="white"/>
<path d="M597.134 56.7269C601.354 56.7269 604.775 52.8329 604.775 48.0295C604.775 43.226 601.354 39.332 597.134 39.332C592.913 39.332 589.492 43.226 589.492 48.0295C589.492 52.8329 592.913 56.7269 597.134 56.7269Z" fill="white"/>
<path d="M538.996 3.99927C534.496 2.29227 529.751 1.46159 524.982 1.54587C509.525 1.54587 499.264 11.4921 499.264 25.008C499.264 34.7995 504.451 41.4414 513.238 46.2598C513.913 46.6355 514.609 47.0002 515.335 47.3649L516.593 47.9727C517.176 48.238 517.759 48.4922 518.353 48.7353C518.946 48.9784 519.58 49.2436 520.225 49.4868C521.299 49.9399 522.271 50.3819 523.294 50.8351L523.601 50.9787C524.392 51.3785 525.272 51.5264 526.138 51.4051C527.004 51.2837 527.82 50.8981 528.49 50.2935C528.603 50.1941 528.715 50.0725 528.828 49.951C528.941 49.8294 529.063 49.6746 529.176 49.542L529.503 49.111V49.0558C529.906 48.4566 530.184 47.7706 530.319 47.0447C530.453 46.3188 530.442 45.5701 530.284 44.8495C530.127 44.1289 529.828 43.4534 529.407 42.8691C528.986 42.2848 528.454 41.8053 527.846 41.4635L527.058 41.0988L525.422 40.3915C524.399 39.9715 523.468 39.5516 522.578 39.1316L521.555 38.6675C520.849 38.3249 520.163 37.9823 519.509 37.6397C518.216 36.9665 516.965 36.2023 515.765 35.3521C511.652 32.324 509.606 28.8538 509.606 23.726C509.606 17.8246 513.698 10.7738 524.593 10.7738C528.437 10.7709 532.249 11.5197 535.846 12.9841C536.359 13.1933 536.907 13.2888 537.456 13.2647C538.004 13.2406 538.543 13.0974 539.039 12.8437C539.535 12.5901 539.98 12.231 540.345 11.7881C540.71 11.3451 540.989 10.8273 541.165 10.2654L541.38 9.58023C541.73 8.49767 541.678 7.31036 541.233 6.26901C540.788 5.22766 539.986 4.41379 538.996 3.99927ZM545.676 63.7762C545.676 63.1352 545.574 62.5053 545.503 61.8864C545.503 61.8864 545.503 61.8864 545.503 61.8091C545.372 60.8028 545.184 59.8063 544.94 58.8252C544.037 58.2049 543.04 57.7633 541.994 57.5211H541.84C541.737 57.4874 541.631 57.4652 541.523 57.4548C541.288 57.4548 541.053 57.3775 540.807 57.3554C540.531 57.3388 540.254 57.3388 539.978 57.3554C539.777 57.3444 539.576 57.3444 539.375 57.3554H539.14C538.49 57.4587 537.867 57.701 537.306 58.068C536.744 58.435 536.257 58.9193 535.871 59.4926C535.485 60.0659 535.209 60.7166 535.059 61.4066C534.909 62.0966 534.887 62.8121 534.997 63.511C535.173 64.561 535.259 65.6266 535.252 66.6938C535.258 68.1013 535.086 69.503 534.741 70.8602C534.41 72.1411 533.899 73.3597 533.227 74.474C530.618 78.784 525.575 81.4363 518.619 81.4363C513.71 81.3864 508.862 80.2584 504.369 78.1209C503.84 77.8708 503.267 77.7445 502.69 77.7505C502.112 77.7564 501.542 77.8944 501.017 78.1554C500.493 78.4164 500.025 78.7945 499.645 79.2647C499.265 79.735 498.982 80.2868 498.814 80.8838L498.589 81.6574C498.297 82.6877 498.364 83.7975 498.777 84.7784C499.189 85.7593 499.919 86.5437 500.829 86.9841C506.251 89.389 512.052 90.6351 517.913 90.6532C531.099 90.6532 539.508 84.9507 543.334 76.9274C543.725 76.1123 544.067 75.2706 544.357 74.4076C544.388 74.3359 544.416 74.2621 544.439 74.1866L544.623 73.612C544.715 73.3136 544.797 73.0152 544.878 72.7168C544.922 72.5872 544.956 72.4542 544.981 72.3189C545.052 72.0537 545.114 71.7885 545.165 71.5122C545.165 71.5122 545.165 71.4459 545.165 71.4127C545.226 71.1475 545.277 70.8823 545.318 70.617L545.41 70.0534C545.629 68.64 545.738 67.2095 545.738 65.7765C545.738 65.0803 545.717 64.4282 545.676 63.7762Z" fill="white"/>
<path d="M529.535 49.0571V49.1123L529.207 49.5433C529.095 49.6759 528.982 49.8196 528.859 49.9523C528.737 50.0849 528.634 50.1954 528.522 50.2948C527.851 50.8994 527.035 51.285 526.169 51.4064C525.303 51.5277 524.423 51.3798 523.632 50.98L523.325 50.8364C522.384 50.3832 521.381 49.9412 520.256 49.4881C519.612 49.245 518.998 48.9908 518.384 48.7366C517.77 48.4824 517.208 48.2393 516.625 47.974C516.246 47.8083 515.888 47.6315 515.52 47.4546L515.366 47.3662C514.594 46.9649 513.94 46.3385 513.479 45.5574C513.018 44.7764 512.768 43.8718 512.758 42.9457C512.76 42.3535 512.805 41.7623 512.891 41.1775C513.033 40.4114 513.337 39.6913 513.78 39.0736C514.223 38.4559 514.792 37.9573 515.443 37.6169C516.094 37.2766 516.809 37.1036 517.533 37.1116C518.256 37.1196 518.967 37.3084 519.612 37.6631C520.246 38.0057 520.931 38.3483 521.658 38.6909L522.681 39.155C523.571 39.575 524.532 39.9949 525.524 40.4149L527.161 41.1222L527.611 41.3211L527.949 41.4869C528.548 41.8361 529.071 42.3198 529.482 42.9055C529.894 43.4912 530.185 44.1654 530.335 44.8826C530.485 45.5998 530.491 46.3434 530.353 47.0635C530.215 47.7835 529.936 48.4633 529.535 49.0571Z" fill="white"/>
<path d="M545.736 65.7229C545.736 67.1559 545.627 68.5864 545.409 69.9998L545.317 70.5634C545.276 70.8287 545.225 71.0939 545.163 71.3591C545.163 71.3591 545.163 71.4254 545.163 71.4586C545.163 71.7349 545.051 72.0001 544.979 72.2654C544.955 72.4006 544.92 72.5336 544.877 72.6632C544.795 72.9616 544.713 73.26 544.621 73.5584C544.529 73.8567 544.539 73.8346 544.498 73.9672L544.437 74.133C544.414 74.2085 544.387 74.2824 544.355 74.3541C543.991 75.2792 543.389 76.072 542.62 76.6382C541.851 77.2043 540.948 77.5201 540.018 77.5479C539.68 77.5479 539.332 77.5479 538.995 77.4926C538.287 77.4059 537.605 77.1553 536.995 76.758C536.386 76.3606 535.862 75.8259 535.461 75.1902C535.06 74.5545 534.791 73.8328 534.672 73.0744C534.552 72.316 534.586 71.5387 534.77 70.7955C535.115 69.4383 535.287 68.0366 535.281 66.6291C535.288 65.5619 535.202 64.4964 535.026 63.4463C534.916 62.7474 534.938 62.032 535.088 61.342C535.238 60.652 535.514 60.0012 535.9 59.4279C536.285 58.8547 536.773 58.3703 537.335 58.0033C537.896 57.6364 538.519 57.3941 539.169 57.2907H539.404H539.741H540.007C540.283 57.2742 540.56 57.2742 540.836 57.2907C541.082 57.2907 541.317 57.346 541.552 57.3902H541.654L541.869 57.4454H542.023C542.927 57.7205 543.739 58.2712 544.361 59.0316C544.983 59.792 545.39 60.73 545.531 61.7334C545.531 61.7334 545.531 61.7886 545.531 61.8107C545.603 62.4296 545.664 63.0596 545.705 63.7005C545.746 64.3415 545.736 65.0819 545.736 65.7229Z" fill="white"/>
<path d="M535.449 55.7769C537.155 55.7769 538.538 54.2727 538.538 52.4172C538.538 50.5618 537.155 49.0576 535.449 49.0576C533.742 49.0576 532.359 50.5618 532.359 52.4172C532.359 54.2727 533.742 55.7769 535.449 55.7769Z" fill="white"/>
<path d="M6.20106 91.1408H4.09373C3.54018 91.1236 2.99519 90.9888 2.48991 90.744C1.98463 90.4991 1.52896 90.1491 1.14894 89.714C0.768932 89.2788 0.472023 88.767 0.275197 88.2078C0.0783713 87.6486 -0.0145183 87.053 0.0018391 86.455V4.67473C-0.0145065 4.07728 0.0784664 3.48223 0.275416 2.92367C0.472365 2.36511 0.769422 1.85404 1.14956 1.41975C1.5297 0.985467 1.98545 0.636508 2.49067 0.392876C2.99589 0.149244 3.54065 0.0157362 4.09373 0H6.20106C7.31719 0.0346908 8.37496 0.546444 9.14214 1.42291C9.90933 2.29937 10.3232 3.4689 10.2929 4.67473V86.455C10.3093 87.053 10.2164 87.6486 10.0196 88.2078C9.82276 88.767 9.52586 89.2788 9.14584 89.714C8.76583 90.1491 8.31016 90.4991 7.80488 90.744C7.29959 90.9888 6.75461 91.1236 6.20106 91.1408ZM52.8077 0H55.0275C55.5806 0.0157362 56.1254 0.149244 56.6306 0.392876C57.1358 0.636508 57.5916 0.985467 57.9717 1.41975C58.3518 1.85404 58.6489 2.36511 58.8459 2.92367C59.0428 3.48223 59.1358 4.07728 59.1194 4.67473V86.455C59.1358 87.053 59.0429 87.6486 58.8461 88.2078C58.6492 88.767 58.3523 89.2788 57.9723 89.714C57.5923 90.1491 57.1366 90.4991 56.6314 90.744C56.1261 90.9888 55.5811 91.1236 55.0275 91.1408H52.8077C52.2541 91.1236 51.7092 90.9888 51.2039 90.744C50.6986 90.4991 50.2429 90.1491 49.8629 89.714C49.4829 89.2788 49.186 88.767 48.9892 88.2078C48.7923 87.6486 48.6994 87.053 48.7158 86.455V4.67473C48.6938 3.47457 49.1113 2.31356 49.8776 1.44431C50.6439 0.575049 51.697 0.0678798 52.8077 0.0331528V0Z" fill="white"/>
<path d="M28.6025 55.3674C32.8229 55.3674 36.2441 51.6466 36.2441 47.0567C36.2441 42.4669 32.8229 38.7461 28.6025 38.7461C24.3822 38.7461 20.9609 42.4669 20.9609 47.0567C20.9609 51.6466 24.3822 55.3674 28.6025 55.3674Z" fill="white"/>
</g>
<g opacity="0.3">
<path d="M110.942 191.421L81.5625 271.079H140.332L110.942 191.421Z" stroke="white" stroke-width="9" stroke-linecap="round" stroke-linejoin="round"/>
<path d="M255.438 194.36L226.754 231.493" stroke="white" stroke-width="10" stroke-linecap="round" stroke-linejoin="bevel"/>
<path d="M255.98 269.344L226.754 231.493" stroke="white" stroke-width="10" stroke-linecap="round" stroke-linejoin="bevel"/>
<path d="M342.923 266.648C343.748 266.648 344.417 265.975 344.417 265.145C344.417 264.315 343.748 263.642 342.923 263.642C342.098 263.642 341.43 264.315 341.43 265.145C341.43 265.975 342.098 266.648 342.923 266.648Z" fill="white" stroke="white" stroke-width="10" stroke-linecap="round" stroke-linejoin="bevel"/>
<path d="M349.819 251.353C353.038 245.302 354.722 238.439 354.699 231.46C354.699 210.142 339.354 192.847 320.419 192.847C301.484 192.847 286.129 210.142 286.129 231.46C286.129 252.778 301.473 270.074 320.419 270.074C322.249 270.071 324.076 269.904 325.882 269.576" stroke="white" stroke-width="10" stroke-linecap="round" stroke-linejoin="bevel"/>
<path d="M429.353 197.234C422.397 190.029 411.901 186.238 397.16 186.238C391.043 186.24 384.934 186.672 378.869 187.531C377.872 187.678 376.959 188.216 376.306 189.044C375.653 189.872 375.305 190.931 375.33 192.018V223.095C375.299 224.406 375.72 225.682 376.509 226.678C377.299 227.674 378.402 228.319 379.606 228.488C379.872 228.488 380.148 228.488 380.424 228.488C380.728 228.486 381.032 228.468 381.335 228.432C382.533 228.259 383.629 227.613 384.415 226.62C385.2 225.627 385.618 224.356 385.59 223.05V200.296C385.59 199.212 385.947 198.164 386.598 197.34C387.248 196.515 388.15 195.969 389.14 195.798C391.954 195.434 394.786 195.257 397.62 195.267C419.328 195.267 429.936 208.529 429.823 229.317C429.823 241.263 426.836 250.635 421.097 257.022C413.937 264.924 403.901 266.339 400.372 266.582C396.178 266.858 392.27 266.902 392.27 266.902C389.416 266.902 386.562 267.112 383.708 267.09C379.831 267.09 377.509 266.913 376.179 268.682C375.735 269.288 375.443 270.007 375.33 270.77C375.305 271.896 375.679 272.989 376.374 273.826C377.07 274.664 378.036 275.184 379.074 275.279C383.411 275.688 388.342 275.92 393.968 275.92C396.198 275.92 398.357 275.828 400.444 275.644C412.842 274.539 422.755 270.284 429.087 263.222C436.514 255.111 440.524 243.33 440.524 228.963C440.524 214.596 436.432 204.44 429.353 197.234Z" fill="white"/>
<path d="M470.579 190.769V271.787C470.593 272.381 470.497 272.973 470.299 273.528C470.101 274.082 469.803 274.589 469.423 275.02C469.043 275.45 468.588 275.795 468.084 276.035C467.58 276.274 467.037 276.405 466.487 276.417H464.39C463.84 276.405 463.297 276.274 462.793 276.035C462.29 275.795 461.835 275.45 461.455 275.02C461.074 274.589 460.777 274.082 460.578 273.528C460.38 272.973 460.285 272.381 460.298 271.787V190.769C460.273 189.569 460.69 188.408 461.458 187.54C462.225 186.671 463.279 186.168 464.39 186.139H466.497C467.606 186.171 468.658 186.676 469.423 187.543C470.188 188.411 470.604 189.571 470.579 190.769Z" fill="white"/>
<path d="M200.198 199.754C203.508 199.754 206.192 196.835 206.192 193.234C206.192 189.633 203.508 186.714 200.198 186.714C196.887 186.714 194.203 189.633 194.203 193.234C194.203 196.835 196.887 199.754 200.198 199.754Z" fill="white"/>
<path d="M207.48 271.455L207.429 271.179C207.347 270.61 207.156 270.066 206.869 269.581C206.582 269.096 206.205 268.68 205.762 268.361C205.319 268.041 204.819 267.824 204.294 267.723C203.77 267.622 203.231 267.64 202.713 267.775C198.771 268.823 194.705 269.221 190.652 268.958C172.444 267.852 162.603 253.64 163.697 232.488C164.178 223.293 166.49 215.834 170.244 210.275C171.073 209.039 171.989 207.875 172.986 206.794C173.282 206.484 173.579 206.186 173.896 205.887C174.496 205.295 175.124 204.738 175.778 204.219L176.014 204.031C176.29 203.81 176.566 203.611 176.842 203.412C177.603 202.869 178.392 202.375 179.205 201.931C179.492 201.765 179.809 201.599 180.116 201.445L180.392 201.312C180.75 201.135 181.108 200.98 181.415 200.826C181.722 200.671 182.244 200.483 182.653 200.328L183.85 199.92C184.457 199.719 185.017 199.377 185.489 198.917C185.961 198.457 186.333 197.891 186.58 197.258C186.827 196.626 186.942 195.942 186.918 195.256C186.893 194.571 186.729 193.899 186.438 193.289C186.438 193.178 186.335 193.068 186.274 192.957C186.248 192.902 186.218 192.85 186.182 192.802C186.167 192.771 186.15 192.742 186.131 192.714C185.665 191.949 185.003 191.349 184.224 190.987C183.446 190.626 182.587 190.519 181.753 190.681L181.282 190.802L180.024 191.211C179.737 191.299 179.441 191.399 179.154 191.52C178.868 191.642 178.612 191.719 178.356 191.819C178.101 191.918 177.63 192.106 177.272 192.261L175.983 192.858L175.042 193.333C174.52 193.598 174.019 193.874 173.507 194.184C172.996 194.493 172.761 194.637 172.392 194.869L171.615 195.377L170.909 195.875C169.444 196.914 168.056 198.074 166.756 199.345C166.091 199.997 165.446 200.682 164.812 201.389C158.214 208.871 154.112 219.48 153.447 232.234C151.974 260.514 167.052 276.848 188.146 278.141C193.681 278.567 199.243 278.045 204.626 276.594C205.603 276.266 206.434 275.561 206.961 274.613C207.487 273.665 207.672 272.541 207.48 271.455Z" fill="white"/>
<path d="M183.891 199.952L182.694 200.361C182.285 200.516 181.866 200.682 181.457 200.858C181.047 201.035 180.751 201.168 180.434 201.345L180.157 201.477C179.851 201.632 179.533 201.798 179.247 201.964C178.434 202.408 177.645 202.902 176.884 203.444C176.608 203.643 176.332 203.842 176.055 204.063L175.82 204.251C175.161 204.764 174.532 205.322 173.938 205.92C173.621 206.218 173.324 206.517 173.027 206.826C172.566 207.321 172.006 207.696 171.391 207.923C170.775 208.149 170.12 208.221 169.475 208.132C168.83 208.044 168.212 207.797 167.668 207.412C167.124 207.027 166.669 206.513 166.337 205.909C166.131 205.529 165.944 205.138 165.774 204.737C165.408 203.842 165.309 202.845 165.492 201.886C165.676 200.927 166.132 200.054 166.797 199.389C168.097 198.118 169.486 196.958 170.951 195.918L171.657 195.421L172.434 194.913C172.802 194.681 173.171 194.449 173.549 194.228C173.928 194.007 174.572 193.642 175.084 193.377L176.025 192.901L177.314 192.305C177.672 192.15 178.03 191.995 178.398 191.863C178.766 191.73 178.92 191.653 179.196 191.564C179.472 191.476 179.779 191.343 180.065 191.255L181.324 190.846H181.467C181.574 190.811 181.683 190.785 181.794 190.768C182.628 190.607 183.488 190.714 184.266 191.075C185.044 191.437 185.707 192.037 186.173 192.802C186.192 192.83 186.209 192.859 186.224 192.89L186.285 192.968C186.289 192.993 186.289 193.019 186.285 193.045C186.346 193.156 186.398 193.266 186.449 193.377C186.731 193.982 186.889 194.647 186.911 195.324C186.933 196.002 186.818 196.677 186.575 197.302C186.332 197.927 185.966 198.488 185.503 198.946C185.039 199.403 184.489 199.747 183.891 199.952Z" fill="white"/>
<path d="M679.829 191.421L650.449 274.395H709.209L679.829 191.421Z" stroke="white" stroke-width="9" stroke-linecap="round" stroke-linejoin="round"/>
<path d="M574.738 278.352H572.621C572.07 278.338 571.527 278.206 571.023 277.965C570.52 277.724 570.065 277.378 569.685 276.947C569.305 276.516 569.007 276.008 568.809 275.453C568.61 274.898 568.515 274.306 568.529 273.71V192.593C568.515 191.998 568.61 191.406 568.809 190.851C569.007 190.295 569.305 189.788 569.685 189.357C570.065 188.926 570.52 188.58 571.023 188.339C571.527 188.098 572.07 187.966 572.621 187.952H574.738C575.29 187.965 575.833 188.095 576.337 188.336C576.842 188.576 577.297 188.922 577.678 189.353C578.058 189.785 578.355 190.293 578.553 190.849C578.751 191.405 578.845 191.998 578.83 192.593V273.71C578.845 274.306 578.751 274.899 578.553 275.455C578.355 276.011 578.058 276.519 577.678 276.95C577.297 277.382 576.842 277.728 576.337 277.968C575.833 278.209 575.29 278.339 574.738 278.352ZM621.335 187.952H623.565C624.116 187.966 624.659 188.098 625.162 188.339C625.666 188.58 626.121 188.926 626.501 189.357C626.881 189.788 627.179 190.295 627.377 190.851C627.575 191.406 627.67 191.998 627.657 192.593V273.71C627.67 274.306 627.575 274.898 627.377 275.453C627.179 276.008 626.881 276.516 626.501 276.947C626.121 277.378 625.666 277.724 625.162 277.965C624.659 278.206 624.116 278.338 623.565 278.352H621.335C620.783 278.339 620.24 278.209 619.736 277.968C619.231 277.728 618.776 277.382 618.395 276.95C618.015 276.519 617.718 276.011 617.52 275.455C617.322 274.899 617.228 274.306 617.243 273.71V192.593C617.221 191.993 617.31 191.395 617.505 190.832C617.699 190.27 617.996 189.755 618.377 189.318C618.758 188.88 619.216 188.529 619.723 188.285C620.231 188.041 620.779 187.909 621.335 187.896V187.952Z" fill="white"/>
<path d="M597.134 241.727C601.354 241.727 604.775 237.833 604.775 233.029C604.775 228.226 601.354 224.332 597.134 224.332C592.913 224.332 589.492 228.226 589.492 233.029C589.492 237.833 592.913 241.727 597.134 241.727Z" fill="white"/>
<path d="M538.996 188.999C534.496 187.292 529.751 186.462 524.982 186.546C509.525 186.546 499.264 196.492 499.264 210.008C499.264 219.799 504.451 226.441 513.238 231.26C513.913 231.636 514.609 232 515.335 232.365L516.593 232.973C517.176 233.238 517.759 233.492 518.353 233.735C518.946 233.978 519.58 234.244 520.225 234.487C521.299 234.94 522.271 235.382 523.294 235.835L523.601 235.979C524.392 236.379 525.272 236.526 526.138 236.405C527.004 236.284 527.82 235.898 528.49 235.294C528.603 235.194 528.715 235.073 528.828 234.951C528.941 234.829 529.063 234.675 529.176 234.542L529.503 234.111V234.056C529.906 233.457 530.184 232.771 530.319 232.045C530.453 231.319 530.442 230.57 530.284 229.85C530.127 229.129 529.828 228.453 529.407 227.869C528.986 227.285 528.454 226.805 527.846 226.463L527.058 226.099L525.422 225.391C524.399 224.972 523.468 224.552 522.578 224.132L521.555 223.667C520.849 223.325 520.163 222.982 519.509 222.64C518.216 221.966 516.965 221.202 515.765 220.352C511.652 217.324 509.606 213.854 509.606 208.726C509.606 202.825 513.698 195.774 524.593 195.774C528.437 195.771 532.249 196.52 535.846 197.984C536.359 198.193 536.907 198.289 537.456 198.265C538.004 198.241 538.543 198.097 539.039 197.844C539.535 197.59 539.98 197.231 540.345 196.788C540.71 196.345 540.989 195.827 541.165 195.265L541.38 194.58C541.73 193.498 541.678 192.31 541.233 191.269C540.788 190.228 539.986 189.414 538.996 188.999ZM545.676 248.776C545.676 248.135 545.574 247.505 545.503 246.886C545.503 246.886 545.503 246.886 545.503 246.809C545.372 245.803 545.184 244.806 544.94 243.825C544.037 243.205 543.04 242.763 541.994 242.521H541.84C541.737 242.487 541.631 242.465 541.523 242.455C541.288 242.455 541.053 242.377 540.807 242.355C540.531 242.339 540.254 242.339 539.978 242.355C539.777 242.344 539.576 242.344 539.375 242.355H539.14C538.49 242.459 537.867 242.701 537.306 243.068C536.744 243.435 536.257 243.919 535.871 244.493C535.485 245.066 535.209 245.717 535.059 246.407C534.909 247.097 534.887 247.812 534.997 248.511C535.173 249.561 535.259 250.627 535.252 251.694C535.258 253.101 535.086 254.503 534.741 255.86C534.41 257.141 533.899 258.36 533.227 259.474C530.618 263.784 525.575 266.436 518.619 266.436C513.71 266.386 508.862 265.258 504.369 263.121C503.84 262.871 503.267 262.745 502.69 262.75C502.112 262.756 501.542 262.894 501.017 263.155C500.493 263.416 500.025 263.794 499.645 264.265C499.265 264.735 498.982 265.287 498.814 265.884L498.589 266.657C498.297 267.688 498.364 268.798 498.777 269.778C499.189 270.759 499.919 271.544 500.829 271.984C506.251 274.389 512.052 275.635 517.913 275.653C531.099 275.653 539.508 269.951 543.334 261.927C543.725 261.112 544.067 260.271 544.357 259.408C544.388 259.336 544.416 259.262 544.439 259.187L544.623 258.612C544.715 258.314 544.797 258.015 544.878 257.717C544.922 257.587 544.956 257.454 544.981 257.319C545.052 257.054 545.114 256.788 545.165 256.512C545.165 256.512 545.165 256.446 545.165 256.413C545.226 256.147 545.277 255.882 545.318 255.617L545.41 255.053C545.629 253.64 545.738 252.209 545.738 250.777C545.738 250.08 545.717 249.428 545.676 248.776Z" fill="white"/>
<path d="M529.535 234.057V234.112L529.207 234.543C529.095 234.676 528.982 234.82 528.859 234.952C528.737 235.085 528.634 235.195 528.522 235.295C527.851 235.899 527.035 236.285 526.169 236.406C525.303 236.528 524.423 236.38 523.632 235.98L523.325 235.836C522.384 235.383 521.381 234.941 520.256 234.488C519.612 234.245 518.998 233.991 518.384 233.737C517.77 233.482 517.208 233.239 516.625 232.974C516.246 232.808 515.888 232.631 515.52 232.455L515.366 232.366C514.594 231.965 513.94 231.338 513.479 230.557C513.018 229.776 512.768 228.872 512.758 227.946C512.76 227.353 512.805 226.762 512.891 226.177C513.033 225.411 513.337 224.691 513.78 224.074C514.223 223.456 514.792 222.957 515.443 222.617C516.094 222.277 516.809 222.104 517.533 222.112C518.256 222.12 518.967 222.308 519.612 222.663C520.246 223.006 520.931 223.348 521.658 223.691L522.681 224.155C523.571 224.575 524.532 224.995 525.524 225.415L527.161 226.122L527.611 226.321L527.949 226.487C528.548 226.836 529.071 227.32 529.482 227.906C529.894 228.491 530.185 229.165 530.335 229.883C530.485 230.6 530.491 231.343 530.353 232.063C530.215 232.784 529.936 233.463 529.535 234.057Z" fill="white"/>
<path d="M545.736 250.723C545.736 252.156 545.627 253.586 545.409 255L545.317 255.563C545.276 255.829 545.225 256.094 545.163 256.359C545.163 256.359 545.163 256.425 545.163 256.459C545.163 256.735 545.051 257 544.979 257.265C544.955 257.401 544.92 257.534 544.877 257.663C544.795 257.962 544.713 258.26 544.621 258.558C544.529 258.857 544.539 258.835 544.498 258.967L544.437 259.133C544.414 259.209 544.387 259.282 544.355 259.354C543.991 260.279 543.389 261.072 542.62 261.638C541.851 262.204 540.948 262.52 540.018 262.548C539.68 262.548 539.332 262.548 538.995 262.493C538.287 262.406 537.605 262.155 536.995 261.758C536.386 261.361 535.862 260.826 535.461 260.19C535.06 259.554 534.791 258.833 534.672 258.074C534.552 257.316 534.586 256.539 534.77 255.796C535.115 254.438 535.287 253.037 535.281 251.629C535.288 250.562 535.202 249.496 535.026 248.446C534.916 247.747 534.938 247.032 535.088 246.342C535.238 245.652 535.514 245.001 535.9 244.428C536.285 243.855 536.773 243.37 537.335 243.003C537.896 242.636 538.519 242.394 539.169 242.291H539.404H539.741H540.007C540.283 242.274 540.56 242.274 540.836 242.291C541.082 242.291 541.317 242.346 541.552 242.39H541.654L541.869 242.445H542.023C542.927 242.72 543.739 243.271 544.361 244.032C544.983 244.792 545.39 245.73 545.531 246.733C545.531 246.733 545.531 246.789 545.531 246.811C545.603 247.43 545.664 248.06 545.705 248.701C545.746 249.342 545.736 250.082 545.736 250.723Z" fill="white"/>
<path d="M535.449 240.777C537.155 240.777 538.538 239.273 538.538 237.417C538.538 235.562 537.155 234.058 535.449 234.058C533.742 234.058 532.359 235.562 532.359 237.417C532.359 239.273 533.742 240.777 535.449 240.777Z" fill="white"/>
<path d="M6.20106 276.141H4.09373C3.54018 276.124 2.99519 275.989 2.48991 275.744C1.98463 275.499 1.52896 275.149 1.14894 274.714C0.768932 274.279 0.472023 273.767 0.275197 273.208C0.0783713 272.649 -0.0145183 272.053 0.0018391 271.455V189.675C-0.0145065 189.077 0.0784664 188.482 0.275416 187.924C0.472365 187.365 0.769422 186.854 1.14956 186.42C1.5297 185.985 1.98545 185.637 2.49067 185.393C2.99589 185.149 3.54065 185.016 4.09373 185H6.20106C7.31719 185.035 8.37496 185.546 9.14214 186.423C9.90933 187.299 10.3232 188.469 10.2929 189.675V271.455C10.3093 272.053 10.2164 272.649 10.0196 273.208C9.82276 273.767 9.52586 274.279 9.14584 274.714C8.76583 275.149 8.31016 275.499 7.80488 275.744C7.29959 275.989 6.75461 276.124 6.20106 276.141ZM52.8077 185H55.0275C55.5806 185.016 56.1254 185.149 56.6306 185.393C57.1358 185.637 57.5916 185.985 57.9717 186.42C58.3518 186.854 58.6489 187.365 58.8459 187.924C59.0428 188.482 59.1358 189.077 59.1194 189.675V271.455C59.1358 272.053 59.0429 272.649 58.8461 273.208C58.6492 273.767 58.3523 274.279 57.9723 274.714C57.5923 275.149 57.1366 275.499 56.6314 275.744C56.1261 275.989 55.5811 276.124 55.0275 276.141H52.8077C52.2541 276.124 51.7092 275.989 51.2039 275.744C50.6986 275.499 50.2429 275.149 49.8629 274.714C49.4829 274.279 49.186 273.767 48.9892 273.208C48.7923 272.649 48.6994 272.053 48.7158 271.455V189.675C48.6938 188.475 49.1113 187.314 49.8776 186.444C50.6439 185.575 51.697 185.068 52.8077 185.033V185Z" fill="white"/>
<path d="M28.6025 240.367C32.8229 240.367 36.2441 236.647 36.2441 232.057C36.2441 227.467 32.8229 223.746 28.6025 223.746C24.3822 223.746 20.9609 227.467 20.9609 232.057C20.9609 236.647 24.3822 240.367 28.6025 240.367Z" fill="white"/>
</g>
</svg>
