<svg width="17" height="239" viewBox="0 0 17 239" fill="none" xmlns="http://www.w3.org/2000/svg">
<path d="M12.002 11.9771V5.94336L2.99972 10.9123V16.9461L12.002 11.9771Z" fill="#BBB4B4" stroke="#D9D9D9" stroke-width="6"/>
<path d="M12.002 29.981V23.9473L2.99972 28.9162V34.95L12.002 29.981Z" fill="#BBB4B4" stroke="#D9D9D9" stroke-width="6"/>
<path d="M12.002 47.9869V41.9531L2.99972 46.9221V52.9559L12.002 47.9869Z" fill="#BBB4B4" stroke="#D9D9D9" stroke-width="6"/>
<path d="M12.002 65.9908V59.957L2.99972 64.926V70.9598L12.002 65.9908Z" fill="#BBB4B4" stroke="#D9D9D9" stroke-width="6"/>
<path d="M12.002 83.9947V77.9609L2.99972 82.9299V88.9637L12.002 83.9947Z" fill="#BBB4B4" stroke="#D9D9D9" stroke-width="6"/>
<path d="M12.002 101.999V95.9648L2.99972 100.934V106.968L12.002 101.999Z" fill="#BBB4B4" stroke="#D9D9D9" stroke-width="6"/>
<path d="M12.002 120.004V113.971L2.99972 118.94V124.973L12.002 120.004Z" fill="#BBB4B4" stroke="#D9D9D9" stroke-width="6"/>
<path d="M12.002 138.008V131.975L2.99972 136.944V142.977L12.002 138.008Z" fill="#BBB4B4" stroke="#D9D9D9" stroke-width="6"/>
<path d="M12.002 156.012V149.979L2.99972 154.947V160.981L12.002 156.012Z" fill="#BBB4B4" stroke="#D9D9D9" stroke-width="6"/>
<path d="M12.002 174.016V167.982L2.99972 172.951V178.985L12.002 174.016Z" fill="#BBB4B4" stroke="#D9D9D9" stroke-width="6"/>
<path d="M12.002 192.022V185.988L2.99972 190.957V196.991L12.002 192.022Z" fill="#BBB4B4" stroke="#D9D9D9" stroke-width="6"/>
<path d="M13.002 210.026V203.992L3.99972 208.961V214.995L13.002 210.026Z" fill="#BBB4B4" stroke="#D9D9D9" stroke-width="6"/>
<path d="M13.002 228.03V221.996L3.99972 226.965V232.999L13.002 228.03Z" fill="#BBB4B4" stroke="#D9D9D9" stroke-width="6"/>
</svg>
