<svg width="215" height="45" viewBox="0 0 215 45" fill="none" xmlns="http://www.w3.org/2000/svg">
<path d="M54.575 45H47.151V0.199997H54.575V45ZM7.919 45H0.495V0.199997H7.919V45ZM23.535 9.544H31.535L47.151 45H39.791L27.503 18.44L15.279 45H7.919L23.535 9.544ZM108.71 25.928L71.334 30.6V33.032C71.334 35.528 73.382 37.576 75.878 37.576H96.678C99.174 37.576 101.222 35.528 101.222 33.032V32.904H108.71V33.032C108.71 39.624 103.27 45 96.678 45H75.878C69.286 45 63.91 39.624 63.91 33.032V16.904C63.91 10.248 69.286 4.872 75.878 4.872H96.678C103.27 4.872 108.71 10.248 108.71 16.904V25.928ZM71.334 16.904V23.048L101.222 19.336V16.904C101.222 14.408 99.174 12.36 96.678 12.36H75.878C73.382 12.36 71.334 14.408 71.334 16.904ZM142.384 4.872C153.456 4.872 162.416 13.896 162.48 24.968C162.48 36.04 153.456 45 142.384 45H117.68V0.199997H125.104V4.872H142.384ZM142.384 37.576C149.296 37.576 154.992 31.88 154.992 24.968C154.992 17.992 149.36 12.36 142.384 12.36H125.104V37.576H142.384ZM214.652 7.688H169.916V0.199997H214.652V7.688ZM188.54 26.376V18.632L214.716 7.688V15.048L202.812 19.912C204.54 19.912 205.948 20.104 207.484 20.744C208.956 21.32 210.3 22.28 211.388 23.432C213.5 25.736 214.716 28.872 214.716 31.944C214.716 39.176 208.828 45 201.596 45H182.972C175.74 45 169.916 39.176 169.916 31.944V30.536H177.34V31.944C177.34 35.08 179.836 37.576 182.972 37.576H201.596C204.732 37.576 207.228 35.08 207.228 31.944C207.228 28.872 204.732 26.376 201.596 26.376H188.54Z" fill="#C3C0C0"/>
</svg>
