<svg width="1518" height="1331" viewBox="0 0 1518 1331" fill="none" xmlns="http://www.w3.org/2000/svg">
<path d="M0.666667 1317C0.666667 1324.36 6.6362 1330.33 14 1330.33C21.3638 1330.33 27.3333 1324.36 27.3333 1317C27.3333 1309.64 21.3638 1303.67 14 1303.67C6.6362 1303.67 0.666667 1309.64 0.666667 1317ZM563.146 1317V1319.5H564.399L565.149 1318.5L563.146 1317ZM678.206 1163.07V1160.57H676.953L676.203 1161.57L678.206 1163.07ZM1515 1163.07V1165.57H1517.5V1163.07H1515ZM37.5348 3V0.5H35.0348V3H37.5348ZM37.5348 64.1637H35.0348V66.6637H37.5348V64.1637ZM795.621 64.1637C795.621 71.5275 801.591 77.497 808.955 77.497C816.318 77.497 822.288 71.5275 822.288 64.1637C822.288 56.7999 816.318 50.8304 808.955 50.8304C801.591 50.8304 795.621 56.7999 795.621 64.1637ZM1515 3H1517.5V0.5H1515V3ZM14 1319.5H563.146V1314.5H14V1319.5ZM565.149 1318.5L680.208 1164.57L676.203 1161.57L561.144 1315.5L565.149 1318.5ZM678.206 1165.57H1515V1160.57H678.206V1165.57ZM1517.5 1163.07V390.37H1512.5V1163.07H1517.5ZM992.003 0.5H37.5348V5.5H992.003V0.5ZM35.0348 3V64.1637H40.0348V3H35.0348ZM37.5348 66.6637H808.955V61.6637H37.5348V66.6637ZM1517.5 390.37V3H1512.5V390.37H1517.5ZM1515 0.5H992.003V5.5H1515V0.5Z" fill="#BBB4B4"/>
</svg>
