<svg width="218" height="217" viewBox="0 0 218 217" fill="none" xmlns="http://www.w3.org/2000/svg">
<mask id="path-1-inside-1_713_1413" fill="white">
<path d="M195.534 166.167C197.342 167.379 199.796 166.9 200.942 165.049C214.376 143.345 219.72 117.542 215.945 92.2115C211.976 65.5796 198.212 41.3872 177.347 24.3681C156.481 7.34898 130.016 -1.27184 103.13 0.192514C76.2438 1.65687 50.8716 13.101 31.978 32.2856C13.0845 51.4701 2.02957 77.0143 0.976361 103.92C-0.0768463 130.825 8.94751 157.155 26.2836 177.758C43.6196 198.361 68.0196 211.753 94.7091 215.315C120.094 218.702 145.813 212.965 167.309 199.2C169.142 198.027 169.584 195.565 168.344 193.776V193.776C167.105 191.987 164.653 191.549 162.817 192.718C142.937 205.367 119.191 210.631 95.7515 207.503C71.0075 204.201 48.3861 191.785 32.3137 172.684C16.2414 153.583 7.87481 129.172 8.85124 104.228C9.82768 79.2838 20.0768 55.6016 37.5931 37.8155C55.1094 20.0293 78.6322 9.41938 103.559 8.06176C128.485 6.70415 153.021 14.6966 172.365 30.4751C191.71 46.2536 204.47 68.6826 208.15 93.3732C211.636 116.762 206.736 140.586 194.391 160.657C193.251 162.511 193.727 164.955 195.534 166.167V166.167Z"/>
</mask>
<path d="M195.534 166.167C197.342 167.379 199.796 166.9 200.942 165.049C214.376 143.345 219.72 117.542 215.945 92.2115C211.976 65.5796 198.212 41.3872 177.347 24.3681C156.481 7.34898 130.016 -1.27184 103.13 0.192514C76.2438 1.65687 50.8716 13.101 31.978 32.2856C13.0845 51.4701 2.02957 77.0143 0.976361 103.92C-0.0768463 130.825 8.94751 157.155 26.2836 177.758C43.6196 198.361 68.0196 211.753 94.7091 215.315C120.094 218.702 145.813 212.965 167.309 199.2C169.142 198.027 169.584 195.565 168.344 193.776V193.776C167.105 191.987 164.653 191.549 162.817 192.718C142.937 205.367 119.191 210.631 95.7515 207.503C71.0075 204.201 48.3861 191.785 32.3137 172.684C16.2414 153.583 7.87481 129.172 8.85124 104.228C9.82768 79.2838 20.0768 55.6016 37.5931 37.8155C55.1094 20.0293 78.6322 9.41938 103.559 8.06176C128.485 6.70415 153.021 14.6966 172.365 30.4751C191.71 46.2536 204.47 68.6826 208.15 93.3732C211.636 116.762 206.736 140.586 194.391 160.657C193.251 162.511 193.727 164.955 195.534 166.167V166.167Z" stroke="#06EBE5" stroke-width="2.98252" stroke-dasharray="7.46 2.98" mask="url(#path-1-inside-1_713_1413)"/>
</svg>
