<svg width="70" height="980" viewBox="0 0 70 980" fill="none" xmlns="http://www.w3.org/2000/svg">
<path d="M44.0818 52.3109H36.3962L29.6294 59.0777H20.9413L11 49.1364V0.59966L69.478 0.59966V49.1364L59.5367 59.0777H50.8486L44.0818 52.3109ZM45.8362 47.7998H54.942L58.2836 44.5417V11.794H22.2779V44.5417L25.536 47.7998H34.6418V34.5169L45.8362 34.5169V47.7998ZM11 111.619L24.5335 104.936V80.2081H11V69.0137H35.7278V108.528L43.4971 116.214H50.5144L58.2836 108.528V69.0137H69.478V113.206L55.1927 127.492H38.8188L27.3738 116.047L11 124.234V111.619ZM11 185.767V147.088L20.9413 137.23H59.5367L69.478 147.088V185.767L59.5367 195.708H20.9413L11 185.767ZM54.942 148.424H25.536L22.1944 151.766V181.172L25.536 184.43H54.942L58.2001 181.172L58.2001 151.766L54.942 148.424ZM24.5335 255.263V244.737L56.2787 219.257H11V208.063H69.478V223.1L36.1455 249.749L35.7278 250.083V255.263H69.478V266.541H11V255.263H24.5335ZM54.1902 335.829L22.1944 291.051V335.829H11V277.351H26.2878L58.2836 322.128L58.2836 277.351H69.478L69.478 335.829H54.1902ZM34.6418 356.781H22.1944V404.065H11V345.587H24.4499L31.2167 352.353H38.9024L45.6691 345.587H69.478V404.065H58.2836L58.2836 356.781H45.8362L45.8362 404.065H34.6418L34.6418 356.781ZM22.1944 496.969H31.2167V449.769H52.2688L59.3697 456.87V508.247H48.0918V460.963H39.0694V508.247H18.1009L11 501.146V449.769H22.1944V496.969ZM59.3697 530.129V567.722L48.9272 578.165H21.4425L11 567.722V530.881H0.891659V519.687H48.9272L59.3697 530.129ZM26.0372 566.887H44.2489L48.0918 563.044V534.724L44.2489 530.881H22.1944V563.044L26.0372 566.887ZM59.3697 598.469L59.3697 637.148L49.4284 647.09H20.8577L11 637.148V598.469L20.8577 588.612H49.4284L59.3697 598.469ZM25.536 635.812H44.8337L48.0918 632.554L48.0918 603.148L44.8337 599.806H25.536L22.1944 603.148V632.554L25.536 635.812ZM11 705.916H44.2489L48.0918 702.073V669.91H11V658.716H59.3697V667.237L52.6029 674.004V681.69L59.3697 688.373V706.752L48.9272 717.194H11V705.916ZM22.1944 775.816H31.2167L31.2167 728.616H52.2688L59.3697 735.717L59.3697 787.094H48.0918L48.0918 739.811H39.0694L39.0694 787.094H18.1009L11 779.993V728.616H22.1944V775.816ZM59.3697 807.89V846.569L49.4284 856.511H20.8577L11 846.569V807.89L20.8577 798.033H49.4284L59.3697 807.89ZM25.536 845.233H44.8337L48.0918 841.975V812.569L44.8337 809.227H25.536L22.1944 812.569V841.975L25.536 845.233ZM52.6029 891.111L59.3697 897.877V913.082H48.0918V879.331H11V868.137H59.3697V876.658L52.6029 883.425V891.111ZM22.1944 968.268H31.2167V921.068H52.2688L59.3697 928.169V979.546H48.0918V932.263H39.0694V979.546H18.1009L11 972.445V921.068H22.1944V968.268Z" fill="#CA40CD"/>
</svg>
