<svg width="70" height="919" viewBox="0 0 70 919" fill="none" xmlns="http://www.w3.org/2000/svg">
<path d="M59 869.028V909.296L49.8937 918.403H41.038V907.208H45.2152L47.8051 904.618V873.706L45.2152 871.2H38.0304L31.2633 918.403H9.62531L0.518983 909.296L0.518983 869.028L9.62531 859.922H18.481L18.481 871.2H14.3038L11.7139 873.706V904.618L14.3038 907.208H21.4886L28.2557 859.922H49.8937L59 869.028ZM59 836.53V847.725H0.518983L0.518983 836.53H59ZM0.518983 812.055H47.8051L47.8051 771.536H59L59 823.249H0.518983V812.055ZM59 735.392V749.093L36.6101 771.483H0.518983V760.288H31.9316L47.8051 744.415V740.071L31.9316 724.281H0.518983L0.518983 713.002H36.6101L59 735.392ZM35.357 691.33H47.8051V644.044H59V702.525H45.5494L38.7823 695.758H31.0962L24.3291 702.525H0.518983L0.518983 644.044H11.7139V691.33H24.162V644.044H35.357V691.33ZM59 590.661L45.4658 597.344V622.073H59V633.268H34.2709V593.752L26.5013 586.066H19.4835L11.7139 593.752V633.268H0.518983L0.518983 589.073L14.8051 574.787H31.1797L42.6253 586.233L59 578.046V590.661ZM47.8051 483.5H38.7823L38.7823 530.703H17.7291L10.6278 523.602L10.6278 472.222H21.9063L21.9063 519.508H30.9291L30.9291 472.222H51.8987L59 479.323V530.703H47.8051V483.5ZM10.6278 450.338V412.743L21.0709 402.3H48.557L59 412.743V449.586H69.1089V460.781H21.0709L10.6278 450.338ZM43.962 413.579H25.7494L21.9063 417.422V445.743L25.7494 449.586H47.8051V417.422L43.962 413.579ZM10.6278 381.995V343.314L20.5696 333.372H49.1418L59 343.314L59 381.995L49.1418 391.853H20.5696L10.6278 381.995ZM44.4633 344.65H25.1646L21.9063 347.908V377.316L25.1646 380.658H44.4633L47.8051 377.316V347.908L44.4633 344.65ZM59 274.542H25.7494L21.9063 278.385L21.9063 310.55H59V321.745H10.6278V313.223L17.3949 306.456V298.77L10.6278 292.087L10.6278 273.707L21.0709 263.264H59V274.542ZM47.8051 204.638H38.7823V251.841H17.7291L10.6278 244.74V193.36H21.9063V240.646H30.9291V193.36H51.8987L59 200.461V251.841H47.8051V204.638ZM10.6278 172.563L10.6278 133.882L20.5696 123.94H49.1418L59 133.882V172.563L49.1418 182.421H20.5696L10.6278 172.563ZM44.4633 135.218H25.1646L21.9063 138.477V167.884L25.1646 171.226H44.4633L47.8051 167.884V138.477L44.4633 135.218ZM17.3949 89.3382L10.6278 82.5712V67.3661H21.9063V101.118H59L59 112.313H10.6278V103.791L17.3949 97.0243V89.3382ZM47.8051 12.1766H38.7823L38.7823 59.3791H17.7291L10.6278 52.2778V0.898094H21.9063V48.1842H30.9291V0.898094H51.8987L59 7.99936V59.3791H47.8051V12.1766Z" fill="#CA40CD"/>
</svg>
