<svg width="24" height="18" viewBox="0 0 24 18" fill="none" xmlns="http://www.w3.org/2000/svg">
<path d="M19.6385 1.47005C18.1685 0.784788 16.5769 0.287419 14.919 5.08401e-05C14.9045 -0.000414037 14.89 0.00231384 14.8767 0.00804273C14.8633 0.0137716 14.8513 0.0223624 14.8417 0.033209C14.6427 0.397946 14.4106 0.873209 14.2559 1.23795C12.4974 0.972682 10.7091 0.972682 8.9506 1.23795C8.79587 0.862156 8.56376 0.397946 8.35376 0.033209C8.34271 0.0111037 8.30955 5.08401e-05 8.27639 5.08401e-05C6.6185 0.287419 5.03797 0.784788 3.55692 1.47005C3.54587 1.47005 3.53481 1.4811 3.52376 1.49216C0.517445 5.99058 -0.311503 10.3674 0.0974445 14.7001C0.0974445 14.7222 0.108497 14.7443 0.130602 14.7553C2.12008 16.2143 4.03218 17.0985 5.92218 17.6843C5.95534 17.6953 5.9885 17.6843 5.99955 17.6622C6.44166 17.0543 6.83955 16.4132 7.18218 15.739C7.20429 15.6948 7.18218 15.6506 7.13797 15.6395C6.50797 15.3964 5.91113 15.109 5.32534 14.7774C5.28113 14.7553 5.28113 14.689 5.31429 14.6558C5.43587 14.5674 5.55745 14.4679 5.67902 14.3795C5.70113 14.3574 5.73429 14.3574 5.75639 14.3685C9.5585 16.1037 13.659 16.1037 17.4169 14.3685C17.439 14.3574 17.4722 14.3574 17.4943 14.3795C17.6159 14.479 17.7374 14.5674 17.859 14.6669C17.9032 14.7001 17.9032 14.7664 17.848 14.7885C17.2732 15.1311 16.6653 15.4074 16.0353 15.6506C15.9911 15.6616 15.9801 15.7169 15.9911 15.7501C16.3448 16.4243 16.7427 17.0653 17.1738 17.6732C17.2069 17.6843 17.2401 17.6953 17.2732 17.6843C19.1743 17.0985 21.0864 16.2143 23.0759 14.7553C23.098 14.7443 23.109 14.7222 23.109 14.7001C23.5953 9.69321 22.3022 5.34952 19.6827 1.49216C19.6717 1.4811 19.6606 1.47005 19.6385 1.47005ZM7.75692 12.0585C6.6185 12.0585 5.66797 11.0085 5.66797 9.71531C5.66797 8.42216 6.59639 7.37216 7.75692 7.37216C8.9285 7.37216 9.85692 8.43321 9.84587 9.71531C9.84587 11.0085 8.91745 12.0585 7.75692 12.0585ZM15.4606 12.0585C14.3222 12.0585 13.3717 11.0085 13.3717 9.71531C13.3717 8.42216 14.3001 7.37216 15.4606 7.37216C16.6322 7.37216 17.5606 8.43321 17.5496 9.71531C17.5496 11.0085 16.6322 12.0585 15.4606 12.0585Z" fill="#8E8E8E"/>
</svg>
