<svg width="50" height="50" viewBox="0 0 50 50" fill="none" xmlns="http://www.w3.org/2000/svg">
<path d="M36 3H14C7.92487 3 3 7.92487 3 14V36C3 42.0751 7.92487 47 14 47H36C42.0751 47 47 42.0751 47 36V14C47 7.92487 42.0751 3 36 3Z" stroke="#F8F8F8" stroke-width="5" stroke-linecap="round" stroke-linejoin="round"/>
<path d="M37.0988 12.8994H37.1208M33.7988 23.6134C34.0703 25.4444 33.7575 27.3143 32.905 28.9572C32.0525 30.6002 30.7037 31.9325 29.0503 32.7647C27.397 33.5969 25.5234 33.8865 23.6959 33.5925C21.8684 33.2984 20.1802 32.4356 18.8714 31.1268C17.5626 29.8179 16.6998 28.1297 16.4057 26.3023C16.1117 24.4748 16.4013 22.6012 17.2335 20.9478C18.0657 19.2945 19.398 17.9456 21.0409 17.0931C22.6839 16.2406 24.5538 15.9279 26.3848 16.1994C28.2524 16.4764 29.9814 17.3466 31.3165 18.6817C32.6516 20.0167 33.5218 21.7458 33.7988 23.6134Z" stroke="#F8F8F8" stroke-width="5" stroke-linecap="round" stroke-linejoin="round"/>
</svg>
