<svg width="48" height="48" viewBox="0 0 48 48" fill="none" xmlns="http://www.w3.org/2000/svg">
<path d="M46.08 0H1.92C0.858 0 0 0.858 0 1.92V46.08C0 47.142 0.858 48 1.92 48H46.08C47.142 48 48 47.142 48 46.08V1.92C48 0.858 47.142 0 46.08 0ZM14.238 40.902H7.116V17.994H14.238V40.902ZM10.68 14.862C9.86356 14.862 9.06545 14.6199 8.38661 14.1663C7.70776 13.7127 7.17866 13.068 6.86623 12.3137C6.55379 11.5594 6.47204 10.7294 6.63132 9.92867C6.7906 9.12791 7.18375 8.39237 7.76106 7.81506C8.33837 7.23775 9.07391 6.8446 9.87467 6.68532C10.6754 6.52604 11.5054 6.60779 12.2597 6.92022C13.014 7.23266 13.6587 7.76176 14.1123 8.44061C14.5659 9.11945 14.808 9.91756 14.808 10.734C14.802 13.014 12.954 14.862 10.68 14.862ZM40.902 40.902H33.786V29.76C33.786 27.102 33.738 23.688 30.084 23.688C26.382 23.688 25.812 26.58 25.812 29.568V40.902H18.702V17.994H25.53V21.126H25.626C26.574 19.326 28.896 17.424 32.364 17.424C39.576 17.424 40.902 22.17 40.902 28.338V40.902Z" fill="#F8F8F8"/>
</svg>
