<svg width="56" height="47" viewBox="0 0 56 47" fill="none" xmlns="http://www.w3.org/2000/svg">
<path d="M56 5.57941C53.9035 6.53679 51.6803 7.16573 49.4039 7.44541C51.8024 5.96264 53.5969 3.63043 54.4533 0.883229C52.2006 2.26713 49.7308 3.23699 47.1593 3.76163C45.4302 1.8519 43.1384 0.585359 40.64 0.158907C38.1416 -0.267545 35.5768 0.169984 33.3441 1.40348C31.1115 2.63697 29.3362 4.59731 28.2943 6.97974C27.2523 9.36217 27.0021 12.0332 27.5824 14.5776C23.0136 14.3416 18.5439 13.1164 14.4636 10.9813C10.3833 8.84632 6.78362 5.8493 3.89835 2.18489C2.87717 3.99544 2.34054 6.05364 2.34341 8.1487C2.34341 12.2607 4.37363 15.8934 7.4533 18.0203C5.62916 17.9609 3.84518 17.4524 2.25 16.5372V16.6818C2.24992 19.4209 3.16767 22.0757 4.84761 24.1959C6.52755 26.3161 8.86625 27.7713 11.467 28.3145C9.77374 28.7887 7.99806 28.8585 6.27472 28.5187C7.00803 30.8764 8.4374 32.9383 10.3626 34.4156C12.2879 35.8928 14.6125 36.7115 17.011 36.7569C14.6274 38.6894 11.898 40.1179 8.97914 40.9607C6.06025 41.8034 3.00903 42.044 0 41.6686C5.25198 45.1549 11.3657 47.0058 17.6099 47C38.7472 47 50.3022 28.9271 50.3022 13.2533C50.3022 12.7428 50.2912 12.2267 50.2692 11.7191C52.5176 10.0412 54.4582 7.96029 56 5.57941Z" fill="#F8F8F8"/>
</svg>
