<svg width="1518" height="1454" viewBox="0 0 1518 1454" fill="none" xmlns="http://www.w3.org/2000/svg">
<path d="M1517.33 1440C1517.33 1447.36 1511.36 1453.33 1504 1453.33C1496.64 1453.33 1490.67 1447.36 1490.67 1440C1490.67 1432.64 1496.64 1426.67 1504 1426.67C1511.36 1426.67 1517.33 1432.64 1517.33 1440ZM954.854 1440V1442.5H953.534L952.79 1441.41L954.854 1440ZM839.794 1271.66V1269.16H841.114L841.858 1270.25L839.794 1271.66ZM3 1271.66V1274.16H0.5V1271.66H3ZM1480.47 3V0.5H1482.97V3H1480.47ZM1480.47 69.8891H1482.97V72.3891H1480.47V69.8891ZM722.379 69.8891C722.379 77.2529 716.409 83.2224 709.045 83.2224C701.682 83.2224 695.712 77.2529 695.712 69.8891C695.712 62.5253 701.682 56.5557 709.045 56.5557C716.409 56.5557 722.379 62.5253 722.379 69.8891ZM3 3H0.5V0.5H3V3ZM1504 1442.5H954.854V1437.5H1504V1442.5ZM952.79 1441.41L837.73 1273.07L841.858 1270.25L956.918 1438.59L952.79 1441.41ZM839.794 1274.16H3V1269.16H839.794V1274.16ZM0.5 1271.66V426.631H5.5V1271.66H0.5ZM525.997 0.5H1480.47V5.5H525.997V0.5ZM1482.97 3V69.8891H1477.97V3H1482.97ZM1480.47 72.3891H709.045V67.3891H1480.47V72.3891ZM0.5 426.631V3H5.5V426.631H0.5ZM3 0.5H525.997V5.5H3V0.5Z" fill="#BBB4B4"/>
</svg>
