<svg width="195" height="41" viewBox="0 0 195 41" fill="none" xmlns="http://www.w3.org/2000/svg">
<path d="M64.1791 23.9234H57.8327L56.8686 26.8502H51.6396L58.1636 8.94287H63.894L70.3922 26.8502H65.136L64.1791 23.9234ZM61.0059 14.3251L59.1034 20.1113H62.9356L61.0059 14.3251Z" fill="#172B4D"/>
<path d="M72.0195 8.05981H76.9935V26.8554H72.0195V8.05981Z" fill="#172B4D"/>
<path d="M85.0886 12.4345C85.9164 12.385 86.7423 12.5591 87.4796 12.9388C88.2169 13.3184 88.8384 13.8894 89.279 14.592V12.6036H94.2529V26.6902C94.2529 30.4966 92.1728 33.8532 87.0441 33.8532C82.6031 33.8532 79.8611 31.6197 79.5058 28.0927H84.4081C84.6115 29.0053 85.474 29.5382 86.7432 29.5382C88.1386 29.5382 89.2818 28.905 89.2818 26.6959V24.868C88.8413 25.5702 88.22 26.141 87.483 26.5206C86.746 26.9002 85.9205 27.0746 85.0929 27.0254C81.7178 27.0254 79.0273 24.2591 79.0273 19.7192C79.0273 15.1794 81.712 12.4345 85.0886 12.4345ZM86.6874 16.7738C86.3165 16.7745 85.95 16.8541 85.6122 17.0073C85.2745 17.1605 84.9732 17.3838 84.7283 17.6623C84.4835 17.9409 84.3008 18.2684 84.1922 18.623C84.0837 18.9777 84.0517 19.3514 84.0987 19.7192C84.1642 20.2169 84.3719 20.6852 84.6967 21.068C85.0215 21.4508 85.4497 21.7318 85.9301 21.8775C86.4105 22.0232 86.9226 22.0273 87.4053 21.8894C87.888 21.7516 88.3207 21.4774 88.6517 21.1C88.9826 20.7225 89.1978 20.2577 89.2713 19.7611C89.3449 19.2645 89.2738 18.7573 89.0666 18.3C88.8593 17.8428 88.5247 17.455 88.1027 17.1831C87.6808 16.9111 87.1894 16.7666 86.6874 16.7667V16.7738Z" fill="#172B4D"/>
<path d="M103.717 27.0182C102.282 26.981 100.89 26.5218 99.7153 25.6978C98.5402 24.8738 97.6342 23.7217 97.1104 22.3855C96.5866 21.0494 96.4684 19.5885 96.7704 18.1855C97.0725 16.7825 97.7814 15.4996 98.8086 14.4974C99.8358 13.4951 101.136 12.8179 102.546 12.5505C103.956 12.283 105.413 12.4372 106.736 12.9937C108.059 13.5501 109.189 14.4842 109.983 15.6792C110.778 16.8741 111.203 18.2769 111.205 19.712C111.251 20.6994 111.087 21.6852 110.725 22.6047C110.362 23.5242 109.809 24.3564 109.102 25.0467C108.394 25.7369 107.549 26.2695 106.62 26.6093C105.692 26.9491 104.703 27.0885 103.717 27.0182ZM103.717 22.7033C104.986 22.7033 106.152 21.7649 106.152 19.7092C106.152 17.6778 105.006 16.7394 103.75 16.7394C102.493 16.7394 101.363 17.6778 101.363 19.7092C101.356 21.7649 102.422 22.7033 103.717 22.7033Z" fill="#172B4D"/>
<path d="M126.1 12.734L118.665 22.8094H126.1V26.8565H113.081V23.0658L120.438 12.9661H113.081V8.95483H126.1V12.734Z" fill="#172B4D"/>
<path d="M135.208 27.0186C133.291 26.9917 131.461 26.2112 130.114 24.8456C128.768 23.4801 128.013 21.6395 128.013 19.7217C128.013 17.804 128.768 15.9633 130.114 14.5978C131.461 13.2323 133.291 12.4517 135.208 12.4248C136.164 12.359 137.123 12.498 138.021 12.8324C138.918 13.1667 139.735 13.6889 140.414 14.3639C141.094 15.0389 141.622 15.8513 141.963 16.7467C142.304 17.6421 142.45 18.6 142.391 19.5563C142.391 19.9462 142.366 20.3358 142.315 20.7224H132.899C133 22.3742 133.889 23.0317 135.002 23.0317C135.376 23.0456 135.745 22.9464 136.062 22.7471C136.379 22.5477 136.629 22.2575 136.778 21.9143H142.079C141.7 23.4283 140.809 24.7643 139.556 25.695C138.303 26.6256 136.767 27.0934 135.208 27.0186ZM132.925 18.3085H137.311C137.313 18.0361 137.257 17.7664 137.148 17.5168C137.039 17.2672 136.878 17.0432 136.677 16.8593C136.476 16.6754 136.239 16.5355 135.981 16.4488C135.723 16.3621 135.449 16.3305 135.178 16.3559C134.622 16.327 134.077 16.5148 133.657 16.8798C133.237 17.2448 132.975 17.7585 132.926 18.3128L132.925 18.3085Z" fill="#172B4D"/>
<path d="M154.12 19.2028C154.148 18.8755 154.108 18.5459 154.002 18.2349C153.895 17.924 153.726 17.6384 153.504 17.3965C153.282 17.1545 153.011 16.9612 152.711 16.8291C152.41 16.6969 152.085 16.6287 151.756 16.6287C151.428 16.6287 151.103 16.6969 150.802 16.8291C150.501 16.9612 150.231 17.1545 150.009 17.3965C149.787 17.6384 149.617 17.924 149.511 18.2349C149.405 18.5459 149.365 18.8755 149.393 19.2028V26.85H144.424V12.6029H149.398V14.64C149.888 13.9515 150.541 13.3945 151.298 13.0184C152.055 12.6424 152.893 12.4588 153.738 12.484C157.041 12.484 159.093 14.8191 159.093 18.5496V26.8586H154.119L154.12 19.2028Z" fill="#172B4D"/>
<path d="M161.427 8.74503C161.51 8.03208 161.851 7.37429 162.387 6.89682C162.923 6.41935 163.616 6.15552 164.333 6.15552C165.051 6.15552 165.744 6.41935 166.28 6.89682C166.815 7.37429 167.157 8.03208 167.239 8.74503C167.144 9.44823 166.797 10.0931 166.263 10.56C165.728 11.0269 165.043 11.2842 164.333 11.2842C163.624 11.2842 162.938 11.0269 162.404 10.56C161.869 10.0931 161.522 9.44823 161.427 8.74503ZM161.833 12.603H166.808V26.8501H161.833V12.603Z" fill="#172B4D"/>
<path d="M170.436 16.7409H168.685V12.6036H170.436V9.14966H175.437V12.6036H178.024V16.7409H175.437V21.5129C175.437 22.2736 175.765 22.6031 176.603 22.6031H178.048V26.8493H175.892C172.741 26.8493 170.436 25.5299 170.436 21.4427V16.7409Z" fill="#172B4D"/>
<path d="M180.335 8.05981H185.31V14.6325C185.806 13.938 186.467 13.3775 187.233 13.0012C187.999 12.6249 188.847 12.4446 189.7 12.4765C192.949 12.4765 195 14.8116 195 18.5421V26.8554H190.026V19.2082C190.06 18.8781 190.024 18.5447 189.92 18.2294C189.817 17.9141 189.649 17.624 189.426 17.3778C189.204 17.1316 188.932 16.9348 188.629 16.8001C188.326 16.6654 187.998 16.5958 187.666 16.5958C187.334 16.5958 187.006 16.6654 186.703 16.8001C186.4 16.9348 186.128 17.1316 185.906 17.3778C185.683 17.624 185.515 17.9141 185.412 18.2294C185.308 18.5447 185.272 18.8781 185.306 19.2082V26.8554H180.331L180.335 8.05981Z" fill="#172B4D"/>
<path d="M12.099 40.0045H2.88033C2.37714 40.0039 1.88286 39.8716 1.44661 39.6208C1.01036 39.37 0.647318 39.0095 0.393557 38.575C0.139797 38.1404 0.00414993 37.6471 9.37188e-05 37.1439C-0.00396249 36.6407 0.123713 36.1453 0.370436 35.7067L19.5915 1.47071C19.7212 1.23529 19.8826 1.01885 20.0714 0.82748C20.2525 0.647217 20.4573 0.492504 20.6802 0.367619C21.1141 0.126523 21.6022 0 22.0985 0C22.5948 0 23.0829 0.126523 23.5168 0.367619C23.7392 0.492538 23.9436 0.647255 24.1242 0.82748C24.3198 1.01737 24.4876 1.23392 24.6227 1.47071L43.8466 35.7024C44.0935 36.1413 44.2212 36.6371 44.2169 37.1407C44.2127 37.6442 44.0767 38.1379 43.8224 38.5725C43.5681 39.0072 43.2045 39.3677 42.7676 39.6181C42.3308 39.8686 41.836 40.0003 41.3324 40.0002H32.1209C31.1632 38.1821 29.7211 36.6646 27.9542 35.6155C26.1873 34.5665 24.1646 34.0268 22.11 34.0564C20.0556 34.0267 18.0332 34.566 16.2664 35.6145C14.4995 36.663 13.0572 38.1799 12.099 39.9973V40.0045Z" fill="#172B4D"/>
<path opacity="0.27" d="M19.6758 26.3825L22.2716 23.1147H23.6197L21.223 26.381L19.6758 26.3825Z" fill="white"/>
<path opacity="0.22" d="M21.7315 18.261H25.7872L24.6411 19.6936L20.6929 19.5962L21.7315 18.261Z" fill="white"/>
<path d="M21.7404 18.272L17.2564 23.9579C17.0387 24.1889 16.9175 24.4943 16.9175 24.8117C16.9175 25.1291 17.0387 25.4346 17.2564 25.6656C17.514 25.9546 17.8382 26.1765 18.2009 26.312C18.5636 26.4476 18.9539 26.4927 19.338 26.4434L22.5814 22.4437L25.8018 18.272H21.7404Z" fill="white"/>
<path d="M22.2779 23.1367H25.9682C25.9682 23.1367 27.0498 23.4003 27.3306 24.0493C27.4919 24.4817 27.4919 24.9578 27.3306 25.3902C27.3306 25.3902 26.9624 26.3844 26.0986 26.3844H19.6992L22.2779 23.1367Z" fill="white"/>
<path d="M18.7175 14.999H25.1169C25.5109 14.999 25.8888 15.1555 26.1674 15.4341C26.446 15.7128 26.6025 16.0906 26.6025 16.4846C26.6025 16.6797 26.5641 16.8729 26.4894 17.0531C26.4148 17.2334 26.3053 17.3971 26.1674 17.5351C26.0294 17.673 25.8657 17.7825 25.6854 17.8571C25.5052 17.9318 25.312 17.9702 25.1169 17.9702H18.7175C18.5224 17.9702 18.3292 17.9318 18.149 17.8571C17.9688 17.7825 17.805 17.673 17.667 17.5351C17.5291 17.3971 17.4197 17.2334 17.345 17.0531C17.2704 16.8729 17.2319 16.6797 17.2319 16.4846C17.2319 16.0906 17.3884 15.7128 17.667 15.4341C17.9457 15.1555 18.3235 14.999 18.7175 14.999Z" fill="white"/>
</svg>
