<svg width="350" height="50" viewBox="0 0 105 15" fill="none" xmlns="http://www.w3.org/2000/svg">
<g id="Group 28">
<g id="Group 23">
<line id="Line 11" y1="-0.5" x2="5.4129" y2="-0.5" transform="matrix(-1 0 0 1 104.121 4.3208)" stroke="#06EBE5"/>
<line id="Line 17" y1="-0.5" x2="11.3179" y2="-0.5" transform="matrix(-1 0 0 1 102.891 1.96777)" stroke="#06EBE5"/>
<line id="Line 12" y1="-0.5" x2="1.72229" y2="-0.5" transform="matrix(-1 0 0 1 98.954 5.26172)" stroke="#06EBE5"/>
<line id="Line 18" y1="-0.5" x2="3.44457" y2="-0.5" transform="matrix(-1 0 0 1 96.0013 5.73242)" stroke="#06EBE5"/>
<line id="Line 14" y1="-0.5" x2="2.82321" y2="-0.5" transform="matrix(0 1 1 0 100.43 4.7915)" stroke="#06EBE5"/>
<line id="Line 15" y1="-0.5" x2="2.82321" y2="-0.5" transform="matrix(0 1 1 0 101.906 4.7915)" stroke="#06EBE5"/>
<line id="Line 16" y1="-0.5" x2="2.82321" y2="-0.5" transform="matrix(0 1 1 0 103.383 4.7915)" stroke="#06EBE5"/>
<path id="Vector 9" d="M97.4777 1.49823L96.3223 3.38037L91.5727 3.38037" stroke="#06EBE5"/>
</g>
<path id="Line 19" d="M91.5718 1.0263L47.7765 1.50765L25.8803 1.50765L23.2969 5.49627" stroke="#06EBE5"/>
<path id="Line 20" d="M68.1987 3.37842L65.9829 7.14269L22.1877 7.62405L4.96626 7.62404L1.02961 13.9654" stroke="#06EBE5"/>
<ellipse id="Ellipse 5" cx="0.615102" cy="1.17634" rx="0.615102" ry="1.17634" transform="matrix(-1 0 0 1 50.7299 3.37842)" fill="black"/>
<ellipse id="Ellipse 6" cx="0.615102" cy="1.17634" rx="0.615102" ry="1.17634" transform="matrix(-1 0 0 1 48.2698 3.37842)" fill="black"/>
<ellipse id="Ellipse 7" cx="0.615102" cy="1.17634" rx="0.615102" ry="1.17634" transform="matrix(-1 0 0 1 45.809 3.37842)" fill="black"/>
<ellipse id="Ellipse 8" cx="0.615102" cy="1.17634" rx="0.615102" ry="1.17634" transform="matrix(-1 0 0 1 43.3489 3.37842)" fill="black"/>
<ellipse id="Ellipse 9" cx="0.615102" cy="1.17634" rx="0.615102" ry="1.17634" transform="matrix(-1 0 0 1 40.8882 3.37842)" fill="black"/>
<path id="Vector 10" d="M64.5083 3.81982C64.7844 3.81982 65.0083 4.04368 65.0083 4.31982C65.0083 4.59597 64.7844 4.81982 64.5083 4.81982V3.81982ZM64.5083 4.81982H52.0832V3.81982H64.5083V4.81982Z" fill="#06EBE5"/>
<path id="Vector 11" d="M38.4277 3.81982C38.7039 3.81982 38.9277 4.04368 38.9277 4.31982C38.9277 4.59597 38.7039 4.81982 38.4277 4.81982V3.81982ZM38.4277 4.81982H26.0027V3.81982H38.4277V4.81982Z" fill="#06EBE5"/>
</g>
</svg>
