<svg width="48" height="1530" viewBox="0 0 48 2047" fill="none" xmlns="http://www.w3.org/2000/svg">
<path opacity="0.6" d="M0 24C-5.79387e-07 37.2548 10.7452 48 24 48C37.2548 48 48 37.2548 48 24C48 10.7452 37.2548 5.79387e-07 24 0C10.7452 -5.79387e-07 5.79387e-07 10.7452 0 24ZM-8.73791e-05 2023C-8.79585e-05 2036.25 10.7451 2047 23.9999 2047C37.2547 2047 47.9999 2036.25 47.9999 2023C47.9999 2009.75 37.2547 1999 23.9999 1999C10.7451 1999 -8.67997e-05 2009.75 -8.73791e-05 2023ZM19.5 24L19.4999 2023L28.4999 2023L28.5 24L19.5 24Z" fill="#06EBE5"/>
</svg>
